<?xml version="1.0" standalone="no"?><!DOCTYPE svg PUBLIC "-//W3C//DTD SVG 1.1//EN" "http://www.w3.org/Graphics/SVG/1.1/DTD/svg11.dtd"><svg t="1644913791117" class="icon" viewBox="0 0 1024 1024" version="1.1" xmlns="http://www.w3.org/2000/svg" p-id="2939" xmlns:xlink="http://www.w3.org/1999/xlink" width="200" height="200"><defs><style type="text/css"></style></defs><path d="M170.66666667 136.53333333a34.13333333 34.13333333 0 0 0-34.13333334 34.13333334v204.8a34.13333333 34.13333333 0 0 0 34.13333334 34.13333333h204.8a34.13333333 34.13333333 0 0 0 34.13333333-34.13333333V170.66666667a34.13333333 34.13333333 0 0 0-34.13333333-34.13333334H170.66666667z m0-68.26666666h204.8a102.4 102.4 0 0 1 102.4 102.4v204.8a102.4 102.4 0 0 1-102.4 102.4H170.66666667a102.4 102.4 0 0 1-102.4-102.4V170.66666667a102.4 102.4 0 0 1 102.4-102.4z m0 546.13333333a34.13333333 34.13333333 0 0 0-34.13333334 34.13333333v204.8a34.13333333 34.13333333 0 0 0 34.13333334 34.13333334h204.8a34.13333333 34.13333333 0 0 0 34.13333333-34.13333334V648.53333333a34.13333333 34.13333333 0 0 0-34.13333333-34.13333333H170.66666667z m0-68.26666667h204.8a102.4 102.4 0 0 1 102.4 102.4v204.8a102.4 102.4 0 0 1-102.4 102.4H170.66666667a102.4 102.4 0 0 1-102.4-102.4V648.53333333a102.4 102.4 0 0 1 102.4-102.4z m477.86666666 68.26666667a34.13333333 34.13333333 0 0 0-34.13333333 34.13333333v204.8a34.13333333 34.13333333 0 0 0 34.13333333 34.13333334h204.8a34.13333333 34.13333333 0 0 0 34.13333334-34.13333334V648.53333333a34.13333333 34.13333333 0 0 0-34.13333334-34.13333333H648.53333333z m0-68.26666667h204.8a102.4 102.4 0 0 1 102.4 102.4v204.8a102.4 102.4 0 0 1-102.4 102.4H648.53333333a102.4 102.4 0 0 1-102.4-102.4V648.53333333a102.4 102.4 0 0 1 102.4-102.4z m-40.2432-296.2432a34.13333333 34.13333333 0 0 0 0 48.29866667l119.46666667 119.46666667a34.13333333 34.13333333 0 0 0 48.29866667 0l119.46666666-119.46666667a34.13333333 34.13333333 0 0 0 0-48.29866667l-119.46666666-119.46666666a34.13333333 34.13333333 0 0 0-48.29866667 0l-119.46666667 119.46666666z m-48.26453333-48.26453333l119.46666667-119.46666667a102.4 102.4 0 0 1 144.82773333 0l119.46666667 119.46666667a102.4 102.4 0 0 1 0 144.82773333l-119.46666667 119.46666667a102.4 102.4 0 0 1-144.82773333 0l-119.46666667-119.46666667a102.4 102.4 0 0 1 0-144.82773333z" fill="#666666" p-id="2940"></path></svg>