<?xml version="1.0" standalone="no"?><!DOCTYPE svg PUBLIC "-//W3C//DTD SVG 1.1//EN" "http://www.w3.org/Graphics/SVG/1.1/DTD/svg11.dtd"><svg t="1634103750421" class="icon" viewBox="0 0 1024 1024" version="1.1" xmlns="http://www.w3.org/2000/svg" p-id="3490" xmlns:xlink="http://www.w3.org/1999/xlink" width="200" height="200"><defs><style type="text/css"></style></defs><path d="M396.48 208.96v291.52c0 20.48-16.64 36.48-36.48 36.48H68.48c-20.48 0-36.48-16.64-36.48-36.8v-291.2c0-20.48 16.64-36.48 36.48-36.48h291.52c19.84-0.32 35.84 16.32 36.48 36.48z m-36.48 400.32H68.48c-19.84 0-36.48 16-36.48 36.48v291.52c0 19.84 16 36.48 36.48 36.48h291.52c19.84 0 36.48-16 36.48-36.48v-291.52c-0.64-20.16-16.64-36.48-36.48-36.48z m436.48 0h-291.52c-19.84 0-36.48 16-36.48 36.48v291.52c0 19.84 16 36.48 36.48 36.48h291.52c19.84 0 36.48-16 36.48-36.48v-291.52c0-20.16-16-36.48-36.48-36.48z m-28.8-41.28l206.08-206.08c24.32-24.32 24.32-63.36 0-87.68l-206.08-206.08c-11.52-11.84-27.2-18.24-43.84-18.24-16.64 0-32 6.4-43.84 18.24l-206.08 206.08c-24.32 24.32-24.32 63.36 0 87.68l206.08 206.08c11.52 11.52 27.2 18.24 43.84 18.24a63.36 63.36 0 0 0 43.84-18.24zM731.52 104.32L937.6 310.4c4.16 4.16 4.16 10.88 0 15.04l-206.08 206.08c-2.56 2.56-5.76 3.2-7.68 3.2s-4.8-0.32-7.68-3.2l-206.08-206.08a10.624 10.624 0 0 1 0-15.04l206.08-206.08c2.56-2.56 5.76-3.2 7.36-3.2s5.44 0.64 8 3.2z" p-id="3491" data-spm-anchor-id="a313x.7781069.0.i9" class="selected" fill="#666666"></path></svg>