<?xml version="1.0" standalone="no"?><!DOCTYPE svg PUBLIC "-//W3C//DTD SVG 1.1//EN" "http://www.w3.org/Graphics/SVG/1.1/DTD/svg11.dtd"><svg t="1627435240519" class="icon" viewBox="0 0 1024 1024" version="1.1" xmlns="http://www.w3.org/2000/svg" p-id="6532" xmlns:xlink="http://www.w3.org/1999/xlink" width="128" height="128"><defs><style type="text/css">@font-face { font-family: feedback-iconfont; src: url("//at.alicdn.com/t/font_1031158_1uhr8ri0pk5.eot?#iefix") format("embedded-opentype"), url("//at.alicdn.com/t/font_1031158_1uhr8ri0pk5.woff2") format("woff2"), url("//at.alicdn.com/t/font_1031158_1uhr8ri0pk5.woff") format("woff"), url("//at.alicdn.com/t/font_1031158_1uhr8ri0pk5.ttf") format("truetype"), url("//at.alicdn.com/t/font_1031158_1uhr8ri0pk5.svg#iconfont") format("svg"); }
</style></defs><path d="M695.04 174.32H98.08c-18.32 0-33.16-14.85-33.16-33.15999999 0-18.32 14.85-33.16 33.16-33.16000001h596.96c18.32 0 33.16 14.85 33.16 33.16000001 0 18.31-14.84 33.16-33.16 33.15999999zM298.97 373.30000001H96.19c-17.27 0-31.27-14-31.27-31.27000001v-3.79c0-17.27 14-31.27 31.27-31.26999999h202.78c17.27 0 31.27 14 31.27 31.26999999v3.79c-0.01 17.28-14.01 31.27-31.27 31.27000001z m-68.23 198.99H98.08c-18.32 0-33.16-14.85-33.16-33.16000001 0-18.32 14.85-33.16 33.16-33.16h132.66c18.32 0 33.16 14.85 33.16 33.16 0.01 18.31-14.84 33.16-33.16 33.16000001z m0 198.99H98.08c-18.32 0-33.16-14.85-33.16-33.16000001 0-18.32 14.85-33.16 33.16-33.16h132.66c18.32 0 33.16 14.85 33.16 33.16 0.01 18.31-14.84 33.16-33.16 33.16000001z m497.46-99.50000001H595.55c-18.32 0-33.16-14.85-33.16-33.15999999 0-18.32 14.85-33.16 33.16-33.16000001H728.2c18.32 0 33.16 14.85 33.16 33.16000001 0.01 18.31-14.84 33.16-33.16 33.15999999z" fill="#707070" p-id="6533"></path><path d="M562.38 638.62000001V505.96000001c0-18.32 14.85-33.16 33.16-33.16000001 18.32 0 33.16 14.85 33.16 33.16000001v132.66c0 18.32-14.85 33.16-33.16 33.15999999-18.31 0-33.16-14.85-33.16-33.15999999z" fill="#707070" p-id="6534"></path><path d="M960.35 605.45c0 183.16-148.48 331.64-331.64 331.64000001S297.07 788.62000001 297.07 605.45s148.48-331.64 331.64-331.64 331.64 148.48 331.64 331.64zM628.71 340.14c-146.53 0-265.31 118.79-265.31 265.31s118.79 265.31 265.31 265.31000001 265.31-118.79 265.31-265.31000001-118.78-265.31-265.31-265.31z" fill="#707070" p-id="6535"></path></svg>