<?xml version="1.0" standalone="no"?><!DOCTYPE svg PUBLIC "-//W3C//DTD SVG 1.1//EN" "http://www.w3.org/Graphics/SVG/1.1/DTD/svg11.dtd"><svg t="1627435183839" class="icon" viewBox="0 0 1024 1024" version="1.1" xmlns="http://www.w3.org/2000/svg" p-id="5677" xmlns:xlink="http://www.w3.org/1999/xlink" width="128" height="128"><defs><style type="text/css">@font-face { font-family: feedback-iconfont; src: url("//at.alicdn.com/t/font_1031158_1uhr8ri0pk5.eot?#iefix") format("embedded-opentype"), url("//at.alicdn.com/t/font_1031158_1uhr8ri0pk5.woff2") format("woff2"), url("//at.alicdn.com/t/font_1031158_1uhr8ri0pk5.woff") format("woff"), url("//at.alicdn.com/t/font_1031158_1uhr8ri0pk5.ttf") format("truetype"), url("//at.alicdn.com/t/font_1031158_1uhr8ri0pk5.svg#iconfont") format("svg"); }
</style></defs><path d="M439.8139569 129.19529307c0-40.86857324-34.16157045-73.99839668-75.03014368-73.99839668H62.58162094v281.37436603c0 40.86857324 33.12982345 73.99839668 73.99839668 73.99839669h303.23264475V129.19529307zM439.8139569 880.03137422c0 40.86857324-34.16157045 73.99839668-75.03014368 73.99839669H62.58162094V672.65540489c0-40.86857324 33.12982345-73.99839668 73.99839668-73.9983967h303.23264475v281.37436603zM584.1860431 129.19529307c0-40.86857324 34.16157045-73.99839668 75.03014368-73.99839668h302.20219228v281.37436603c0 40.86857324-33.12982345 73.99839668-73.99839668 73.99839669h-303.23264475V129.19529307zM584.1860431 880.03137422c0 40.86857324 34.16157045 73.99839668 75.03014368 73.99839669h302.20219228V672.65540489c0-40.86857324-33.12982345-73.99839668-73.99839668-73.9983967h-303.23264475v281.37436603z" fill="#707070" p-id="5678"></path></svg>