<?xml version="1.0" standalone="no"?><!DOCTYPE svg PUBLIC "-//W3C//DTD SVG 1.1//EN" "http://www.w3.org/Graphics/SVG/1.1/DTD/svg11.dtd"><svg t="1655774961164" class="icon" viewBox="0 0 1024 1024" version="1.1" xmlns="http://www.w3.org/2000/svg" p-id="3665" xmlns:xlink="http://www.w3.org/1999/xlink" width="200" height="200"><defs><style type="text/css">@font-face { font-family: feedback-iconfont; src: url("//at.alicdn.com/t/font_1031158_u69w8yhxdu.woff2?t=1630033759944") format("woff2"), url("//at.alicdn.com/t/font_1031158_u69w8yhxdu.woff?t=1630033759944") format("woff"), url("//at.alicdn.com/t/font_1031158_u69w8yhxdu.ttf?t=1630033759944") format("truetype"); }
</style></defs><path d="M865.28 998.4H158.72c-40.96 0-76.8-35.84-76.8-76.8V455.68h865.28V921.6c0 40.96-35.84 76.8-81.92 76.8zM133.12 512v409.6c0 15.36 10.24 25.6 25.6 25.6H870.4c15.36 0 25.6-10.24 25.6-25.6v-409.6H133.12z" p-id="3666" fill="#666666"></path><path d="M921.6 512H102.4C56.32 512 20.48 476.16 20.48 430.08V322.56c0-46.08 35.84-81.92 81.92-81.92h819.2c46.08 0 81.92 35.84 81.92 81.92v107.52c-5.12 46.08-40.96 81.92-81.92 81.92zM102.4 296.96c-10.24 0-25.6 10.24-25.6 25.6v107.52c0 15.36 10.24 25.6 25.6 25.6h819.2c15.36 0 25.6-10.24 25.6-25.6V322.56c0-15.36-10.24-25.6-25.6-25.6H102.4z" p-id="3667" fill="#666666"></path><path d="M486.4 266.24h51.2V972.8h-51.2z" p-id="3668" fill="#666666"></path><path d="M532.48 296.96H240.64L204.8 235.52c-25.6-40.96-25.6-87.04 0-128C225.28 71.68 266.24 46.08 312.32 46.08c46.08 0 87.04 25.6 112.64 61.44l107.52 189.44zM271.36 240.64h168.96l-61.44-102.4c-15.36-25.6-40.96-35.84-66.56-35.84s-51.2 15.36-61.44 35.84c-15.36 20.48-15.36 46.08 0 66.56l20.48 35.84z" p-id="3669" fill="#666666"></path><path d="M783.36 296.96H491.52l107.52-179.2C624.64 76.8 665.6 51.2 711.68 51.2h5.12c40.96 0 81.92 20.48 102.4 61.44 20.48 35.84 20.48 87.04 0 122.88l-35.84 61.44z m-194.56-56.32h168.96l15.36-35.84c10.24-20.48 10.24-51.2 0-71.68-10.24-20.48-30.72-30.72-56.32-30.72h-5.12c-25.6 0-51.2 15.36-66.56 40.96l-56.32 97.28z" p-id="3670" fill="#666666"></path></svg>
