<?xml version="1.0" standalone="no"?><!DOCTYPE svg PUBLIC "-//W3C//DTD SVG 1.1//EN" "http://www.w3.org/Graphics/SVG/1.1/DTD/svg11.dtd"><svg t="1627435176786" class="icon" viewBox="0 0 1024 1024" version="1.1" xmlns="http://www.w3.org/2000/svg" p-id="5535" xmlns:xlink="http://www.w3.org/1999/xlink" width="128" height="128"><defs><style type="text/css">@font-face { font-family: feedback-iconfont; src: url("//at.alicdn.com/t/font_1031158_1uhr8ri0pk5.eot?#iefix") format("embedded-opentype"), url("//at.alicdn.com/t/font_1031158_1uhr8ri0pk5.woff2") format("woff2"), url("//at.alicdn.com/t/font_1031158_1uhr8ri0pk5.woff") format("woff"), url("//at.alicdn.com/t/font_1031158_1uhr8ri0pk5.ttf") format("truetype"), url("//at.alicdn.com/t/font_1031158_1uhr8ri0pk5.svg#iconfont") format("svg"); }
</style></defs><path d="M795.14624 644.87196445c-5.05173333-5.08017778-12.29482667-7.99857778-19.84398222-7.99857778-7.55029333 0-14.79111111 2.91726222-19.87128889 7.99857778-10.91811555 10.91811555-10.91811555 28.74140445 0.05575111 39.7152711 59.10983111 59.13827555 122.73891555 167.39441778 122.73891555 265.37870223 0 15.49312 12.60316445 28.06784 28.09628445 28.06784 15.49312 0 28.06784-12.57472 28.06784-28.06897778-0.00113778-114.62656-69.91758222-235.82264889-139.24352-305.09283555zM512 45.96622222c-148.36622222 0-269.05486222 120.69091555-269.05486222 269.05486223 0 97.61905778 52.45724445 186.90275555 137.39008 234.58929777-56.52821333 19.67559111-108.78976 52.51299555-151.50876445 95.26044445-69.29976889 69.27132445-139.21507555 190.49585778-139.21507555 305.09511111 0 15.49312 12.57472 28.06784 28.06897777 28.06784 15.49198222 0 28.06670222-12.57472 28.06670223-28.06897778 0-97.98314667 63.65752889-206.24042667 122.76736-265.37756445 62.39459555-62.45034667 145.3056-98.20842667 233.40942222-100.73429333 3.19943111 0.13994667 6.65144889 0.22528 10.07729778 0.22528 148.33777778 0 269.02755555-120.69091555 269.02755555-269.056S660.33777778 45.96622222 512 45.96622222z m0 56.19029333c117.37884445 0 212.89187555 95.48572445 212.89187555 212.8645689 0 115.44234667-93.63228445 210.95537778-208.73784888 212.92032-1.01034667-0.22414222-2.58275555-0.39253333-4.21091556-0.39253334-3.34051555 0-6.70833778 0.05688889-9.82471111 0.16952889-113.84149333-5.22126222-203.01141333-98.62940445-203.01141333-212.69617778 0-117.37884445 95.51416889-212.86570667 212.89301333-212.86570667zM352.38001778 527.68995555c10.91811555 7.83132445 22.36871111 15.04483555 34.63509333 21.19111112-0.36408889 0.11150222-0.70087111 0.28103111-1.06609778 0.39253333-11.87271111-6.37155555-22.98766222-13.66926222-33.56899555-21.58364445z" fill="#707070" p-id="5536"></path></svg>