<?xml version="1.0" standalone="no"?><!DOCTYPE svg PUBLIC "-//W3C//DTD SVG 1.1//EN" "http://www.w3.org/Graphics/SVG/1.1/DTD/svg11.dtd"><svg t="1644913759464" class="icon" viewBox="0 0 1024 1024" version="1.1" xmlns="http://www.w3.org/2000/svg" p-id="2355" xmlns:xlink="http://www.w3.org/1999/xlink" width="200" height="200"><defs><style type="text/css"></style></defs><path d="M444.86745928 374.72591533q0.90263584-121.16939414-1e-8-242.50226484C444.53962724 86.61110469 421.32334502 62.98437412 376.77691075 62.5739249Q254.21357305 61.50781338 131.65023536 62.49218662C86.61161445 62.90263584 62.98488388 86.61110469 62.57443467 131.24015615Q62.00050977 253.71999776 62.65705185 376.28333545c0.40956943 44.79252715 23.9545626 67.76359541 69.32101553 68.50187578 41.0185081 0.65566318 82.52920372 0 123.79380469 0h118.70845928c46.26820898-0.65742099 70.0592959-23.95544151 70.38712792-70.0601748z m-61.28166885-29.86168535c0 27.97467539-11.07420644 38.47495606-39.54194824 38.6393124q-90.24071836 0.49218662-180.48143584 0c-29.61559161 0-39.62368565-10.74725333-39.9523957-41.01850899s0-60.05120185 0-90.24071747V162.00359756c0-27.07291846 10.74725333-38.39409756 36.91753593-38.55757324q92.78339063-0.73828037 185.40330557 0c26.41637637 0 37.16275078 11.32029932 37.32710625 38.1471249q0.98437412 91.88075567 0.32783203 183.27108076z m251.27989101-84.74404394l5.00448604-5.16884239h228.80188916v337.50049658c0 32.81480683 9.5976457 47.08998545 31.00953516 46.67865821s29.86168536-14.1916834 29.94430253-47.82650801V232.96465039c0-32.81480683-8.20458018-41.0185081-41.0185081-41.0185081H646.59642998l-5.41405722-9.35243086c10.08983232-8.20370127 21.00056221-15.17693555 30.18951737-24.11891807 14.27342168-13.94646855 21.24753487-29.77906817 5.00360714-47.25346201-13.86385137-15.01258096-30.51734854-13.86385137-49.22220938 4.42968222q-41.0185081 39.54194737-80.23174541 80.23262344c-19.44314209 19.93532871-19.85359043 39.3775919-0.90263584 58.82073486 26.99030127 27.72858164 54.71888291 54.71888291 82.03701621 82.03701622 14.3569169 14.1925623 30.76432031 21.73972148 46.6786582 3.77401904 14.60301065-16.40740342 9.92723467-33.6357044-4.5114205-48.07435957-10.91072988-11.97684229-23.3806377-21.90319805-35.35835802-32.32261934z m-66.36789404 447.67654365q-56.68763115-0.82089756-113.5396169 0c-43.807275 0.65566318-69.23927724 24.61110469-70.88019345 68.09054765-1.47656075 38.7210498-1.39394356 77.5247168 0 116.16490723 1.55917793 44.70990996 27.31901221 68.41837969 72.43937139 69.15666006h110.99606484c45.0386209-0.82001865 70.7167169-24.61110469 72.19327764-69.48537012 1.39394356-38.63931153 1.47656075-77.44297852 0-116.08229092-1.72265449-43.56206016-27.31901221-67.18879073-71.20890352-67.8444539z m9.26981367 158.16778945c-1.88613106 21.32927315-13.94558964 34.53746045-37.32710625 33.71656289h-28.21988935c-63.41477168 0-67.18879073-3.60966357-67.10705333-66.36789317a235.9386 235.9386 0 0 1 1.31308507-32.9791623c2.70702862-19.3605249 13.78211309-30.92779687 34.2913667-31.09215234s41.0185081 0 61.69211807 0a32.81480683 32.81480683 0 0 1 35.19400253 32.81480683 379.75035146 379.75035146 0 0 1 0.16347656 63.90695918zM315.41350362 769.15925791c-1.88700997-35.93228378-24.61110469-59.55901435-60.62600479-60.70774395a1945.13070674 1945.13070674 0 0 0-131.25922646 0C87.5151292 709.68285987 64.37970635 733.06349756 63.23097676 769.57146406c-1.230467 42.90551807-1.230467 85.97451182-0.24609288 129.20786104 1.14872959 37.5732 24.61110469 61.11819229 61.93821094 62.26692187 42.90551807 1.230467 85.97451182 1.31220528 128.88002989 0 37.24536797-1.230467 59.88772529-24.61110469 61.77385547-62.59475303 0.98437412-20.5909919 0-41.0185081 0-61.85559375 0.08261719-22.72497451 0.73828037-45.12035918-0.16347656-67.43488447z m-60.95383682 93.35819443c-0.65654209 26.2520209-11.40291651 36.50620869-38.06538662 37.32710625h-59.06682774c-21.82145977-0.82089756-32.81480683-12.88035615-33.38961064-34.20962929s0-41.0185081 0-61.6095 11.56815088-33.6357044 32.81568573-34.53834024 42.82290088-0.73828037 64.23479034 0 32.81480683 12.46990781 33.38961065 34.12789102c0.40956943 19.52488037 0.65566318 39.21323643 0.08173828 58.90247226z m706.34011816-92.45555947c-1.06699131-36.26099385-23.95544151-60.29729473-59.72336983-61.52776172a1921.94870185 1921.94870185 0 0 0-134.04887226 0 58.41028565 58.41028565 0 0 0-58.49202305 60.05120098c-1.39482246 43.807275-1.47656075 87.69716631 0 131.25922646 1.230467 36.01402207 24.61110469 58.65637852 60.87121963 60.54338848 21.41188945 1.14872959 42.98725635 0 64.39914581 0 21.41188945 0 42.98725635 0.82001865 64.39914579 0 37.49146172-1.80527167 61.28166885-24.61110469 62.43039844-61.85647266 1.47656075-42.41245166 1.39482246-85.48232519 0.16435547-128.46958154z m-60.95383769 95.90086846c-0.98437412 21.33015205-12.05945859 33.38961065-33.79918008 33.80005898s-42.82377979 0.5739249-64.15305294 0a30.43648916 30.43648916 0 0 1-32.81480595-32.40523653c-0.82089756-21.32927315-0.57480381-42.7411626 0-64.15305204s12.46902891-32.81480683 33.79918008-33.79918096c17.96570244-0.5739249 35.93228378 0 53.89798623 0 32.81480683 0 42.57768604 9.7628792 42.98725547 42.90551807v25.67721709c0.16435547 9.10633711 0.49218662 18.54050625 0.08261719 27.97555429z" fill="#666666" p-id="2356"></path></svg>