<?xml version="1.0" standalone="no"?><!DOCTYPE svg PUBLIC "-//W3C//DTD SVG 1.1//EN" "http://www.w3.org/Graphics/SVG/1.1/DTD/svg11.dtd"><svg t="1644913776054" class="icon" viewBox="0 0 1024 1024" version="1.1" xmlns="http://www.w3.org/2000/svg" p-id="2646" xmlns:xlink="http://www.w3.org/1999/xlink" width="200" height="200"><defs><style type="text/css"></style></defs><path d="M912.016 206.48a17.024 17.024 0 0 0-18.048-16.704l-17.888 1.264c-2.08 0-192 10.816-332.56-131.456l-20.032-20.016a16.688 16.688 0 0 0-23.84 0l-13.76 13.76C345.296 201.872 150 191.056 147.936 191.056l-17.968-1.28a16.752 16.752 0 0 0-17.952 16.704v450.272l1.264 4.144c2.064 7.536 55.888 190.272 384.304 326.4a47.504 47.504 0 0 0 28.8 0l2.544-1.264c325.888-136 379.696-317.536 381.824-325.472l1.2-4.208V206.48z m-66.384 440.256c-8.752 23.76-69.696 161.44-333.424 274.128-147.696-63.024-230.4-134.4-274.144-183.6a311.296 311.296 0 0 1-58.848-90.528V257.36a528.784 528.784 0 0 0 333.024-136 530.576 530.576 0 0 0 333.424 136z" fill="#666666" p-id="2647"></path><path d="M480.08 590.368L382 473.936a16.56 16.56 0 0 0-23.376-2.064l-25.44 21.696a16.56 16.56 0 0 0-2.128 23.376l135.2 160.624a16.448 16.448 0 0 0 25.04 0.464L726.688 415.12a16.48 16.48 0 0 0-1.328-23.36l-24.976-22.096a16.496 16.496 0 0 0-23.376 1.264z" fill="#666666" p-id="2648"></path></svg>