<?xml version="1.0" standalone="no"?><!DOCTYPE svg PUBLIC "-//W3C//DTD SVG 1.1//EN" "http://www.w3.org/Graphics/SVG/1.1/DTD/svg11.dtd"><svg t="1671763677829" class="icon" viewBox="0 0 1024 1024" version="1.1" xmlns="http://www.w3.org/2000/svg" p-id="12688" xmlns:xlink="http://www.w3.org/1999/xlink" width="200" height="200"><path d="M0 0m182.570457 0l658.859086 0q182.570457 0 182.570457 182.570457l0 658.859086q0 182.570457-182.570457 182.570457l-658.859086 0q-182.570457 0-182.570457-182.570457l0-658.859086q0-182.570457 182.570457-182.570457Z" fill="#6BB4AB" p-id="12689" data-spm-anchor-id="a313x.7781069.0.i2" class="selected"></path><path d="M222.014157 245.749614m50.608236 0l420.249583 0q50.608236 0 50.608236 50.608237l0 399.435079q0 50.608236-50.608236 50.608236l-420.249583 0q-50.608236 0-50.608236-50.608236l0-399.435079q0-50.608236 50.608236-50.608237Z" fill="#FFFFFF" opacity=".56" p-id="12690"></path><path d="M297.87242 327.666153m31.200118 0l307.349293 0q31.200118 0 31.200118 31.200118l0 0.021637q0 31.200118-31.200118 31.200118l-307.349293 0q-31.200118 0-31.200118-31.200118l0-0.021637q0-31.200118 31.200118-31.200118Z" fill="#FFFFFF" opacity=".56" p-id="12691"></path><path d="M302.632493 549.399032m31.200118 0l128.759989 0q31.200118 0 31.200119 31.200119l0 0.021636q0 31.200118-31.200119 31.200119l-128.759989 0q-31.200118 0-31.200118-31.200119l0-0.021636q0-31.200118 31.200118-31.200119Z" fill="#FFFFFF" opacity=".56" p-id="12692"></path><path d="M297.87242 439.506244m31.200118 0l307.349293 0q31.200118 0 31.200118 31.200118l0 0.021637q0 31.200118-31.200118 31.200118l-307.349293 0q-31.200118 0-31.200118-31.200118l0-0.021637q0-31.200118 31.200118-31.200118Z" fill="#FFFFFF" opacity=".56" p-id="12693"></path><path d="M678.137385 530.531832a123.870095 123.870095 0 1 0 123.848458 123.870095 123.870095 123.870095 0 0 0-123.848458-123.870095zM744.302407 683.568196h-62.31369a22.047795 22.047795 0 0 1-4.175883 0.411097 21.463604 21.463604 0 0 1-21.463604-21.463604v-66.316479a21.463604 21.463604 0 0 1 42.905572 0v44.463414H744.302407a21.463604 21.463604 0 1 1 0 42.905572z" fill="#FFFFFF" opacity=".56" p-id="12694"></path></svg>