<?xml version="1.0" standalone="no"?><!DOCTYPE svg PUBLIC "-//W3C//DTD SVG 1.1//EN" "http://www.w3.org/Graphics/SVG/1.1/DTD/svg11.dtd"><svg t="1644913725758" class="icon" viewBox="0 0 1024 1024" version="1.1" xmlns="http://www.w3.org/2000/svg" p-id="1775" xmlns:xlink="http://www.w3.org/1999/xlink" width="200" height="200"><defs><style type="text/css"></style></defs><path d="M947.12505837 328.17152a475.48916622 475.48916622 0 0 0-9.23572148-20.46543645c-0.02912711-0.05461333-0.04854518-0.11165392-0.0776723-0.16748088-23.05410845-48.00633363-53.89243733-91.47733333-91.88389926-129.46879526-43.36177303-43.36298667-93.86211555-77.4101523-150.10049896-101.19607941C637.59003497 52.24068741 575.74225541 39.75243852 512 39.75243852s-125.59003497 12.48946252-183.82848 37.12128948c-56.23595615 23.78714075-106.73872592 57.83430637-150.10049897 101.19607941-43.36298667 43.36298667-77.4101523 93.86454282-101.1960794 150.10171259C52.24068741 386.40996503 39.75243852 448.25774459 39.75243852 512s12.48946252 125.59003497 37.12250311 183.82848a475.48916622 475.48916622 0 0 0 9.23572148 20.46543645c0.02912711 0.05461333 0.04854518 0.11165392 0.0776723 0.16748088 23.05410845 48.00633363 53.89243733 91.47733333 91.88389926 129.46879526 43.36177303 43.36298667 93.86211555 77.4101523 150.10049896 101.19607941C386.40996503 971.75931259 448.25774459 984.24756148 512 984.24756148s125.59003497-12.48946252 183.82848-37.12128948c56.23595615-23.78714075 106.73872592-57.83430637 150.10049897-101.19607941 43.36298667-43.36298667 77.4101523-93.86454282 101.1960794-150.10171259C971.75931259 637.59003497 984.24756148 575.74225541 984.24756148 512s-12.48946252-125.59003497-37.12250311-183.82848zM89.46270815 512c0-42.7501037 6.31815585-84.52566282 18.4896474-124.27567408h282.40311942c-0.46846103 0.40413867-0.9381357 0.80585008-1.38232415 1.25003853L116.5436397 661.4014483c-17.77481955-47.11310222-27.08093155-97.53941333-27.08093155-149.40266193z m298.26161777 0c0-68.52516978 55.7505043-124.27567408 124.27567408-124.27567408S636.27567408 443.47483022 636.27567408 512 580.52516978 636.27567408 512 636.27567408 387.72432592 580.52516978 387.72432592 512z m247.30130963 123.02563555l272.43072475-272.42829747c17.77481955 47.11310222 27.08093155 97.53941333 27.08093155 149.40266192 0 42.7501037-6.31815585 84.52566282-18.4896474 124.27567408H633.64452503c0.46846103-0.40413867 0.9381357-0.80585008 1.38232415-1.25003853z m175.75420208-421.80425955c30.22908682 30.22908682 55.30146133 64.2374163 74.80206222 100.94971259l-199.61780148 199.61780149c0.00606815-0.59589215 0.02184533-1.18935703 0.02184533-1.78889008V126.7259923c45.88369541 20.74457125 88.12043378 49.82313718 124.79389393 86.4953837zM636.27567408 107.95235555v282.40311942c-0.40413867-0.46846103-0.80463645-0.9381357-1.25003853-1.38232415L362.5985517 116.5436397c47.11310222-17.77481955 97.53941333-27.08093155 149.40266193-27.08093155 42.7501037 0 84.52566282 6.31815585 124.27567407 18.4896474z m-423.05551171 105.26902045c30.22908682-30.22908682 64.2374163-55.30146133 100.9497126-74.80206222l199.62022873 199.61780147c-0.59710578-0.00728178-1.19057067-0.02305897-1.7901037-0.02305895H126.7259923c20.74457125-45.88369541 49.82192355-88.12043378 86.49417007-124.7926803z m0 597.557248c-30.22908682-30.22908682-55.30146133-64.2374163-74.80206222-100.94971259l199.61780148-199.61780149c-0.00606815 0.59589215-0.02184533 1.18935703-0.02184533 1.78889008v385.2740077c-45.88369541-20.74457125-88.12043378-49.82313718-124.79389393-86.4953837zM387.72432592 916.04764445V633.64452503c0.40413867 0.46846103 0.80463645 0.9381357 1.25003853 1.38232415l272.42829747 272.42951112c-47.11310222 17.77481955-97.53941333 27.08093155-149.40266192 27.08093155-42.7501037 0-84.52566282-6.31815585-124.27567408-18.4896474z m423.05551171-105.26902045c-30.22908682 30.22908682-64.2374163 55.30146133-100.9497126 74.80206222L510.20868267 685.96167111c0.59710578 0.00728178 1.19057067 0.02305897 1.7901037 0.02305897h385.27400771c-20.74457125 45.88369541-49.82192355 88.12043378-86.49417008 124.79268029z" fill="#666666" p-id="1776"></path></svg>