<?xml version="1.0" standalone="no"?><!DOCTYPE svg PUBLIC "-//W3C//DTD SVG 1.1//EN" "http://www.w3.org/Graphics/SVG/1.1/DTD/svg11.dtd"><svg t="1631155481981" class="icon" viewBox="0 0 1024 1024" version="1.1" xmlns="http://www.w3.org/2000/svg" p-id="22531" xmlns:xlink="http://www.w3.org/1999/xlink" width="200" height="200"><defs><style type="text/css"></style></defs><path d="M99.7 465.3c-30 33.7-59.8 86-63.6 138.3-14.9 89.8 56.1 175.8 153.4 228.2 7.5 30-26.1 82.2-26.1 82.2-14.9 7.5 7.5 7.5 7.5 7.5 52.4 0 112.2-44.9 142.1-67.3 78.5 7.5 149.7-11.2 209.5-44.9-228.3-11.2-422.8-164.5-422.8-344z" p-id="22532" data-spm-anchor-id="a313x.7781069.0.i42" class="selected" fill="#6bb4ab"></path><path d="M989.9 450.2c0-190.7-190.7-347.8-433.8-347.8S122.2 255.8 122.2 450.2c0 183.3 190.7 340.4 426.3 340.4 37.4 37.4 145.9 115.9 228.2 115.9 0 0 37.4 7.5 22.4-14.9 0 0-67.3-82.2-52.4-130.9C892.6 700.9 989.9 585 989.9 450.2z m-590 120c-12.8 0-24-1.3-33.5-4s-17.6-6.2-24.1-10.5c-6.6-4.4-11.5-9.3-14.8-14.8-3.3-5.5-4.9-11-4.9-16.6 0-6.6 3.4-11.9 10.3-15.9 6.9-4.1 14.5-7.8 22.7-11.3 8.3-3.4 15.9-7 22.7-10.8 6.9-3.8 10.3-8.6 10.3-14.5s-1.9-11.4-5.6-16.4c-3.8-5-7.9-10.7-12.4-17.1-4.5-6.4-8.7-13.9-12.4-22.5-3.8-8.6-5.6-19.6-5.6-33.1 0-9.7 1-19.1 3-28.1s5.1-17 9.1-23.9c4.1-6.9 9.2-12.3 15.5-16.4 6.3-4.1 13.6-6.1 22-6.1 11.3 0 20.6 1.9 28.1 5.6-1.9 11.3-2.8 23-2.8 35.2 0 19.7 1.6 36.4 4.9 50.2 3.3 13.8 7.4 25.6 12.4 35.6-4.7 6.3-9.1 12.1-13.1 17.6-4.1 5.5-6.1 12-6.1 19.5 0 4.1 2.2 7.6 6.6 10.5 4.4 3 9.6 5.8 15.7 8.4 6.1 2.7 12.6 5.4 19.5 8.2 6.9 2.8 13 5.8 18.3 8.9 0.3 1.6 0.5 4.1 0.5 7.5 0 5.9-2.6 10.8-7.7 14.5s-11.6 7.3-19.5 10.8c-7.8 3.4-16.3 7.3-25.3 11.7s-17.3 10.3-24.8 17.8h-9zM692 630.9c-8.8 4.8-20.3 9.3-34.7 13.4-14.4 4.1-30.9 7.3-49.7 9.6-18.8 2.3-38 3.5-57.7 3.5-22.5 0-42.4-1.2-59.8-3.5s-31.9-5.5-43.6-9.4c-11.7-3.9-20.6-8.4-26.7-13.4s-9.1-10-9.1-15c0-7.8 2.9-14.6 8.7-20.4 5.8-5.8 13-11 21.8-15.7 8.8-4.7 18.2-9 28.4-12.9 10.2-3.9 19.6-8 28.4-12.4 8.8-4.4 16-9.1 21.8-14.3 5.8-5.2 8.7-11.3 8.7-18.5S527 508 524 501.7c-3-6.3-6.7-12.6-11.3-19-4.5-6.4-9.5-13.4-14.8-20.9-5.3-7.5-10.2-15.9-14.8-25.3s-8.3-20.2-11.3-32.4-4.5-26.3-4.5-42.2c0-34.7 6.5-62.3 19.5-82.8s33.1-30.7 60.2-30.7c22.8 0 40.8 3.4 53.9 10.3 13.1 6.9 23.1 15.7 29.8 26.5 6.7 10.8 10.9 22.7 12.7 35.6 1.7 13 2.6 25.7 2.6 38.2 0 16.9-1.5 31.4-4.5 43.6-3 12.2-6.6 22.8-11 31.9-4.4 9.1-9.1 17.1-14.1 24.1s-9.7 13.8-14.1 20.2c-4.4 6.4-8 13-11 19.7-3 6.7-4.5 14.3-4.5 22.7 0 6.6 2.9 12.3 8.7 17.3 5.8 5 13 9.8 21.8 14.3s18.3 8.8 28.6 12.9 19.8 8.5 28.6 13.4c8.8 4.8 16 10.2 21.8 15.9s8.7 12.6 8.7 20.4c0.1 5.6-4.2 10.7-13 15.5z m46.7-66.8c-10.2 1.9-20.6 3-31.2 3.3-8.8-5.9-18.1-10.5-28.1-13.8-10-3.3-19.5-6.3-28.4-8.9-8.9-2.7-16.6-5.6-23-8.9-6.4-3.3-10.2-8-11.5-14.3 1.3-5.9 5.3-10.8 12.2-14.5 6.9-3.8 14.3-7.3 22.3-10.5 8-3.3 15.2-6.8 21.6-10.5 6.4-3.8 9.6-8.4 9.6-14.1 0-6.6-2.5-12.6-7.5-18.1-5-5.5-10.2-11.8-15.5-19 5-10.9 9.1-23.9 12.4-38.9 3.3-15 4.9-32.7 4.9-53 0-4.4-0.2-8.8-0.7-13.1-0.5-4.4-1-8.8-1.6-13.1 8.1-5.6 15.5-8.4 22-8.4 14.7 0 26.4 2.4 35.2 7.3 8.8 4.8 15.4 10.9 19.9 18.1s7.5 14.9 8.9 23.2c1.4 8.3 2.1 15.9 2.1 22.7 0 14.1-2.3 25.4-6.8 34-4.5 8.6-9.5 16-15 22.3s-10.5 12-15 17.3c-4.5 5.3-6.8 11.6-6.8 18.8 0 3.4 1.8 6.6 5.4 9.4 3.6 2.8 8 5.5 13.4 8 5.3 2.5 11.2 4.9 17.6 7.3 6.4 2.3 12.3 4.8 17.6 7.5 5.3 2.7 9.8 5.6 13.4 8.9 3.6 3.3 5.4 7.1 5.4 11.5 0 6.9-2.3 13-7 18.3-4.7 5.3-10.9 9.8-18.8 13.4-7.9 3.2-16.9 5.9-27 7.8z" p-id="22533" data-spm-anchor-id="a313x.7781069.0.i41" class="selected" fill="#6bb4ab"></path></svg>