<?xml version="1.0" standalone="no"?><!DOCTYPE svg PUBLIC "-//W3C//DTD SVG 1.1//EN" "http://www.w3.org/Graphics/SVG/1.1/DTD/svg11.dtd"><svg t="1627435150051" class="icon" viewBox="0 0 1024 1024" version="1.1" xmlns="http://www.w3.org/2000/svg" p-id="5106" xmlns:xlink="http://www.w3.org/1999/xlink" width="128" height="128"><defs><style type="text/css">@font-face { font-family: feedback-iconfont; src: url("//at.alicdn.com/t/font_1031158_1uhr8ri0pk5.eot?#iefix") format("embedded-opentype"), url("//at.alicdn.com/t/font_1031158_1uhr8ri0pk5.woff2") format("woff2"), url("//at.alicdn.com/t/font_1031158_1uhr8ri0pk5.woff") format("woff"), url("//at.alicdn.com/t/font_1031158_1uhr8ri0pk5.ttf") format("truetype"), url("//at.alicdn.com/t/font_1031158_1uhr8ri0pk5.svg#iconfont") format("svg"); }
</style></defs><path d="M97.74775309 470.57477531a41.42522469 41.42522469 0 0 1-41.4252247-41.4252247V97.74775309a41.42522469 41.42522469 0 0 1 41.4252247-41.4252247h331.40179752a41.42522469 41.42522469 0 0 1 41.4252247 41.4252247v331.40179752a41.42522469 41.42522469 0 0 1-41.4252247 41.4252247z m41.42522469-82.85044939h248.55134814V139.17297778H139.17297778z m455.67747161 82.85044939a41.42522469 41.42522469 0 0 1-41.4252247-41.4252247V97.74775309a41.42522469 41.42522469 0 0 1 41.4252247-41.4252247h331.40179752a41.42522469 41.42522469 0 0 1 41.4252247 41.4252247v331.40179752a41.42522469 41.42522469 0 0 1-41.4252247 41.4252247z m41.42522469-82.85044939h248.55134814V139.17297778H636.27567408zM97.74775309 967.67747161a41.42522469 41.42522469 0 0 1-41.4252247-41.4252247V594.85044939a41.42522469 41.42522469 0 0 1 41.4252247-41.4252247h331.40179752a41.42522469 41.42522469 0 0 1 41.4252247 41.4252247v331.40179752a41.42522469 41.42522469 0 0 1-41.4252247 41.4252247z m41.42522469-82.85044939h248.55134814V636.27567408H139.17297778z m745.65404444 0v-124.27567407a41.42522469 41.42522469 0 0 1 82.85044939 0v165.70089876a41.42522469 41.42522469 0 0 1-41.4252247 41.4252247H719.12612347a41.42522469 41.42522469 0 0 1 0-82.85044939zM594.85044939 636.27567408a41.42522469 41.42522469 0 0 1 0-82.85044939h289.97657283a41.42522469 41.42522469 0 0 1 0 82.85044939z" fill="#707070" p-id="5107"></path><path d="M719.12612347 801.97657283a41.42522469 41.42522469 0 0 1 0-82.85044936h82.85044936a41.42522469 41.42522469 0 0 1 0 82.85044936z m-165.70089878 41.4252247a41.42522469 41.42522469 0 0 1 82.85044939 0v82.85044938a41.42522469 41.42522469 0 0 1-82.85044939 0z" fill="#707070" p-id="5108"></path></svg>