<?xml version="1.0" standalone="no"?><!DOCTYPE svg PUBLIC "-//W3C//DTD SVG 1.1//EN" "http://www.w3.org/Graphics/SVG/1.1/DTD/svg11.dtd"><svg t="1644913767196" class="icon" viewBox="0 0 1024 1024" version="1.1" xmlns="http://www.w3.org/2000/svg" p-id="2500" xmlns:xlink="http://www.w3.org/1999/xlink" width="200" height="200"><defs><style type="text/css"></style></defs><path d="M895.53125 89.5625H128.46875c-42.65625 0-77.25 34.59375-77.25 77.25v690.28125c0 42.65625 34.59375 77.25 77.25 77.25h767.0625c42.65625 0 77.25-34.59375 77.25-77.25V166.8125c0-42.65625-34.59375-77.25-77.25-77.25z m0.375 729.1875c0 21.46875-17.4375 38.8125-38.8125 38.8125H166.8125c-21.46875 0-38.8125-17.4375-38.8125-38.8125V205.25c0-21.46875 17.4375-38.8125 38.8125-38.8125h690.28125c21.46875 0 38.8125 17.4375 38.8125 38.8125v613.5z" fill="#666666" p-id="2501"></path><path d="M807.5 382.15625c-0.09375-0.1875-0.1875-0.46875-0.1875-0.65625-1.5-6.9375-4.875-13.5-10.21875-18.84375-5.34375-5.34375-11.90625-8.71875-18.84375-10.21875-0.1875-0.09375-0.46875-0.1875-0.65625-0.1875-2.53125-0.46875-5.0625-0.75-7.59375-0.75h-153.75c-21.09375 0-38.4375 17.25-38.4375 38.4375 0 21.09375 17.25 38.4375 38.4375 38.4375h60.9375L525.59375 579.875 417.03125 471.3125c-14.90625-14.90625-39.375-14.90625-54.28125 0L226.90625 607.0625c-14.90625 14.90625-14.90625 39.375 0 54.28125 14.90625 14.90625 39.375 14.90625 54.28125 0l108.65625-108.65625L497.9375 660.875c0.1875 0.1875 0.28125 0.375 0.375 0.46875 7.5 7.5 17.34375 11.25 27.1875 11.15625 9.84375 0 19.6875-3.75 27.1875-11.15625 0.1875-0.1875 0.28125-0.375 0.375-0.46875L731.375 482.5625v60.9375c0 21.09375 17.25 38.4375 38.4375 38.4375 21.09375 0 38.4375-17.25 38.4375-38.4375V389.84375c0-2.53125-0.28125-5.15625-0.75-7.6875z" fill="#666666" p-id="2502"></path></svg>