<?xml version="1.0" standalone="no"?><!DOCTYPE svg PUBLIC "-//W3C//DTD SVG 1.1//EN" "http://www.w3.org/Graphics/SVG/1.1/DTD/svg11.dtd"><svg t="1678761178688" class="icon" viewBox="0 0 1024 1024" version="1.1" xmlns="http://www.w3.org/2000/svg" p-id="15373" xmlns:xlink="http://www.w3.org/1999/xlink" width="200" height="200"><path d="M562.907429 989.110857a33.426286 33.426286 0 0 1-33.426286-33.426286V384.146286c0-8.045714 2.925714-15.725714 8.045714-21.796572l253.586286-294.765714h-687.542857L336.310857 363.52c4.681143 5.851429 7.168 13.165714 7.168 20.626286v341.211428l100.644572 100.644572a33.133714 33.133714 0 0 1-0.365715 47.250285 33.206857 33.206857 0 0 1-46.884571 0l-110.445714-110.445714a33.206857 33.206857 0 0 1-9.728-23.625143V395.702857L8.484571 54.857143a33.426286 33.426286 0 0 1 26.331429-54.125714H863.817143a33.206857 33.206857 0 0 1 33.426286 33.499428c0 7.972571-2.925714 15.652571-8.045715 21.723429L596.260571 396.580571v559.104a33.426286 33.426286 0 0 1-33.426285 33.426286z"  p-id="15374"></path><path d="M725.065143 900.096a33.206857 33.206857 0 0 1-33.426286-33.426286c0-18.432 14.994286-33.353143 33.426286-33.353143h258.486857a33.426286 33.426286 0 0 1 0 66.779429H725.065143z m0-209.115429a33.426286 33.426286 0 0 1 0-66.779428h258.486857a33.426286 33.426286 0 0 1 0 66.779428H725.065143z m0-206.701714a33.426286 33.426286 0 0 1 0.073143-66.852571h258.413714a33.426286 33.426286 0 0 1 0 66.852571H725.065143z"  p-id="15375"></path></svg>
