<?xml version="1.0" standalone="no"?><!DOCTYPE svg PUBLIC "-//W3C//DTD SVG 1.1//EN" "http://www.w3.org/Graphics/SVG/1.1/DTD/svg11.dtd"><svg t="1627554699264" class="icon" viewBox="0 0 1024 1024" version="1.1" xmlns="http://www.w3.org/2000/svg" p-id="1954" xmlns:xlink="http://www.w3.org/1999/xlink" width="128" height="128"><defs><style type="text/css">@font-face { font-family: feedback-iconfont; src: url("//at.alicdn.com/t/font_1031158_1uhr8ri0pk5.eot?#iefix") format("embedded-opentype"), url("//at.alicdn.com/t/font_1031158_1uhr8ri0pk5.woff2") format("woff2"), url("//at.alicdn.com/t/font_1031158_1uhr8ri0pk5.woff") format("woff"), url("//at.alicdn.com/t/font_1031158_1uhr8ri0pk5.ttf") format("truetype"), url("//at.alicdn.com/t/font_1031158_1uhr8ri0pk5.svg#iconfont") format("svg"); }
</style></defs><path d="M74.41154318 280.1568258v463.6863484c0 36.86844997 15.32733314 72.21797505 42.66798142 98.3158666 27.3406483 26.09789155 64.48526643 40.73480429 103.14880948 40.73480427h583.54333184c38.66354305 0 75.80816118-14.63691274 103.14880948-40.73480427 27.3406483-26.09789155 42.66798143-61.44741663 42.66798142-98.3158666V280.1568258c0-36.86844997-15.32733314-72.21797505-42.66798142-98.3158666-27.3406483-26.09789155-64.48526643-40.73480429-103.14880948-40.73480427H220.22833408c-38.66354305 0-75.80816118 14.63691274-103.14880948 40.73480427-27.3406483 25.95980747-42.66798143 61.44741663-42.66798142 98.3158666z m583.40524773-46.39625165h145.81679092c12.84181965 0 25.26938706 4.83294288 34.38293648 13.53224007 9.11354943 8.69929718 14.22266047 20.43644418 14.2226605 32.72592751v463.68634837c0 12.28948332-5.10911105 24.02663031-14.2226605 32.72592752-9.11354943 8.69929718-21.54111683 13.53224006-34.38293648 13.53224007H657.81679091V233.76057415z m-486.19405379 46.39625165c0-12.28948332 5.10911105-24.02663031 14.22266048-32.72592749 9.11354943-8.69929718 21.54111683-13.53224006 34.38293648-13.53224007h340.3772629v556.47885168H220.22833408c-12.84181965 0-25.26938706-4.83294288-34.38293648-13.53224005-9.11354943-8.69929718-14.22266047-20.43644418-14.22266048-32.7259275v-463.96251657z" fill="#707070" p-id="1955"></path></svg>