<?xml version="1.0" standalone="no"?><!DOCTYPE svg PUBLIC "-//W3C//DTD SVG 1.1//EN" "http://www.w3.org/Graphics/SVG/1.1/DTD/svg11.dtd"><svg t="1644913743050" class="icon" viewBox="0 0 1024 1024" version="1.1" xmlns="http://www.w3.org/2000/svg" p-id="2065" xmlns:xlink="http://www.w3.org/1999/xlink" width="200" height="200"><defs><style type="text/css"></style></defs><path d="M650 956c-18 0-36-6-42-18-12-18-60-60-96-60-36 0-84 42-96 54-12 12-30 18-42 18-6 0-18 0-24-6l-114-66c-18-12-30-42-18-66 0 0 12-24 12-48 0-66-54-120-120-120H92c-18 0-36-18-42-42 0 0-12-54-12-90 0-42 12-90 12-90 6-30 24-48 42-48h6c66 0 120-54 120-120 0-24-6-48-6-48-12-24 0-54 18-66l120-66c6 0 12-6 24-6 18 0 36 6 42 18 12 18 60 54 96 54 36 0 84-36 96-54 12-12 30-18 42-18 6 0 18 0 24 6l120 66c18 12 30 42 18 66 0 0-12 24-12 48 0 66 54 120 120 120H932c18 0 36 18 42 42 0 0 12 54 12 90 0 42-12 90-12 90-6 24-24 42-42 42h-6c-66 0-120 54-120 120 0 24 12 48 12 48 12 24 0 54-18 66l-120 66c-12 18-18 18-30 18m0-54l114-60c0-6-12-36-12-66 0-96 72-174 168-180 0-6 6-48 6-78s-6-72-6-78c-96-6-168-84-168-180 0-30 12-60 12-66l-108-60h-6S632 152 608 170c-30 12-66 24-96 24s-60-12-96-36c-18-12-36-30-36-36h-6l-114 60c0 6 12 36 12 66 0 96-72 174-168 180 0 6-6 48-6 78s6 72 6 78c96 6 168 84 168 180 0 30-12 60-12 66l108 60h6s18-18 42-36C452 830 482 818 512 818s66 12 96 36c24 24 36 42 42 48M512 674c-90 0-162-72-162-162 0-90 72-162 162-162 90 0 162 72 162 162 0 90-72 162-162 162m0-270c-60 0-108 48-108 108S452 620 512 620 620 572 620 512c-6-60-54-108-108-108m0 0z" fill="#666666" p-id="2066"></path></svg>