<?xml version="1.0" standalone="no"?><!DOCTYPE svg PUBLIC "-//W3C//DTD SVG 1.1//EN" "http://www.w3.org/Graphics/SVG/1.1/DTD/svg11.dtd"><svg t="1644913735276" class="icon" viewBox="0 0 1024 1024" version="1.1" xmlns="http://www.w3.org/2000/svg" p-id="1920" xmlns:xlink="http://www.w3.org/1999/xlink" width="200" height="200"><defs><style type="text/css"></style></defs><path d="M931.28106667 78.46933333H95.79733333c-43.44213333 0-78.74133333 35.30026667-78.74133333 78.7424v531.8848c0 43.44213333 35.2992 78.79146667 78.74133333 78.79146667h99.49653334a36.49066667 36.49066667 0 0 0 15.09333333-3.32586667c1.0912-0.49706667 1.936-1.39093333 2.97813333-1.98613333a38.42773333 38.42773333 0 0 0 9.48266667-7.39733333c0.34773333-0.448 0.89386667-0.54613333 1.19146667-0.99306667l182.21013333-223.31946667 83.856 72.288a37.23733333 37.23733333 0 0 0 51.536-2.82986666l160.71146667-172.2304c18.76693333 11.1712 40.3648 17.97333333 63.6992 17.97333333a125.56053333 125.56053333 0 0 0 125.46133333-125.41226667 125.61066667 125.61066667 0 0 0-125.46133333-125.46133333A125.61066667 125.61066667 0 0 0 640.64 320.65386667c0 18.6176 4.32 36.144 11.61813333 51.98186666L511.6032 523.31946667l-85.74293333-73.87733334a37.23733333 37.23733333 0 0 0-53.17333334 4.66773334L177.568 693.3664h-81.77066667a4.26986667 4.26986667 0 0 1-4.26986666-4.32V157.21173333c0-2.3328 1.936-4.26986667 4.2688-4.26986666h835.4848c2.33386667 0 4.26986667 1.98613333 4.26986666 4.26986666v531.8848a4.26986667 4.26986667 0 0 1-4.26986666 4.32h-432.43733334a37.23733333 37.23733333 0 0 0-37.23733333 37.2352c0 0.79466667 0.39786667 1.44 0.448 2.23466667l-0.05013333 0.34773333v157.3856H277.4112a37.23733333 37.23733333 0 0 0 0 74.47253334h472.256a37.23733333 37.23733333 0 0 0 0-74.47253334H536.4768v-122.73066666h394.80533333c43.392 0 78.74133333-35.3504 78.74133334-78.79253334V157.21173333c0-43.44213333-35.34933333-78.74133333-78.74133334-78.74133333zM766.0512 269.66613333a51.03893333 51.03893333 0 1 1-50.93973333 50.9888c0-28.10133333 22.8384-50.9888 50.93973333-50.9888z" fill="#666666" p-id="1921"></path></svg>