<?xml version="1.0" standalone="no"?><!DOCTYPE svg PUBLIC "-//W3C//DTD SVG 1.1//EN" "http://www.w3.org/Graphics/SVG/1.1/DTD/svg11.dtd"><svg t="1644913751318" class="icon" viewBox="0 0 1160 1024" version="1.1" xmlns="http://www.w3.org/2000/svg" p-id="2210" xmlns:xlink="http://www.w3.org/1999/xlink" width="226.5625" height="200"><defs><style type="text/css"></style></defs><path d="M486.559375 222.14375c0 52.4803125 43.520625 95.04 96.6403125 95.04S679.84 274.625 679.84 222.14375c0-52.5440625-43.5196875-95.10375-96.6403125-95.10375S486.5603125 169.5996875 486.5603125 222.14375z m289.9209375 0c0 88.5759375-61.44 163.0078125-144.6403125 184.1278125V750.528125c0 26.240625-21.759375 47.551875-48.6403125 47.551875a47.551875 47.551875 0 0 1-48-47.551875V406.2715625c-83.8396875-21.12-145.2796875-95.551875-145.2796875-184.1278125C389.92 117.1203125 476.32 32 583.1996875 32S776.48125 117.1203125 776.48125 222.14375zM389.92 703.04c-74.88-0.06375-151.68 6.8484375-211.2 22.2084375-29.4403125 7.6153125-58.2403125 18.046875-80.64 33.0871875C75.6803125 773.2484375 52 798.2721875 52 835.071875c0 51.5203125 43.5196875 80.3203125 76.1596875 95.1684375 35.840625 16.6396875 83.2003125 28.03125 133.1203125 36.159375 99.84 16.5121875 223.9996875 21.825 321.9196875 21.7603125 98.5603125 0 222.080625-5.248125 322.56-21.759375 49.280625-8.128125 96.6403125-19.584375 133.1203125-36.1603125 31.9996875-14.911875 75.5203125-43.711875 75.5203125-95.2321875 0-52.1596875-44.8003125-79.425-73.6003125-92.2875-33.2803125-14.5284375-74.88-23.1684375-112.640625-28.6725a1237.37625 1237.37625 0 0 0-138.2390625-10.8796875l-9.6-0.1284375h-3.84v47.488125-47.488125a47.488125 47.488125 0 1 0 0 95.04h2.559375l8.960625 0.1284375a1007.8078125 1007.8078125 0 0 1 126.0796875 9.91875c35.2003125 5.056875 65.9203125 12.225 87.0403125 21.440625 5.76 2.368125 9.6 4.351875 12.159375 6.0159375-3.1996875 2.240625-8.319375 5.120625-15.36 8.57625-24.3196875 11.071875-61.44 20.8003125-108.159375 28.4803125-92.8003125 15.2315625-210.560625 20.4796875-306.560625 20.4796875s-213.759375-5.248125-306.5596875-20.4796875c-46.7203125-7.68-83.840625-17.4084375-107.52-28.4803125a116.0315625 116.0315625 0 0 1-15.36-8.191875c9.6-6.0159375 25.6003125-12.6721875 49.2796875-18.751875 49.280625-12.54375 117.12-19.13625 186.8803125-19.13625 26.88 0 48.6403125-21.2484375 48.6403125-47.551875a48 48 0 0 0-48.6403125-47.488125z" fill="#666666" p-id="2211"></path></svg>