<?xml version="1.0" standalone="no"?><!DOCTYPE svg PUBLIC "-//W3C//DTD SVG 1.1//EN" "http://www.w3.org/Graphics/SVG/1.1/DTD/svg11.dtd"><svg t="1627435233680" class="icon" viewBox="0 0 1228 1024" version="1.1" xmlns="http://www.w3.org/2000/svg" p-id="6390" xmlns:xlink="http://www.w3.org/1999/xlink" width="153.5" height="128"><defs><style type="text/css">@font-face { font-family: feedback-iconfont; src: url("//at.alicdn.com/t/font_1031158_1uhr8ri0pk5.eot?#iefix") format("embedded-opentype"), url("//at.alicdn.com/t/font_1031158_1uhr8ri0pk5.woff2") format("woff2"), url("//at.alicdn.com/t/font_1031158_1uhr8ri0pk5.woff") format("woff"), url("//at.alicdn.com/t/font_1031158_1uhr8ri0pk5.ttf") format("truetype"), url("//at.alicdn.com/t/font_1031158_1uhr8ri0pk5.svg#iconfont") format("svg"); }
</style></defs><path d="M1102.76266666 762.69546667a163.80053333 163.80053333 0 0 0-56.69973333 22.94933333 137.70026667 137.70026667 0 0 1-61.9648 37.44c3.14986667-21.14986667 13.6352-40.4544 29.4752-54.72a203.93173333 203.93173333 0 0 0 28.21546667-66.2848 60.74986667 60.74986667 0 1 1 60.97493333 60.61546667zM991.61493333 617.2096a203.53493333 203.53493333 0 0 0-66.0608-28.53013333 60.74986667 60.74986667 0 1 1 60.74986667-60.74986667 165.61706667 165.61706667 0 0 0 22.68053333 56.88 138.3104 138.3104 0 0 1 37.07946667 62.23573333 91.70986667 91.70986667 0 0 1-54.26986667-29.83466666h-0.224z m-100.08106667-214.10986667c-18.31466667-153.4048-177.1648-273.6-369.35893333-273.6-204.75093333 0-371.3408 136.26026667-371.3408 303.84a284.08533333 284.08533333 0 0 0 132.66026667 230.58026667 375.2128 375.2128 0 0 0 40.50026666 26.0096l-16.46933333 65.74506667c5.9392 2.7904 11.6992 5.76 17.77386667 8.32533333l83.16053333-41.57973333c12.14933333 3.14986667 24.93013333 5.1744 37.6192 7.3344 8.10026667 1.44 16.20053333 2.9248 24.52586667 3.91466666a427.86026667 427.86026667 0 0 0 155.25013333-8.90986666 299.74506667 299.74506667 0 0 0 12.23893333 66.33066666 513.22986667 513.22986667 0 0 1-115.92 13.54453334 504 504 0 0 1-104.12906666-11.4752L267.15733333 868.49066667a33.30026667 33.30026667 0 0 1-36.13546667-3.7792 33.74933333 33.74933333 0 0 1-11.6544-34.4704l26.99946667-108.72a352.08 352.08 0 0 1-163.0336-288.18133334c0-205.10933333 196.46933333-371.33973333 438.84053333-371.33973333 230.12906667 0 418.58986667 150.02986667 436.94933334 340.74026667a295.38026667 295.38026667 0 0 0-31.904-3.14986667c-11.92533333 0.45013333-23.85066667 1.5744-35.6864 3.46453333zM751.35893333 642.63466667c20.20586667-4.05013333 39.4208-11.78986667 56.7008-22.94933334a137.70026667 137.70026667 0 0 1 62.0096-37.3504 92.1152 92.1152 0 0 1-29.52 54.6304c-13.27466667 20.2496-22.81493333 42.74986667-28.2144 66.3296a60.74986667 60.74986667 0 1 1-60.976-60.66026666z m109.44 146.16c20.0704 13.45493333 42.3904 23.17546667 65.88053333 28.8a60.74986667 60.74986667 0 1 1-60.74986666 60.74986666 164.69973333 164.69973333 0 0 0-22.50026667-56.9696 138.1952 138.1952 0 0 1-36.81066667-62.41493333 91.61386667 91.61386667 0 0 1 54.18026667 30.1952v-0.36053333z" fill="#707070" p-id="6391"></path></svg>