<?xml version="1.0" encoding="utf-8"?>
<!-- Generator: Adobe Illustrator 22.0.0, SVG Export Plug-In . SVG Version: 6.00 Build 0)  -->
<svg version="1.1" id="图层_1" xmlns="http://www.w3.org/2000/svg" xmlns:xlink="http://www.w3.org/1999/xlink" x="0px" y="0px"
	 viewBox="0 0 24 24" style="enable-background:new 0 0 24 24;" xml:space="preserve">
<style type="text/css">
	.st0{fill:#6BB4AB;}
	.st1{fill:#168AFF;}
	.st2{fill:#FFFFFF;}
	.st3{fill:#FFFFFF;stroke:#FFFFFF;stroke-width:0.25;stroke-miterlimit:10;}
</style>
<circle class="st0" cx="12" cy="12" r="12"/>
<g>
	<path class="st2" d="M12,4.7c-4.6,0-8.4,3.2-8.4,7.2V12h2.2c0.1,2.8,2.8,5,6,5.1v1.8H12c4.6,0,8.4-3.2,8.4-7.2
		C20.4,7.8,16.6,4.7,12,4.7z M13,17.9V16h-1c-2.6,0-4.8-1.8-5-4h11.1v-0.2c0-2.9-2.8-5.3-6.2-5.3c-3,0-5.6,1.9-6.1,4.4h-1
		c0.5-3,3.5-5.2,7.1-5.2c3.9,0,7.2,2.7,7.2,6C19.2,14.8,16.5,17.4,13,17.9z M12,7.6c2.3,0,4.3,1.4,4.9,3.3H7.1C7.7,9,9.7,7.6,12,7.6
		z"/>
	<path class="st2" d="M7.9,17.1c-0.1-0.1-0.4-0.2-1.4,0.2c0.3-0.8,0.2-1,0-1.2c-1.1-1-1.7-2.4-1.8-3.7l0-0.1H3.6l0,0.1
		c0.1,1.6,0.7,3.1,1.9,4.3c-0.1,0.3-0.4,0.9-0.8,1.7c-0.1,0.2-0.1,0.5,0.2,0.6c0.2,0.2,0.4,0.2,0.7,0.1c0.9-0.4,1.6-0.8,1.9-0.9
		c1,0.6,2.2,0.9,3.6,1.1c0.1,0,0.2,0,0.2,0c0.1,0,0.2,0,0.2,0l0.1,0v-1.2l-0.2,0C10.1,18.1,8.9,17.7,7.9,17.1z"/>
</g>
</svg>
