<svg id="图层_1" data-name="图层 1" xmlns="http://www.w3.org/2000/svg" viewBox="0 0 28.35 28.35"><defs><style>.cls-1{fill:#6bb4ab;}.cls-2{fill:#fff;}</style></defs><title>easyink logo</title><circle class="cls-1" cx="14.17" cy="14.17" r="14.17"/><path class="cls-2" d="M14.17,4.89C8.32,4.89,3.56,9,3.56,14v.16H6.37c.14,3.57,3.54,6.46,7.64,6.49V23h.16c5.86,0,10.62-4.07,10.62-9.08S20,4.89,14.17,4.89Zm0,14.53c-3.42,0-6.28-2.37-6.42-5.3H22V14c0-3.65-3.58-6.74-7.81-6.74-3.84,0-7.13,2.42-7.7,5.63H5c.66-3.93,4.48-6.78,9.13-6.78,5.09,0,9.24,3.5,9.24,7.8,0,4-3.44,7.34-8,7.88V19.42Zm0-10.92c3,0,5.67,1.82,6.32,4.35H7.86C8.51,10.32,11.15,8.5,14.17,8.5Z"/><path class="cls-2" d="M13.56,22.27C8.88,22,5.1,18.7,5,14.74v-.07H3.56v.07c.15,4.63,4.54,8.45,10,8.72h.07v-1.2Z"/></svg>