<?xml version="1.0" encoding="UTF-8"?>
<svg width="246px" height="246px" viewBox="0 0 246 246" version="1.1" xmlns="http://www.w3.org/2000/svg" xmlns:xlink="http://www.w3.org/1999/xlink">
    <title>Illustration/聊天对话</title>
    <defs>
        <filter x="-31.2%" y="-18.8%" width="162.5%" height="137.5%" filterUnits="objectBoundingBox" id="filter-1">
            <feGaussianBlur stdDeviation="10" in="SourceGraphic"></feGaussianBlur>
        </filter>
        <filter x="-30.6%" y="-87.0%" width="161.2%" height="274.0%" filterUnits="objectBoundingBox" id="filter-2">
            <feGaussianBlur stdDeviation="10" in="SourceGraphic"></feGaussianBlur>
        </filter>
        <filter x="-214.3%" y="-214.3%" width="528.6%" height="528.6%" filterUnits="objectBoundingBox" id="filter-3">
            <feGaussianBlur stdDeviation="10" in="SourceGraphic"></feGaussianBlur>
        </filter>
        <rect id="path-4" x="0" y="0" width="81" height="49" rx="2"></rect>
        <filter x="-40.5%" y="-107.3%" width="181.1%" height="314.6%" filterUnits="objectBoundingBox" id="filter-6">
            <feGaussianBlur stdDeviation="10" in="SourceGraphic"></feGaussianBlur>
        </filter>
        <filter x="-100.0%" y="-100.0%" width="300.0%" height="300.0%" filterUnits="objectBoundingBox" id="filter-7">
            <feGaussianBlur stdDeviation="10" in="SourceGraphic"></feGaussianBlur>
        </filter>
    </defs>
    <g id="Illustration/聊天对话" stroke="none" stroke-width="1" fill="none" fill-rule="evenodd">
        <g id="聊天对话">
            <rect id="矩形备份-26" fill-opacity="0" fill="#D8D8D8" x="0" y="0" width="246" height="246"></rect>
            <g id="img_chatillustration" transform="translate(17.000000, 17.000000)">
                <rect id="矩形备份-16" fill-opacity="0" fill="#D8D8D8" x="0" y="0" width="212" height="212"></rect>
                <g id="编组-37" transform="translate(4.000000, 22.000000)">
                    <circle id="椭圆形" fill="#E1E8F1" opacity="0.400000006" cx="114" cy="91" r="88"></circle>
                    <rect id="矩形" fill="#CED7E2" x="64" y="0" width="105" height="174" rx="14"></rect>
                    <rect id="矩形备份-25" fill="#CED7E2" opacity="0.300000012" filter="url(#filter-1)" x="69" y="23" width="96" height="160" rx="14"></rect>
                    <rect id="矩形" fill="#FFFFFF" x="69" y="6" width="96" height="162" rx="10"></rect>
                    <path d="M9.70641237,91.707814 L5.70781399,95.7064124 C5.31636382,96.0978625 4.68263503,96.0978625 4.29218601,95.7064124 L0.293587626,91.707814 C-0.0978625419,91.317365 -0.0978625419,90.6836362 0.293587626,90.292186 L4.29218601,86.2935876 C4.68263503,85.9021375 5.31636382,85.9021375 5.70781399,86.2935876 L9.70641237,90.292186 C10.0978625,90.6836362 10.0978625,91.317365 9.70641237,91.707814" id="Fill-9" fill="#BBD9FA"></path>
                    <path d="M36.7147782,123.187645 L29.1876448,130.713806 C28.8083217,131.094101 28.1916783,131.094101 27.8123552,130.713806 L20.2852218,123.187645 C19.9049261,122.807349 19.9049261,122.191678 20.2852218,121.811383 L27.8123552,114.285222 C28.1916783,113.904926 28.8083217,113.904926 29.1876448,114.285222 L36.7147782,121.811383 C37.0950739,122.191678 37.0950739,122.807349 36.7147782,123.187645" id="Fill-11" fill="#FFBBD8"></path>
                    <path d="M106.5,10 C107.329,10 108,10.672 108,11.5 C108,12.2802353 107.405619,12.9205121 106.64455,12.993139 L106.5,13 C105.672,13 105,12.329 105,11.5 C105,10.672 105.672,10 106.5,10 Z M127.5,10 C128.328,10 129,10.672 129,11.5 C129,12.329 128.328,13 127.5,13 L111.5,13 C110.671,13 110,12.329 110,11.5 C110,10.672 110.671,10 111.5,10 L127.5,10 Z" id="形状结合" fill="#ADCBDF"></path>
                    <path d="M179.3266,136.6778 C180.5136,138.3508 181.8496,139.8488 183.2816,141.1778" id="Stroke-25" stroke="#C4CBDA" stroke-linecap="round"></path>
                    <rect id="矩形" fill="#1A66FF" x="23" y="23" width="108" height="38" rx="6"></rect>
                    <rect id="矩形" fill="#1A66FF" opacity="0.300000012" filter="url(#filter-2)" x="28" y="31" width="98" height="34.4814815" rx="6"></rect>
                    <g id="编组-33" transform="translate(30.000000, 29.000000)">
                        <g id="Fill-32" fill="#FFFFFF">
                            <path d="M18,9 C18,13.971 13.971,18 9,18 C4.029,18 0,13.971 0,9 C0,4.029 4.029,0 9,0 C13.971,0 18,4.029 18,9" id="Fill-29"></path>
                        </g>
                        <path d="M10.8521584,9.353 C11.5572496,8.803 12.0179226,7.959 12.0179226,7 C12.0179226,5.344 10.6660787,4 9.00041387,4 C7.33374323,4 5.98290516,5.344 5.98290516,7 C5.98290516,7.959 6.44357816,8.803 7.14766352,9.353 C5.45987032,10.018 4.2186684,11.565 4.00341945,13.424 C3.96922102,13.728 4.19553417,14 4.50332006,14 L13.4965018,14 C13.8042877,14 14.0316067,13.728 13.9964025,13.424 C13.7821593,11.565 12.5409574,10.018 10.8521584,9.353" id="Fill-31" fill="#F2F5F9"></path>
                    </g>
                    <path d="M154.311,49.622 L154.311,49.622 C149.169,49.622 145,45.454 145,40.311 C145,35.169 149.169,31 154.311,31 C159.454,31 163.623,35.169 163.623,40.311 C163.623,45.454 159.454,49.622 154.311,49.622" id="Fill-65" fill="#1A66FF" opacity="0.300000012"></path>
                    <path d="M173.312,178.622 L173.312,178.622 C168.169,178.622 164,174.453 164,169.31 C164,164.168 168.169,160 173.312,160 C178.454,160 182.623,164.168 182.623,169.31 C182.623,174.453 178.454,178.622 173.312,178.622" id="Fill-67" fill="#FFA900"></path>
                    <path d="M173.311876,181.311 L173.311876,181.311 C169.445582,181.311 166.3115,178.17675 166.3115,174.310248 C166.3115,170.444498 169.445582,167.311 173.311876,167.311 C177.177418,167.311 180.3115,170.444498 180.3115,174.310248 C180.3115,178.17675 177.177418,181.311 173.311876,181.311" id="Fill-67" fill="#FFA900" opacity="0.300000012" filter="url(#filter-3)"></path>
                    <path d="M173.7271,169.996 L173.9921,168.535 C173.8551,168.298 173.6911,168.198 173.4541,168.198 C172.7871,168.198 172.3671,169.083 172.3671,169.749 C172.3671,170.26 172.6141,170.498 172.9701,170.498 C173.2071,170.498 173.4351,170.36 173.7271,169.996 M169.2271,169.759 C169.2271,166.892 171.3271,165.012 173.8001,165.012 C176.0001,165.012 177.3961,166.5 177.3961,168.627 C177.3961,170.498 176.1641,171.447 175.1141,171.447 C174.5301,171.447 174.0561,171.173 173.9561,170.662 L173.9371,170.662 C173.6361,171.063 173.1161,171.355 172.6871,171.355 C171.9021,171.355 171.3541,170.771 171.3541,169.822 C171.3541,168.608 172.2301,167.322 173.4171,167.322 C173.7641,167.322 174.0381,167.476 174.2111,167.832 L174.2291,167.832 L174.3751,167.403 L175.2061,167.403 L174.7581,169.631 C174.5941,170.297 174.7581,170.607 175.2511,170.607 C175.8811,170.607 176.5381,169.859 176.5381,168.672 C176.5381,167.13 175.6801,165.843 173.6911,165.843 C171.9111,165.843 170.1411,167.367 170.1411,169.722 C170.1411,171.757 171.5271,172.779 173.1891,172.779 C173.7461,172.779 174.3481,172.605 174.7861,172.359 L175.0871,173.107 C174.4661,173.455 173.8101,173.609 173.0791,173.609 C171.0171,173.609 169.2271,172.341 169.2271,169.759" id="Fill-69" fill="#F2F5F9"></path>
                    <path d="M154.9286,40.995 L155.1326,39.352 L153.6216,39.352 L153.4176,40.995 L154.9286,40.995 Z M152.2416,42.135 L151.2106,42.135 L151.2106,40.995 L152.3736,40.995 L152.5776,39.352 L151.4866,39.352 L151.4866,38.201 L152.7216,38.201 L153.0216,35.886 L154.0416,35.886 L153.7656,38.201 L155.2766,38.201 L155.5766,35.886 L156.6076,35.886 L156.3316,38.201 L157.4116,38.201 L157.4116,39.352 L156.1876,39.352 L155.9846,40.995 L157.1356,40.995 L157.1356,42.135 L155.8526,42.135 L155.5406,44.737 L154.4856,44.737 L154.7966,42.135 L153.2976,42.135 L152.9736,44.737 L151.9306,44.737 L152.2416,42.135 Z" id="Fill-71" fill="#F2F5F9"></path>
                    <g id="编组-34" transform="translate(57.000000, 29.000000)" fill="#FFFFFF">
                        <rect id="矩形" x="0" y="0" width="65" height="3" rx="1.5"></rect>
                        <rect id="矩形备份-35" x="0" y="11" width="65" height="3" rx="1.5"></rect>
                        <rect id="矩形备份-36" x="0" y="22" width="44" height="3" rx="1.5"></rect>
                    </g>
                    <rect id="矩形" fill="#1A66FF" x="77" y="69" width="20" height="4" rx="2"></rect>
                    <rect id="矩形备份-38" fill="#E5ECF5" x="102" y="69" width="56" height="4" rx="2"></rect>
                    <rect id="矩形" fill="#33C8CD" x="106" y="156" width="52" height="4" rx="2"></rect>
                    <path d="M167,47.9055238 L180.040031,56.9974085 C187.427173,62.1479368 189.240307,72.3117272 184.089779,79.6988696 C183.983953,79.8506491 183.875553,80.0006164 183.764623,80.1487062 C177.453485,88.5740101 175.816089,99.6135965 179.410037,109.508027 L188,133.156892 L188,133.156892" id="路径-16" stroke="#E4EDF5" stroke-width="2" stroke-linecap="round" stroke-dasharray="9"></path>
                    <g id="形状结合" transform="translate(77.000000, 81.000000)">
                        <mask id="mask-5" fill="white">
                            <use xlink:href="#path-4"></use>
                        </mask>
                        <use id="蒙版" fill="#E5ECF5" xlink:href="#path-4"></use>
                        <path d="M30.0951881,17.3337362 L30.245533,17.4756414 L51.6016152,38.8322187 L63.1911306,27.2422855 C64.5182684,25.9151476 66.6429398,25.8713515 68.0237734,27.1105698 L68.1639016,27.2433415 L98.0068643,57.0863042 L95.8761293,59.2170392 L66.0331666,29.3740765 C65.8587559,29.1996658 65.5880742,29.1802335 65.3923284,29.3158159 L65.3227708,29.3739256 L53.7326152,40.9632187 L61.5095892,48.7396975 C62.8340206,50.0641289 62.8817613,52.1816277 61.6524865,53.5621839 L61.5106452,53.7124686 L30.2598651,84.9632487 C28.9359961,86.2871177 26.8185173,86.3339591 25.437439,85.1040978 L25.287094,84.9621926 L-5.97696211,53.6981365 C-7.30139352,52.3737051 -7.34913428,50.2562063 -6.11985947,48.8756502 L-5.97801815,48.7253654 L25.272762,17.4745853 C26.596631,16.1507163 28.7141097,16.1038749 30.0951881,17.3337362 Z M27.4739598,19.5481157 L27.4044022,19.6062255 L-3.84637796,50.8570056 C-4.02071462,51.0313423 -4.04003199,51.3020158 -3.90436644,51.4978192 L-3.8462271,51.5674015 L27.417829,82.8314576 C27.5922397,83.0058683 27.8629215,83.0253007 28.0586672,82.8897183 L28.1282249,82.8316085 L59.379005,51.5808284 C59.5533417,51.4064917 59.572659,51.1358182 59.4369935,50.9400148 L59.3788541,50.8704325 L28.114798,19.6063764 C27.9403873,19.4319657 27.6697056,19.4125333 27.4739598,19.5481157 Z M56.8950189,6 C59.1139623,6 60.9127713,7.79957322 60.9127713,10.0194593 C60.9127713,12.2393454 59.1139623,14.0389186 56.8950189,14.0389186 C54.6760755,14.0389186 52.8772664,12.2393454 52.8772664,10.0194593 C52.8772664,7.79957322 54.6760755,6 56.8950189,6 Z" fill="#FFFFFF" fill-rule="nonzero" mask="url(#mask-5)"></path>
                    </g>
                    <rect id="矩形" fill="#33C8CD" x="114" y="114" width="90" height="34" rx="6"></rect>
                    <rect id="矩形" fill="#33C8CD" opacity="0.300000012" filter="url(#filter-6)" x="122" y="123.022222" width="74" height="27.9555556" rx="6"></rect>
                    <g id="编组-35" transform="translate(179.000000, 122.000000)">
                        <path d="M18,9 C18,13.971 13.97,18 9,18 C4.029,18 0,13.971 0,9 C0,4.029 4.029,0 9,0 C13.97,0 18,4.029 18,9" id="Fill-41" fill="#FFFFFF"></path>
                        <path d="M10.8527699,9.353 C11.5568998,8.804 12.0186078,7.959 12.0186078,7 C12.0186078,5.344 10.6666784,4 9.00090826,4 C7.3331263,4 5.98320869,5.344 5.98320869,7 C5.98320869,7.959 6.44391082,8.804 7.14804072,9.353 C5.45913486,10.019 4.21886034,11.566 4.00359777,13.424 C3.96839128,13.729 4.19572465,14 4.50353,14 L13.4962747,14 C13.805086,14 14.0324193,13.729 13.9962069,13.424 C13.7819503,11.566 12.5416757,10.019 10.8527699,9.353" id="Fill-43" fill="#F2F5F9"></path>
                    </g>
                    <g id="编组-36" transform="translate(125.000000, 124.000000)" fill="#FFFFFF">
                        <rect id="矩形" x="0" y="0" width="42" height="3" rx="1.5"></rect>
                        <rect id="矩形备份-37" x="0" y="11" width="30" height="3" rx="1.5"></rect>
                    </g>
                    <rect id="矩形" fill="#42D77B" x="45" y="124" width="38" height="38" rx="4"></rect>
                    <rect id="矩形" fill="#42D77B" opacity="0.300000012" filter="url(#filter-7)" x="49" y="136" width="30" height="30" rx="4"></rect>
                    <path d="M71.8650996,145.00495 C71.2240675,145.028644 70.685999,144.517518 70.6638562,143.864224 C70.6406064,143.21093 71.1410322,142.662569 71.7820644,142.638875 L71.8650996,142.638875 C72.5061318,142.662569 73.0076648,143.21093 72.9844149,143.864224 C72.9622722,144.484797 72.4740249,144.982383 71.8650996,145.00495 L71.8650996,145.00495 Z M66.0714529,145.00495 C65.4304207,145.009463 64.9078522,144.483669 64.9045307,143.830375 C64.9001022,143.178209 65.4171351,142.644516 66.0570601,142.641131 L66.0681315,142.641131 C66.7091637,142.643388 67.2261966,143.174824 67.2239894,143.82699 C67.221768,144.47577 66.7069494,145.001565 66.0714529,145.00495 L66.0714529,145.00495 Z M77,146.524789 C77,142.699804 73.4427695,139.601453 69.0518651,139.601453 C64.6620678,139.601453 61.1026231,142.703189 61.1026231,146.524789 C61.1026231,150.348646 64.6620678,153.453767 69.0518651,153.453767 C70.2475728,153.453767 71.3779595,153.221334 72.3976324,152.809499 C73.4449838,153.380426 74.587549,153.980689 74.6451201,153.998742 C74.684977,154.042747 74.4591211,152.924587 74.215551,151.795145 C75.9172202,150.52015 77,148.635865 77,146.524789 L77,146.524789 Z M56.7947539,138.756347 C56.1548288,138.757474 55.6333674,138.229423 55.6322585,137.576129 C55.6311531,136.923963 56.1504003,136.392527 56.7903253,136.391399 L56.8013967,136.391399 C57.4413218,136.395912 57.9572475,136.929605 57.9528189,137.58177 C57.9494975,138.230551 57.4324647,138.754089 56.7969681,138.756347 L56.7947539,138.756347 Z M63.9158576,136.393656 C64.5568898,136.425248 65.0495657,136.982636 65.0174587,137.634801 C64.9886731,138.241834 64.5114972,138.728138 63.9158576,138.75749 C63.2759325,138.760859 62.753364,138.233936 62.7511338,137.58177 C62.7478283,136.928477 63.263754,136.397041 63.9047862,136.393656 L63.9158576,136.393656 Z M68.6366888,139.09484 C68.913473,139.09484 69.1858286,139.107251 69.4603986,139.134331 C68.8392948,135.103992 64.963209,132 60.2733776,132 C55.15287,132 51,135.706512 51,140.276185 C51,142.830688 52.2997786,145.116653 54.3358031,146.636492 C54.0767331,147.965646 53.7534492,149.713405 53.801056,149.653604 C53.8719128,149.62991 55.6643672,148.613299 56.7903253,147.948722 C57.8653551,148.336862 59.0411344,148.553498 60.2744848,148.553498 C60.4040198,148.553498 60.5302334,148.550113 60.6597684,148.547856 C60.5158406,147.97016 60.4427695,147.376666 60.4438767,146.780916 C60.4405553,142.536198 64.1096065,139.097096 68.6366888,139.097096 L68.6366888,139.09484 Z" id="Fill-55" fill="#FFFFFF"></path>
                </g>
            </g>
        </g>
    </g>
</svg>