<?xml version="1.0" encoding="utf-8"?>
<svg version="1.1" xmlns:xlink="http://www.w3.org/1999/xlink" width="150px" height="150px" xmlns="http://www.w3.org/2000/svg">
  <defs>
    <path d="M 0 0  L 1024 0  L 1024 1024  L 0 1024  Z " fill-rule="evenodd" fill="black" id="path341" />
    <clipPath id="clip342">
      <use xlink:href="#path341" />
    </clipPath>
    <defs>
      <style type="text/css">@font-face { font-family: feedback-iconfont; src: url("//at.alicdn.com/t/font_1031158_1uhr8ri0pk5.eot?#iefix") format("embedded-opentype"), url("//at.alicdn.com/t/font_1031158_1uhr8ri0pk5.woff2") format("woff2"), url("//at.alicdn.com/t/font_1031158_1uhr8ri0pk5.woff") format("woff"), url("//at.alicdn.com/t/font_1031158_1uhr8ri0pk5.ttf") format("truetype"), url("//at.alicdn.com/t/font_1031158_1uhr8ri0pk5.svg#iconfont") format("svg"); }
</style>
    </defs>
    <path d="M870.23639323 770.62646485c-11.10498047-70.07958984-136.03271484-159.271875-199.8852539-178.38457032-5.55205078 47.78085938-55.52402344 162.45703125-177.67529297 152.9006836S337.21051433 579.49951172 337.21051433 579.49951172C228.9398112 627.28125 167.86373698 710.10322266 148.4311198 745.14257813c-19.434375 35.04023437-11.10585937 175.03154297-11.10585938 175.03154297H881.3404948s0-79.46894531-11.10410157-149.54765625z" fill="#707070" p-id="1768"></path>
    <path d="M503.78170573 632.24189453c128.79228516 0 233.1984375-119.7984375 233.1984375-267.57685547 0-147.77929688-104.40615234-267.57685547-233.1984375-267.57685547S270.58238933 216.88574218 270.58238933 364.66503906c0 147.77841797 104.40703125 267.57685547 233.1993164 267.57685547zM504.72916667 489.95927734c-11.40732422 0-20.65429688-9.24697266-20.65429688-20.65429687s9.24697266-20.65429688 20.65429688-20.65429688 20.65429688 9.24609375 20.65429688 20.65429688-9.24697266 20.65429688-20.65429688 20.65429687z m-48.77929688-241.69921875s37.69892578-29.70439453 85.25390626-13.18359375c43.49179687 15.10839844 44.38212891 55.45458984 41.30859375 70.3125-3.515625 16.99189453-15.91083984 36.96855469-37.79296875 54.4921875-16.87675781 13.51494141-22.26533203 23.43779297-23.73046875 28.125s-2.63671875 12.01201172-2.63671875 14.0625v13.18359375h-28.125s-7.17802734-41.60126953 26.3671875-65.91796875c35.37597656-27.17314453 50.85791016-61.04619141 21.09375-84.375-21.22822266-15.17255859-63.86748047-2.92939453-81.73828125 15.8203125v-32.51953125z" fill="#707070" p-id="1769"></path>
    <filter x="-50.00%" y="-50.00%" width="200.00%" height="200.00%" filterUnits="objectBoundingBox" id="filter343">
      <feColorMatrix type="matrix" values="1 0 0 0 0  0 1 0 0 0  0 0 1 0 0  0 0 0 1 0  " in="SourceGraphic" />
    </filter>
  </defs>
  <g transform="matrix(1 0 0 1 -867 -160 )">
    <g transform="matrix(0.146484375 0 0 0.146484375 867 160 )" clip-path="url(#clip342)" filter="url(#filter343)">
      <path d="M870.23639323 770.62646485c-11.10498047-70.07958984-136.03271484-159.271875-199.8852539-178.38457032-5.55205078 47.78085938-55.52402344 162.45703125-177.67529297 152.9006836S337.21051433 579.49951172 337.21051433 579.49951172C228.9398112 627.28125 167.86373698 710.10322266 148.4311198 745.14257813c-19.434375 35.04023437-11.10585937 175.03154297-11.10585938 175.03154297H881.3404948s0-79.46894531-11.10410157-149.54765625z" fill="#707070" p-id="1768"></path>
      <path d="M503.78170573 632.24189453c128.79228516 0 233.1984375-119.7984375 233.1984375-267.57685547 0-147.77929688-104.40615234-267.57685547-233.1984375-267.57685547S270.58238933 216.88574218 270.58238933 364.66503906c0 147.77841797 104.40703125 267.57685547 233.1993164 267.57685547zM504.72916667 489.95927734c-11.40732422 0-20.65429688-9.24697266-20.65429688-20.65429687s9.24697266-20.65429688 20.65429688-20.65429688 20.65429688 9.24609375 20.65429688 20.65429688-9.24697266 20.65429688-20.65429688 20.65429687z m-48.77929688-241.69921875s37.69892578-29.70439453 85.25390626-13.18359375c43.49179687 15.10839844 44.38212891 55.45458984 41.30859375 70.3125-3.515625 16.99189453-15.91083984 36.96855469-37.79296875 54.4921875-16.87675781 13.51494141-22.26533203 23.43779297-23.73046875 28.125s-2.63671875 12.01201172-2.63671875 14.0625v13.18359375h-28.125s-7.17802734-41.60126953 26.3671875-65.91796875c35.37597656-27.17314453 50.85791016-61.04619141 21.09375-84.375-21.22822266-15.17255859-63.86748047-2.92939453-81.73828125 15.8203125v-32.51953125z" fill="#707070" p-id="1769"></path>
    </g>
  </g>
</svg>