<?xml version="1.0" encoding="UTF-8"?>
<svg width="370px" height="268px" viewBox="0 0 370 268" version="1.1" xmlns="http://www.w3.org/2000/svg" xmlns:xlink="http://www.w3.org/1999/xlink">
    <!-- Generator: Sketch 55.2 (78181) - https://sketchapp.com -->
    <title>编组 11</title>
    <desc>Created with Sketch.</desc>
    <defs>
        <linearGradient x1="49.9888699%" y1="100.023495%" x2="49.9888699%" y2="-0.00161146659%" id="linearGradient-1">
            <stop stop-color="#808080" stop-opacity="0.25" offset="0%"></stop>
            <stop stop-color="#808080" stop-opacity="0.12" offset="54%"></stop>
            <stop stop-color="#808080" stop-opacity="0.1" offset="100%"></stop>
        </linearGradient>
        <path d="M129.297023,45.8913629 C125.061286,45.8913629 121.805063,42.9938838 121.805063,38.0418285 C121.805063,33.0634326 125.511333,30.1659534 129.720597,30.1659534 C131.547258,30.1659534 132.97682,30.7981307 134.115174,31.7727373 L131.917885,34.7755793 C131.229578,34.1960835 130.647164,33.959017 129.98533,33.959017 C127.920408,33.959017 126.623214,35.5394602 126.623214,38.0418285 C126.623214,40.5178562 127.973355,42.0982993 129.82649,42.0982993 C130.779531,42.0982993 131.679625,41.6505071 132.447352,41.0446706 L134.247541,44.1265347 C132.791506,45.41723 130.885424,45.8913629 129.297023,45.8913629 Z M143.265192,45.8913629 C139.429457,45.8913629 135.884709,42.9938838 135.884709,38.0418285 C135.884709,33.0634326 139.429457,30.1659534 143.265192,30.1659534 C147.074474,30.1659534 150.619222,33.0634326 150.619222,38.0418285 C150.619222,42.9938838 147.074474,45.8913629 143.265192,45.8913629 Z M143.429255,41.9600106 C145.220809,41.9600106 146.035151,40.3696577 146.035151,37.8781048 C146.035151,35.360046 145.220809,33.7696931 143.429255,33.7696931 C141.610556,33.7696931 140.796213,35.360046 140.796213,37.8781048 C140.796213,40.3696577 141.610556,41.9600106 143.429255,41.9600106 Z M153.566125,45.5637502 L153.566125,30.5357118 L157.400876,30.5357118 L157.718235,32.4109152 L157.824021,32.4109152 C159.06701,31.1959947 160.60091,30.1659534 162.637296,30.1659534 C165.916669,30.1659534 167.318337,32.5165605 167.318337,36.2669673 L167.318337,45.5637502 L162.610849,45.5637502 L162.610849,36.8480162 C162.610849,34.7879336 162.055471,34.1804734 160.865376,34.1804734 C159.807514,34.1804734 159.172796,34.655877 158.247166,35.5274504 L158.247166,45.5637502 L153.566125,45.5637502 Z M171.628072,30.6861847 L171.628072,30.083748 C171.628072,26.9406004 173.141346,24.2689249 177.336036,24.2689249 C178.66347,24.2689249 179.725417,24.5308538 180.415682,24.7927828 L179.566125,28.2240523 C179.088249,28.040702 178.530727,27.9097376 178.026302,27.9097376 C176.990904,27.9097376 176.353735,28.4597884 176.353735,29.9527835 L176.353735,30.6599918 L179.035151,30.6599918 L179.035151,34.3008045 L176.353735,34.3008045 L176.353735,45.5637502 L171.628072,45.5637502 L171.628072,34.3008045 L169.610373,34.3008045 L169.610373,30.843342 L171.628072,30.6861847 Z M184.319205,28.5278899 C182.829703,28.5278899 181.725417,27.5074569 181.725417,26.0842214 C181.725417,24.6341325 182.829703,23.6136995 184.319205,23.6136995 C185.860069,23.6136995 186.964355,24.6341325 186.964355,26.0842214 C186.964355,27.5074569 185.860069,28.5278899 184.319205,28.5278899 Z M182.052851,45.5637502 L182.052851,30.4935661 L186.636921,30.4935661 L186.636921,45.5637502 L182.052851,45.5637502 Z M195.861094,51.7883915 C192.420415,51.7883915 189.583824,50.7099001 189.583824,48.0268238 C189.583824,46.7905044 190.319236,45.7909269 191.711267,45.0807009 L191.711267,44.9491775 C190.923325,44.4230841 190.345501,43.6339441 190.345501,42.3713199 C190.345501,41.3191332 191.028384,40.2669464 192.000179,39.583025 L192.000179,39.4778063 C190.94959,38.7412756 189.977795,37.3471281 189.977795,35.61102 C189.977795,31.9546709 192.998239,30.1659534 196.228801,30.1659534 C197.095537,30.1659534 197.909743,30.2974768 198.592626,30.5342188 L204.081955,30.5342188 L204.081955,33.9275211 L201.770658,33.9275211 C202.007041,34.3483958 202.190894,35.0323172 202.190894,35.7425433 C202.190894,39.2410643 199.538156,40.7667351 196.228801,40.7667351 C195.729771,40.7667351 195.125682,40.6878211 194.469064,40.5036884 C194.127622,40.8193445 193.996299,41.0560865 193.996299,41.5558752 C193.996299,42.2397966 194.600387,42.5554526 196.202536,42.5554526 L198.566361,42.5554526 C202.243424,42.5554526 204.318337,43.6865534 204.318337,46.3959343 C204.318337,49.5524946 201.061511,51.7883915 195.861094,51.7883915 Z M196.132497,38.0286582 C197.278514,38.0286582 198.097098,37.2512721 198.097098,35.7224129 C198.097098,34.2194665 197.278514,33.4420804 196.132497,33.4420804 C195.013765,33.4420804 194.167895,34.2194665 194.167895,35.7224129 C194.167895,37.2512721 195.013765,38.0286582 196.132497,38.0286582 Z M196.419836,48.8398772 C198.371073,48.8398772 199.734266,48.1226711 199.734266,47.1663961 C199.734266,46.2632476 198.932388,46.0773053 197.515737,46.0773053 L196.072356,46.0773053 C194.976455,46.0773053 194.388411,46.0241789 193.907284,45.8913629 C193.426157,46.316374 193.185594,46.7413851 193.185594,47.2460857 C193.185594,48.3086134 194.468599,48.8398772 196.419836,48.8398772 Z M210.991143,45.8913629 C207.69274,45.8913629 206.282939,43.5407559 206.282939,39.7903491 L206.282939,30.4935661 L211.017743,30.4935661 L211.017743,39.2093002 C211.017743,41.2957941 211.576344,41.876843 212.773345,41.876843 C213.837346,41.876843 214.502346,41.454262 215.300347,40.3449867 L215.300347,30.4935661 L220.035151,30.4935661 L220.035151,45.5216045 L216.178148,45.5216045 L215.832348,43.4615219 L215.725948,43.4615219 C214.475746,44.9405556 213.065945,45.8913629 210.991143,45.8913629 Z M223.636921,45.5637502 L223.636921,30.5357118 L227.512666,30.5357118 L227.833418,33.1504321 L227.940335,33.1504321 C229.062964,31.1431721 230.746909,30.1659534 232.270477,30.1659534 C233.179273,30.1659534 233.687129,30.29801 234.114797,30.4828892 L233.312919,34.5238205 C232.778334,34.3917639 232.323936,34.2861186 231.655704,34.2861186 C230.533074,34.2861186 229.169881,34.9992241 228.368003,36.9800728 L228.368003,45.5637502 L223.636921,45.5637502 Z M239.905203,45.8913629 C237.121354,45.8913629 235.424532,43.8367868 235.424532,41.3344185 C235.424532,38.1735321 237.916739,36.4613854 243.802591,35.8292081 C243.696539,34.617535 243.060231,33.9063356 241.522486,33.9063356 C240.329408,33.9063356 239.083304,34.3804685 237.572072,35.2233716 L235.928276,32.1415074 C237.916739,30.956175 240.06428,30.1659534 242.423923,30.1659534 C246.321311,30.1659534 248.521877,32.3258924 248.521877,37.0145405 L248.521877,45.5225929 L244.677515,45.5225929 L244.332848,44.0211719 L244.226796,44.0211719 C242.980693,45.1274821 241.575512,45.8913629 239.905203,45.8913629 Z M241.311655,42.2876233 C242.273909,42.2876233 242.915411,41.8371558 243.610373,41.0952094 L243.610373,38.6838836 C240.643423,39.0813549 239.681169,39.9292936 239.681169,40.9892171 C239.681169,41.8636539 240.322672,42.2876233 241.311655,42.2876233 Z M257.86701,45.8913629 C254.07055,45.8913629 252.530727,43.5180704 252.530727,39.9581316 L252.530727,34.1831198 L250.486479,34.1831198 L250.486479,30.7022907 L252.796213,30.5177013 L253.327187,26.5622137 L257.25639,26.5622137 L257.25639,30.5177013 L260.813912,30.5177013 L260.813912,34.1831198 L257.25639,34.1831198 L257.25639,39.9053918 C257.25639,41.5666965 258.052851,42.2259445 259.167895,42.2259445 C259.645771,42.2259445 260.176744,42.067725 260.548426,41.9622453 L261.291789,45.3375947 C260.495328,45.5749239 259.406833,45.8913629 257.86701,45.8913629 Z M263.583824,45.5637502 L263.583824,30.4935661 L268.167895,30.4935661 L268.167895,45.5637502 L263.583824,45.5637502 Z M265.888763,28.5278899 C264.340309,28.5278899 263.25639,27.5074569 263.25639,26.0842214 C263.25639,24.6341325 264.340309,23.6136995 265.888763,23.6136995 C267.41141,23.6136995 268.495328,24.6341325 268.495328,26.0842214 C268.495328,27.5074569 267.41141,28.5278899 265.888763,28.5278899 Z M278.495281,45.8913629 C274.659546,45.8913629 271.114797,42.9938838 271.114797,38.0418285 C271.114797,33.0634326 274.659546,30.1659534 278.495281,30.1659534 C282.304562,30.1659534 285.849311,33.0634326 285.849311,38.0418285 C285.849311,42.9938838 282.304562,45.8913629 278.495281,45.8913629 Z M278.659343,41.9600106 C280.450897,41.9600106 281.26524,40.3696577 281.26524,37.8781048 C281.26524,35.360046 280.450897,33.7696931 278.659343,33.7696931 C276.840645,33.7696931 276.026302,35.360046 276.026302,37.8781048 C276.026302,40.3696577 276.840645,41.9600106 278.659343,41.9600106 Z M288.796213,45.5637502 L288.796213,30.5357118 L292.630965,30.5357118 L292.948324,32.4109152 L293.05411,32.4109152 C294.297098,31.1959947 295.830999,30.1659534 297.867384,30.1659534 C301.146758,30.1659534 302.548426,32.5165605 302.548426,36.2669673 L302.548426,45.5637502 L297.840938,45.5637502 L297.840938,36.8480162 C297.840938,34.7879336 297.28556,34.1804734 296.095465,34.1804734 C295.037602,34.1804734 294.402885,34.655877 293.477255,35.5274504 L293.477255,45.5637502 L288.796213,45.5637502 Z" id="path-2"></path>
        <filter x="-6.6%" y="-24.8%" width="113.3%" height="199.4%" filterUnits="objectBoundingBox" id="filter-3">
            <feOffset dx="0" dy="9" in="SourceAlpha" result="shadowOffsetOuter1"></feOffset>
            <feGaussianBlur stdDeviation="2.5" in="shadowOffsetOuter1" result="shadowBlurOuter1"></feGaussianBlur>
            <feColorMatrix values="0 0 0 0 0   0 0 0 0 0   0 0 0 0 0  0 0 0 0.182664991 0" type="matrix" in="shadowBlurOuter1"></feColorMatrix>
        </filter>
    </defs>
    <g id="页面1" stroke="none" stroke-width="1" fill="none" fill-rule="evenodd">
        <g id="画板备份-5" transform="translate(-945.000000, -465.000000)" fill-rule="nonzero">
            <g id="编组-11" transform="translate(945.000000, 465.000000)">
                <path d="M214.978698,41.8597741 C191.25878,41.0175851 168.665264,33.1658931 147.093368,24.5768761 C125.521471,15.987859 104.149314,6.46817402 80.9991463,1.91642101 C66.1070721,-1.00994 49.0767999,-1.422842 37.0793153,6.75982702 C25.5304266,14.624627 21.8008592,28.2372851 19.7969125,40.8406271 C18.2874037,50.3439271 17.4000351,60.3223921 21.5323565,69.2096162 C24.4040252,75.3802072 29.5023012,80.5644212 33.0288544,86.4728522 C45.2915673,107.036027 36.6307194,132.393453 23.3300145,152.471632 C17.1086115,161.88973 9.86231418,170.875264 5.05218731,180.899607 C0.242060434,190.92395 -1.98454697,202.413112 2.22308614,212.640629 C6.39797502,222.779667 16.3391222,230.392138 27.1086983,235.746756 C48.985116,246.626397 74.7646456,249.739547 99.9023883,251.502573 C155.547927,255.40548 211.491438,253.714548 267.284325,252.023616 C287.932835,251.394432 308.669753,250.761971 328.984271,247.488248 C340.261383,245.669513 351.90523,242.785753 360.091287,235.81885 C370.487578,226.97095 373.064549,212.004891 366.096578,200.9188 C354.423261,182.328379 322.114533,177.714363 313.948123,157.750879 C309.45234,146.766375 314.069276,134.530057 320.601749,124.325479 C334.616278,102.471166 358.106986,83.2974392 359.344718,58.3135911 C360.196068,41.1552191 348.902584,23.9706311 331.443363,15.853502 C313.13934,7.33330202 287.762565,8.41471202 274.258846,22.4992581 C260.355647,37.0261991 235.921905,42.6069301 214.978698,41.8597741 Z" id="路径" fill="#6BB4AB" opacity="0.1"></path>
                <ellipse id="椭圆形" fill="#6BB4AB" opacity="0.1" cx="222.393617" cy="263.231383" rx="30.5053191" ry="4.42819149"></ellipse>
                <polygon id="路径" fill="#D0D2D5" points="210.585106 254.867021 152.526596 254.103144 152.699282 252.572039 155.504624 227.31383 206.492762 227.31383 210.242992 252.572039 210.529716 254.485083"></polygon>
                <polygon id="路径" fill="#000000" opacity="0.1" points="210.585106 253.882979 181.585203 253.882979 152.526596 253.490051 152.699447 251.914894 210.298108 251.914894"></polygon>
                <rect id="矩形" fill="#D0D2D5" x="142.68617" y="251.914894" width="77.7393617" height="1.96808511"></rect>
                <path d="M294.228723,79.7121868 C294.2356,78.4124241 293.730095,77.1631615 292.823435,76.2394549 C291.916776,75.3157482 290.683302,74.7933338 289.394592,74.787234 L73.7170947,74.787234 C71.0341511,74.8017523 68.8703738,77.0062139 68.8829787,79.7121868 L68.8829787,211.569149 L294.228723,211.569149 L294.228723,79.7121868 Z" id="路径" fill="#444053"></path>
                <path d="M68.8829787,209.601064 L68.8829787,225.307454 C68.8829787,228.045959 71.0472626,230.265957 73.7170421,230.265957 L289.394659,230.265957 C290.676998,230.266846 291.907065,229.74472 292.813816,228.814627 C293.720567,227.884535 294.228723,226.622803 294.228723,225.307454 L294.228723,209.601064 L68.8829787,209.601064 Z" id="路径" fill="#D0D2D5"></path>
                <rect id="矩形" fill="#FFFFFF" x="77.7393617" y="82.6595745" width="208.617021" height="118.085106"></rect>
                <path d="M182.018487,224.361702 C183.532679,224.36196 184.96324,223.666491 185.899429,222.474977 L185.899429,222.474977 C186.040475,222.295193 186.168767,222.105737 186.283363,221.907999 L183.589421,221.459542 L186.516924,221.481964 C187.084373,220.245502 187.117934,218.829592 186.609708,217.567571 L182.683974,219.608053 L186.30576,216.942934 C185.371067,215.363482 183.638543,214.433345 181.807293,214.527851 C179.976043,214.622358 178.348223,215.725914 177.580689,217.393213 C176.813155,219.060513 177.03255,221.016453 178.150344,222.471774 L178.150344,222.471774 C179.08311,223.660961 180.508244,224.357264 182.018487,224.361702 Z" id="路径" fill="#6BB4AB"></path>
                <polygon id="路径" fill="#000000" opacity="0.1" points="187.952128 229.281915 211.569149 252.898936 207.944705 229.281915"></polygon>
                <rect id="矩形" fill="#444053" opacity="0.1" x="77.7393617" y="82.6595745" width="208.617021" height="6.88829787"></rect>
                <rect id="矩形" fill="#6BB4AB" x="79.7074468" y="83.643617" width="4.92021277" height="4.92021277" rx="0.78"></rect>
                <rect id="矩形" fill="#6BB4AB" opacity="0.3" x="149.574468" y="83.643617" width="62.9787234" height="4.92021277" rx="0.58"></rect>
                <path d="M211.421447,87.0949948 L211.241135,87.0949948 L211.175916,87.0410218 C211.399137,86.7711694 211.522496,86.4319746 211.52503,86.0810746 C211.520782,85.2741343 210.866375,84.623439 210.063367,84.6276802 C209.260359,84.631963 208.612829,85.2895684 208.617042,86.0965087 C208.621296,86.9034491 209.275691,87.5541566 210.078699,87.5499096 C210.426228,87.5446166 210.761675,87.4209263 211.030132,87.1990855 L211.095351,87.2530584 L211.095351,87.4342533 L212.219423,88.5638298 L212.553191,88.2245713 L211.421447,87.0949948 Z M210.078699,87.0949948 C209.668359,87.0965538 209.297632,86.849154 209.139884,86.4684892 C208.982137,86.0878245 209.068545,85.6491277 209.358701,85.3575507 C209.648857,85.0659737 210.085416,84.9791425 210.464226,85.1376627 C210.843035,85.2961829 211.089229,85.6687253 211.087678,86.0810746 C211.089741,86.3506132 210.984101,86.6097143 210.794432,86.8003125 C210.604762,86.9909108 210.346924,87.0970682 210.078699,87.0949948 L210.078699,87.0949948 Z" id="形状" fill="#444053"></path>
                <circle id="椭圆形" fill="#6BB4AB" cx="282.912234" cy="86.1037234" r="2.46010638"></circle>
                <path d="M230.137746,116.117021 L133.957999,116.117021 C130.626784,116.117021 127.925532,118.627685 127.925532,121.723293 L127.925532,174.473515 C127.925532,177.569124 130.626784,180.079787 133.957999,180.079787 L230.137746,180.079787 C233.468961,180.079787 236.170213,177.569124 236.170213,174.473515 L236.170213,121.723293 C236.170213,118.627685 233.468961,116.117021 230.137746,116.117021 Z" id="路径" fill="#000000" opacity="0.1"></path>
                <rect id="矩形" fill="#454B69" x="131.861702" y="112.180851" width="100.37234" height="63.962766" rx="18.67"></rect>
                <rect id="矩形" fill="#6BB4AB" opacity="0.3" x="142.68617" y="149.574468" width="15.7446809" height="4.92021277" rx="2.46010638"></rect>
                <rect id="矩形" fill="#6BB4AB" opacity="0.3" x="163.351064" y="149.574468" width="15.7446809" height="4.92021277" rx="2.46010638"></rect>
                <rect id="矩形" fill="#6BB4AB" opacity="0.3" x="173.191489" y="159.414894" width="13.7765957" height="4.92021277" rx="2.46010638"></rect>
                <rect id="矩形" fill="#6BB4AB" opacity="0.3" x="185" y="149.574468" width="15.7446809" height="4.92021277" rx="2.46010638"></rect>
                <rect id="矩形" fill="#6BB4AB" opacity="0.3" x="205.664894" y="149.574468" width="15.7446809" height="4.92021277" rx="2.46010638"></rect>
                <rect id="矩形" fill="#6BB4AB" x="141.702128" y="118.085106" width="30.5053191" height="4.92021277" rx="2.46010638"></rect>
                <path d="M237.14973,202.417809 C237.130197,201.855089 237.061832,201.292369 236.993468,200.73292 C236.742797,198.632534 236.485615,196.532148 236.078682,194.461206 C236.006779,194.057177 235.897798,193.660707 235.753136,193.276876 C235.60664,192.913725 235.404801,192.580019 235.251795,192.22014 C235.253194,192.207091 235.253194,192.193929 235.251795,192.18088 C235.440612,192.089275 235.626173,191.997669 235.808479,191.89952 C235.940281,191.832268 236.066557,191.754594 236.186113,191.667234 C236.306399,191.58004 236.407291,191.468618 236.48236,191.340071 C236.807906,190.764265 236.443294,190.03142 236.277266,189.377094 L236.277266,189.377094 C236.101471,188.673693 236.140536,187.829613 235.626173,187.358498 C233.790091,185.722683 234.701621,182.385621 233.783581,180.043134 C233.620807,179.634181 233.435246,179.23177 233.295261,178.813002 C233.187831,178.485839 233.112955,178.158676 233.034824,177.831513 C232.383731,175.105155 231.697914,172.390793 230.977371,169.688426 C230.218848,166.887911 230.300235,163.969618 229.349639,161.234535 C229.170153,160.667562 228.93572,160.119663 228.649715,159.598721 C228.33141,159.056005 227.900618,158.588485 227.386595,158.227908 C225.999767,157.266049 224.603173,156.44487 222.975442,156.094805 C221.34771,155.744741 219.589759,155.800359 217.929473,155.806902 C217.33476,154.977994 216.517124,154.336754 215.572517,153.958431 L215.543218,153.873369 C215.410373,153.542114 215.307942,153.199348 215.237205,152.849349 C215.183975,152.502921 215.156769,152.152959 215.155818,151.802427 C215.155818,151.42619 215.139541,151.046681 215.129774,150.670443 L215.220927,150.582109 C215.438797,150.351121 215.639033,150.103958 215.819933,149.842721 C215.994296,149.595965 216.146801,149.334324 216.275697,149.060801 C216.421792,148.750488 216.545811,148.430156 216.64682,148.102214 C216.844773,147.439447 216.978864,146.75909 217.047242,146.070532 C217.13514,145.262439 217.161184,144.434717 217.183972,143.626625 C217.183972,143.463043 217.183972,143.299462 217.183972,143.132609 L217.183972,143.011558 C217.183972,142.880693 217.183972,142.753099 217.183972,142.625506 L217.183972,142.582975 C217.211017,141.747411 217.001006,140.921353 216.578456,140.201228 C215.989217,139.317888 214.980023,138.892576 214.006639,138.53924 C212.053361,137.858742 209.908011,137.410528 207.977521,138.140102 C206.444197,138.722452 205.220143,139.991844 203.706353,140.636355 L203.706353,140.636355 C203.741017,140.694586 203.772533,140.754653 203.800761,140.816295 C203.80135,140.825009 203.80135,140.833753 203.800761,140.842468 C203.826805,140.901357 203.849593,140.956975 203.869126,141.015864 L203.869126,141.015864 C203.918227,141.148301 203.954211,141.285282 203.976556,141.424818 L203.976556,141.424818 C204.020509,141.689077 204.020509,141.958836 203.976556,142.223095 C203.519527,142.428869 203.01477,142.5036 202.518108,142.439023 C202.705572,143.055171 203.01817,143.625544 203.436149,144.114097 C203.569623,144.284222 203.709608,144.44126 203.843082,144.6212 L204.048176,144.876387 C204.397036,145.287521 204.681369,145.749788 204.891341,146.2472 C204.968448,146.444059 205.021996,146.649431 205.050859,146.858995 C205.112713,147.274492 205.096436,147.75215 205.151778,148.167647 C205.172659,148.346311 205.21756,148.521302 205.285252,148.687836 C205.537962,150.436619 206.614308,151.955616 208.176104,152.767558 C208.387701,154.060985 208.387701,155.380457 208.176104,156.673884 C208.176104,156.74586 208.15006,156.817835 208.133783,156.889811 C207.248297,158.01198 206.398621,159.19631 205.308041,160.073107 C204.812003,160.463626 204.281301,160.807503 203.72263,161.100399 C203.394612,161.290505 203.043311,161.436782 202.677626,161.535525 C202.267438,161.630403 201.837717,161.617316 201.430784,161.718737 C200.644687,161.969612 199.982647,162.510994 199.578425,163.233501 C199.37258,163.615412 199.144294,163.984669 198.894777,164.339312 C198.666895,164.623944 198.380414,164.856229 198.13951,165.127775 C197.267046,166.109264 197.029397,167.529151 196.837325,168.857432 C196.158761,169.610681 195.414648,170.301555 194.613843,170.921831 C194.363248,171.122135 194.084619,171.284189 193.786955,171.40276 C193.018666,171.661219 192.175501,171.330785 191.508131,170.833497 C190.840761,170.336209 190.319886,169.681883 189.675305,169.171509 L189.506021,169.423424 C189.457763,169.375598 189.413146,169.324198 189.372547,169.269658 C189.108278,168.89553 188.925265,168.469726 188.835395,168.019895 C188.601002,166.812664 189.043745,165.52037 188.698666,164.345855 C188.571702,163.920543 188.265689,163.482145 187.842479,163.49196 C187.419268,163.501775 187.155576,163.927087 186.790964,164.126656 C186.20498,164.453819 185.488778,164.156101 184.909306,163.832209 C184.329833,163.508318 183.668974,163.145167 183.034159,163.338193 C183.00946,163.765612 183.18977,164.179101 183.519223,164.450547 C183.846239,164.710584 184.114739,165.037283 184.307045,165.409135 C184.402109,165.815091 184.438293,166.232724 184.414476,166.649082 C184.479585,167.604398 185.065568,168.425577 185.632019,169.171509 C186.335199,170.07666 187.070934,170.955638 187.839223,171.808442 L187.839223,171.808442 C187.747087,171.970948 187.602314,172.09681 187.429035,172.16505 C187.38515,172.320104 187.38515,172.484383 187.429035,172.639436 C187.461206,172.746454 187.502598,172.850449 187.552742,172.950241 C187.627618,173.104008 187.718771,173.254503 187.796902,173.395183 L188.93957,175.413778 L189.125131,175.740941 C189.203262,175.87835 189.281394,176.009215 189.36278,176.143352 C189.632097,176.613349 189.951965,177.052197 190.316631,177.452004 C190.498417,177.644197 190.69911,177.817387 190.915636,177.968921 C191.056582,178.070713 191.20577,178.160452 191.361635,178.237195 C191.579391,178.348969 191.811725,178.429368 192.051793,178.476024 C192.169675,178.501329 192.289462,178.51665 192.409894,178.521826 C192.534496,178.531626 192.65967,178.531626 192.784272,178.521826 C193.159536,178.469112 193.527604,178.373619 193.881364,178.237195 C196.059269,177.468362 198.058123,176.241501 200.128598,175.197851 C200.413361,175.037829 200.719118,174.918883 201.036873,174.844515 C201.144107,174.823837 201.253277,174.81506 201.362419,174.818342 C201.472973,174.821648 201.582535,174.840366 201.687965,174.873959 C201.791989,174.909047 201.890611,174.958603 201.980957,175.021183 C202.163511,175.144563 202.290852,175.334761 202.335802,175.551187 C202.397656,175.87835 202.456255,176.182611 202.514853,176.496688 C202.573451,176.810764 202.638561,177.124841 202.70367,177.438917 C202.833888,178.063798 202.973873,178.68868 203.136647,179.307018 C203.224544,179.634181 203.309186,179.980973 203.393828,180.321223 C203.602178,181.152217 203.807272,181.989754 203.996089,182.827291 C204.054687,183.089021 204.11003,183.354023 204.162118,183.615754 C204.25907,184.081257 204.328641,184.552097 204.370467,185.025826 C204.371901,185.036684 204.371901,185.047685 204.370467,185.058543 C204.403022,185.470768 204.406277,185.879722 204.409533,186.291947 L204.409533,187.584241 L204.442087,191.398961 C204.442087,191.948595 204.149096,192.292116 203.917958,192.786132 C203.872381,192.887552 203.83006,192.992244 203.79425,193.096937 L203.79425,193.096937 L203.79425,193.096937 C203.750464,193.229902 203.71459,193.365369 203.68682,193.502619 C203.68682,193.54515 203.667287,193.590953 203.660776,193.633484 C203.654265,193.676015 203.660776,193.734904 203.641243,193.783979 C203.621711,193.833053 203.641243,193.882128 203.624966,193.927931 C203.608689,193.973733 203.624966,194.026079 203.624966,194.071882 C203.624966,194.117685 203.624966,194.176574 203.624966,194.22892 C203.624966,194.281267 203.624966,194.320526 203.624966,194.363057 C203.624966,194.405588 203.624966,194.477564 203.624966,194.533182 C203.624966,194.5888 203.624966,194.614973 203.624966,194.654232 C203.624966,194.693492 203.647754,194.781826 203.657521,194.847258 L203.677053,194.945407 C203.699842,195.040285 203.72263,195.135162 203.755185,195.230039 C203.820294,195.426337 203.90168,195.619363 203.986323,195.809118 C204.070965,195.998872 204.155607,196.191898 204.227227,196.388196 C204.272642,196.51263 204.311757,196.639295 204.344423,196.767705 C204.352483,196.796782 204.359003,196.826268 204.363956,196.856039 C204.39,196.95746 204.412788,197.05888 204.432321,197.163572 L204.432321,197.235548 C204.451854,197.346784 204.468131,197.461291 204.481153,197.562711 C204.482754,197.575748 204.482754,197.588934 204.481153,197.601971 C204.481153,197.729564 204.507197,197.857158 204.513708,197.984751 L204.513708,197.984751 C204.543007,198.449323 204.536496,198.923709 204.513708,199.391552 L204.474642,201.720952 L204.474642,201.792928 L204.474642,201.792928 C204.471041,201.865554 204.486773,201.937831 204.520219,202.002313 C204.567661,202.07695 204.650218,202.121529 204.738335,202.120091 C204.903362,202.108028 205.060994,202.046485 205.190844,201.943423 L206.226081,201.187677 L206.291191,201.187677 C205.474069,202.532317 204.819721,204.014365 204.692758,205.594562 C204.643558,206.638036 204.710163,207.68377 204.891341,208.712425 C205.845192,215.582847 208.091462,222.51543 207.61942,229.451285 C207.433858,232.183096 208.560249,234.846203 208.553738,237.581285 C208.553738,238.644565 208.374687,239.698029 208.329111,240.758037 C208.130528,245.312146 210.441907,249.9186 209.501078,254.368017 C209.826624,255.473828 211.060445,256.062721 211.408779,257.161988 C211.701771,258.094403 211.278561,259.085707 210.936737,259.998491 C210.813683,260.31661 210.718905,260.645056 210.653512,260.97998 C209.706172,260.97998 208.654657,260.99961 208.023097,261.264612 C207.848029,261.322209 207.677233,261.392179 207.51199,261.473996 C206.929262,261.824061 206.890196,262.782648 207.258063,263.361727 C207.625931,263.940805 209.69315,265.789276 210.298666,266.093537 L211.62364,266.747863 C212.334596,267.151686 213.103222,267.443007 213.902465,267.611574 C214.575183,267.686768 215.254782,267.67357 215.924107,267.572314 C216.441726,267.516696 217.014688,267.431634 217.35,267.006322 C217.822043,266.404342 217.581138,265.426125 217.258847,264.555871 C217.377959,264.460422 217.470017,264.335189 217.525795,264.192721 C217.583032,263.964863 217.612547,263.730867 217.613693,263.495863 C217.70927,263.04095 217.86473,262.600861 218.075969,262.187212 C218.619631,260.855658 218.596843,259.357252 218.564288,257.90792 C218.57025,255.551464 218.40924,253.197572 218.08248,250.864101 C217.919707,249.882612 217.698335,248.901124 217.509518,247.919635 C216.814831,244.365234 216.516742,240.744062 216.620777,237.123257 C216.632567,236.24393 216.510711,235.367948 216.25942,234.525583 C216.152677,234.039273 216.124102,233.538924 216.174778,233.043535 L216.565434,227.053181 C216.676587,225.834965 216.695089,224.610001 216.620777,223.388956 C216.565434,222.73463 216.458003,222.080304 216.392894,221.425978 C216.294135,220.178752 216.273477,218.926521 216.33104,217.67669 C216.36685,216.33205 216.428704,214.889262 217.193738,213.809624 C217.272548,213.669596 217.40385,213.567096 217.55835,213.524992 C217.714612,213.502091 217.760189,213.714747 217.701591,213.852155 C217.782977,214.100799 217.867619,214.346171 217.952261,214.594815 C217.978305,214.666791 218.001093,214.735495 218.027137,214.804199 C218.069458,214.931793 218.115034,215.059386 218.160611,215.18698 C218.206187,215.314574 218.22572,215.363648 218.255019,215.451982 L218.381982,215.779145 C218.417793,215.877294 218.456858,215.972171 218.492668,216.067048 C218.528478,216.161926 218.574055,216.273161 218.616376,216.374582 C218.658697,216.476002 218.701018,216.577423 218.746594,216.678843 C218.792171,216.780264 218.824725,216.865326 218.867046,216.960203 L219.023309,217.287366 C219.062374,217.369157 219.10144,217.454219 219.143761,217.53601 C219.186082,217.617801 219.270724,217.774839 219.335833,217.892618 C219.371643,217.961322 219.407453,218.030026 219.446519,218.095459 C219.550694,218.27867 219.658124,218.455338 219.772065,218.632006 L219.772065,218.632006 C219.993437,218.959169 220.231086,219.286332 220.423158,219.636396 C220.491011,219.751471 220.55189,219.870557 220.605464,219.993004 C220.785694,220.444935 220.928337,220.911103 221.03193,221.386718 C221.145871,221.818573 221.279345,222.240614 221.425841,222.656111 C221.572337,223.071607 221.751387,223.487104 221.910905,223.892787 C221.998802,224.095628 222.089955,224.298469 222.181108,224.498038 C222.454567,225.103289 222.750815,225.698726 223.050317,226.287619 C223.102874,226.392004 223.144338,226.501664 223.174025,226.614782 C223.189066,226.669681 223.201022,226.725387 223.209835,226.781636 C223.221769,226.89036 223.221769,227.000074 223.209835,227.108798 C223.20618,227.176968 223.197474,227.24477 223.183791,227.31164 C223.164417,227.412509 223.134969,227.511157 223.095894,227.606086 C222.695472,228.525414 223.017763,229.431656 223.193558,230.334625 C223.34725,231.286403 223.421299,232.249452 223.414929,233.213659 C223.414929,233.540822 223.414929,233.867985 223.444228,234.172247 C223.444228,234.571386 223.444228,234.967253 223.467017,235.366392 C223.489805,235.765531 223.467017,236.223559 223.489805,236.652142 C223.496964,237.081375 223.479573,237.510666 223.437717,237.937893 C223.437717,238.088388 223.398652,238.235611 223.375864,238.382834 C223.304243,238.824504 223.203324,239.262903 223.115426,239.691486 C222.790355,241.416658 222.639837,243.170462 222.666172,244.926094 C222.666172,245.630584 222.688961,246.336166 222.734537,247.042838 C222.773603,247.752782 222.828946,248.459454 222.890799,249.169397 C222.923354,249.558721 222.96242,249.948045 223.001485,250.337369 C223.066594,251.011325 223.138215,251.68528 223.209835,252.359236 C223.281455,253.033192 223.359586,253.775852 223.427951,254.479252 C223.496316,255.182653 223.558169,255.886053 223.607001,256.586182 C223.637488,256.933245 223.564988,257.281607 223.398652,257.5873 C223.332929,257.708519 223.278441,257.835558 223.235879,257.966809 C223.205538,258.057701 223.181605,258.150627 223.164258,258.244898 C223.14517,258.353134 223.132128,258.462359 223.125193,258.572061 C223.1171,258.801796 223.130178,259.03179 223.164258,259.259103 C223.181621,259.37252 223.201154,259.481574 223.222857,259.586266 C223.271689,259.812008 223.330287,260.037751 223.388885,260.260222 C223.523074,260.876688 223.742219,261.471317 224.039978,262.026902 C224.10336,262.1412 224.175182,262.250561 224.254839,262.354065 C224.277627,262.386781 224.303671,262.416226 224.329714,262.448942 C224.39697,262.52761 224.45896,262.610673 224.515276,262.697586 C224.541897,262.737927 224.564781,262.780637 224.583641,262.825179 C224.650516,263.00615 224.664079,263.202655 224.622706,263.391171 C224.586896,263.587469 224.518531,263.783767 224.466444,263.97025 L224.466444,263.97025 L224.635728,263.993151 C224.398079,264.748898 224.287393,265.524274 224.687815,266.031376 C225.013362,266.456688 225.59609,266.541751 226.113708,266.597368 C226.782748,266.701377 227.462566,266.715679 228.135351,266.6399 C228.934594,266.471333 229.70322,266.180012 230.414176,265.776189 L231.739149,265.121863 C232.344666,264.817602 234.40863,262.982218 234.776497,262.386781 C235.144364,261.791344 235.102043,260.852387 234.525826,260.502322 C234.361014,260.418635 234.190161,260.347548 234.014718,260.289666 C233.428735,260.044294 232.481395,260.021393 231.595909,260.008306 C231.550333,259.681143 231.524289,259.324536 231.511267,258.987558 C231.452072,257.735406 231.475998,256.480681 231.582887,255.231727 C231.657763,254.345115 231.771704,253.461775 231.761938,252.575164 C231.761938,251.390834 231.517778,250.21959 231.390815,249.041804 C231.263852,247.864017 231.25083,246.712403 231.231297,245.547703 C231.201998,243.833369 231.703339,242.200826 231.921455,240.506122 L232.302345,237.525667 C232.366265,237.163775 232.375046,236.794218 232.328388,236.429671 C232.26979,236.102508 232.120039,235.775345 232.058185,235.448182 C231.924711,234.705523 232.260024,233.969406 232.364198,233.220203 C232.484651,232.359764 232.299089,231.486239 232.178637,230.622529 C232.020713,229.258669 231.945699,227.8864 231.95401,226.513362 C231.836813,218.072557 231.599165,209.441998 228.7604,201.544284 C228.646459,201.217121 228.522751,200.889958 228.395788,200.585697 C228.45314,200.570127 228.509645,200.551562 228.565072,200.530079 C228.653694,200.497045 228.737894,200.453087 228.815743,200.399214 C228.850352,200.378173 228.883035,200.354086 228.913407,200.327238 C229.004103,200.236396 229.070216,200.123785 229.105479,200.000075 C229.143616,199.880558 229.163376,199.755891 229.164078,199.630381 C229.160084,199.409153 229.128364,199.189312 229.069669,198.976055 L229.030604,198.841918 C228.965494,198.619447 228.893874,198.400248 228.818999,198.187592 L228.818999,198.187592 C228.747378,197.974936 228.669247,197.768824 228.587861,197.559439 C228.418248,197.171329 228.281046,196.769716 228.177672,196.358751 C227.979089,195.429609 228.177672,194.356514 227.620988,193.600768 C226.390423,191.906063 227.259632,189.301846 226.745268,187.237448 C226.575984,186.583122 226.328569,185.928796 226.172307,185.27447 C226.074643,184.855701 226.012789,184.427118 225.950935,183.998535 C225.788104,183.07186 225.707486,182.132484 225.710031,181.191476 C225.710031,180.720362 225.781651,180.249247 225.836994,179.781404 L226.22765,176.535947 C226.664105,177.375595 226.975606,178.275058 227.152201,179.205597 C227.1815,179.339734 227.207544,179.470599 227.236843,179.604736 C227.588811,181.205482 228.023461,182.786728 228.539029,184.342056 C228.835276,185.281013 229.128268,186.216699 229.447303,187.145842 C229.541712,187.410844 229.632865,187.679118 229.717507,187.950663 C229.800592,188.221972 229.865842,188.498475 229.912834,188.778385 C229.948644,189.000856 229.964922,189.22987 229.981199,189.455613 C229.997476,189.681355 230.010498,189.913641 230.033287,190.139383 C230.139712,191.10563 230.462478,192.035114 230.977371,192.858108 C230.993644,192.879137 231.008856,192.900976 231.022947,192.92354 C231.110597,193.082511 231.251238,193.205314 231.420114,193.270333 L231.420114,193.270333 C231.537147,193.294761 231.657927,193.294761 231.77496,193.270333 L231.794492,193.270333 C231.967032,193.234345 232.139571,193.195085 232.308856,193.152554 C232.334179,193.147509 232.359182,193.140954 232.383731,193.132925 C232.461862,194.14713 232.761365,195.158063 232.787409,196.182083 C232.819963,197.670675 232.276301,199.097105 231.931222,200.539894 C231.640647,201.856551 231.445889,203.19273 231.348494,204.537825 C231.303952,204.804177 231.320656,205.07724 231.397326,205.336103 C231.473881,205.595206 231.722047,205.763756 231.98982,205.738514 C232.175011,205.675919 232.326717,205.540006 232.409775,205.362276 C232.797023,204.715328 232.926133,203.945009 232.771131,203.206272 C233.0804,203.271705 233.239918,203.628312 233.314794,203.952204 C233.51273,204.791912 233.465253,205.671192 233.178064,206.484445 C232.985992,207.027536 232.689745,207.528095 232.526972,208.087544 C232.468425,208.261554 232.468425,208.450081 232.526972,208.624091 C232.689745,209.000328 233.204108,208.974155 233.575231,208.836747 C234.788139,208.339768 235.773449,207.406714 236.339119,206.219443 C236.915422,205.038201 237.193801,203.732649 237.14973,202.417809 Z" id="路径" fill="url(#linearGradient-1)"></path>
                <path d="M217.203326,267.08899 C216.861276,267.45951 216.276276,267.534188 215.745621,267.583016 C215.060482,267.671848 214.365676,267.683427 213.677342,267.617483 C212.865782,267.470421 212.082723,267.216862 211.353326,266.864955 L209.997916,266.290506 C209.380949,266.023387 207.271113,264.420675 206.8939,263.900799 C206.516686,263.380923 206.555047,262.562333 207.149637,262.255003 C207.319568,262.183155 207.494723,262.121739 207.6739,262.071179 C208.671277,261.715021 210.691604,261.895972 211.752916,261.758104 C212.279108,261.735944 212.80172,261.846371 213.261768,262.076924 C214.310293,262.493399 216.157998,262.823707 216.615129,263.883565 C216.969965,264.699283 217.941768,266.281889 217.203326,267.08899 Z" id="路径" fill="#2F2E41"></path>
                <path d="M225.622614,265.10418 C225.964451,265.473323 226.549088,265.547724 227.079414,265.596371 C228.590397,265.84936 230.152463,265.593577 231.465789,264.878116 L232.820358,264.305802 C233.440137,264.039676 235.548664,262.442919 235.925644,261.924975 C236.302623,261.40703 236.264286,260.588621 235.66687,260.285295 C235.498998,260.211949 235.324866,260.150709 235.146127,260.102154 C234.149369,259.747319 232.130295,259.927598 231.069642,259.790243 C230.542657,259.767163 230.01904,259.877227 229.558531,260.107877 C228.513852,260.522805 226.683267,260.851886 226.210446,261.907805 C225.846246,262.723353 224.871851,264.300079 225.622614,265.10418 Z" id="路径" fill="#2F2E41"></path>
                <path d="M228.450682,199.486883 C228.79096,200.130565 229.087798,200.795589 229.339272,201.477639 C232.361144,209.335889 232.614076,217.934124 232.740542,226.339177 C232.729278,227.705959 232.808208,229.07202 232.976834,230.428741 C233.1033,231.289874 233.309639,232.157556 233.173189,233.018689 C233.063363,233.761949 232.707261,234.495386 232.840383,235.232096 C232.903616,235.559524 233.063363,235.886951 233.126596,236.214378 C233.176458,236.577032 233.166343,236.945235 233.096644,237.30471 L232.693949,240.271199 C232.460985,241.960723 231.928497,243.584761 231.95845,245.290656 C231.978418,246.453022 231.998386,247.615388 232.12818,248.771206 C232.32129,249.935952 232.453477,251.109687 232.524218,252.287773 C232.524218,253.171826 232.411065,254.052605 232.331191,254.933384 C232.219141,256.176619 232.193566,257.425935 232.254646,258.672601 C232.301239,259.631962 232.414393,260.637163 232.920257,261.445908 C232.337848,262.264476 231.765422,262.997912 230.836896,263.410471 C228.94989,264.22249 226.783328,263.947451 224.743231,263.656041 C224.856385,263.286048 225.029444,262.866942 224.866369,262.51332 C224.771905,262.342443 224.654355,262.184938 224.516924,262.0451 C224.072963,261.421547 223.763737,260.715022 223.608365,259.969212 C223.362089,259.081885 223.115813,258.129072 223.608365,257.281036 C223.781608,256.983198 223.859331,256.640807 223.831345,256.298754 C223.408682,250.732494 222.14735,244.956681 223.30884,239.485374 C223.431978,238.902554 223.578413,238.319734 223.641646,237.727091 C223.704329,236.875002 223.715442,236.019999 223.674926,235.166611 L223.688238,233.945308 C223.628334,232.678165 223.688238,231.37828 223.421994,230.124234 C223.238951,229.227084 222.892834,228.323385 223.318825,227.406589 C223.504648,226.983873 223.481304,226.500366 223.255592,226.096881 C222.358972,224.552147 221.637985,222.914967 221.10567,221.214943 C220.995649,220.740237 220.844216,220.275752 220.653054,219.826653 C220.393818,219.352667 220.095513,218.900393 219.761136,218.474379 C218.76272,217.030425 218.143703,215.357273 217.551309,213.707041 C217.614542,213.55315 217.551309,213.343596 217.401547,213.379613 C217.238089,213.419168 217.097725,213.521854 217.012165,213.664475 C216.20012,214.738436 216.130231,216.172566 216.093622,217.515017 C216.032577,218.75933 216.054812,220.006246 216.160183,221.247686 C216.226744,221.90254 216.343226,222.557394 216.403131,223.212249 C216.481319,224.427738 216.461288,225.647416 216.343226,226.859786 L215.933876,232.799313 C215.875516,233.292759 215.904795,233.792431 216.020405,234.276009 C216.287482,235.111562 216.417794,235.983586 216.406459,236.859409 C216.301711,240.461561 216.623368,244.063471 217.364938,247.592469 C217.564621,248.57475 217.800913,249.537385 217.973972,250.516392 C218.31947,252.838685 218.490773,255.182846 218.486492,257.52988 C218.523101,258.973834 218.546397,260.476724 217.967316,261.786432 C217.740102,262.197486 217.574217,262.638579 217.474764,263.096141 C217.474367,263.330515 217.443044,263.563847 217.381579,263.790286 C217.211848,264.219215 216.715968,264.402575 216.246713,264.500803 C215.386986,264.684342 214.505015,264.746086 213.627535,264.684162 C213.421826,264.682063 213.218863,264.637441 213.031814,264.553191 C212.699008,264.386203 212.532606,264.032582 212.283002,263.767366 C211.747185,263.191094 210.855267,263.014284 210.366043,262.398721 C209.753682,261.625993 210.009942,260.509467 210.366043,259.599219 C210.722145,258.688972 211.178088,257.703417 210.865251,256.773524 C210.495837,255.683192 209.201225,255.093823 208.835139,253.993668 C209.833555,249.560305 207.377452,244.976326 207.587119,240.441461 C207.63704,239.383872 207.823411,238.336105 207.826739,237.278516 C207.826739,234.554322 206.638624,231.902163 206.828323,229.184518 C207.330859,222.279081 204.937989,215.383467 203.926261,208.530418 C203.732708,207.508535 203.661225,206.467897 203.713266,205.429684 C203.863028,203.713966 204.671745,202.119396 205.643537,200.68854 C206.342428,199.663693 207.181097,198.658492 208.335931,198.180449 C209.287754,197.784262 210.352731,197.787536 211.384427,197.794085 C213.96034,197.81373 216.536253,197.833376 219.112166,197.879216 C220.865255,197.854301 222.61626,198.007918 224.337209,198.337614 C225.731663,198.648669 227.03626,199.287152 228.450682,199.486883 Z" id="路径" fill="#2F2E41"></path>
                <g id="编组" opacity="0.1" transform="translate(218.457447, 213.537234)" fill="#000000">
                    <path d="M0.452659574,0.593705674 C0.537817097,0.451576545 0.675808226,0.348967757 0.83643617,0.308333333 C1.00044326,0.28537234 1.04964539,0.495301418 0.987322695,0.636347518 C1.57118794,2.27641844 2.16817376,3.96569149 3.16205674,5.41223404 C3.49379127,5.83815333 3.78895972,6.29133018 4.04441489,6.76693262 C4.23135119,7.21738022 4.38056354,7.68257166 4.49051418,8.15771277 C5.01536247,9.86018995 5.72480972,11.500168 6.60620567,13.0484043 C6.83015291,13.4521918 6.85319385,13.9372643 6.66852837,14.360461 C6.24867021,15.2789007 6.58980496,16.1842199 6.77349291,17.0829787 C7.02606383,18.339273 6.9768617,19.6414894 7.03590426,20.9109043 C7.03590426,21.3078014 7.03590426,21.7046986 7.05886525,22.1015957 C7.10152844,22.9564178 7.09166947,23.8130529 7.02934397,24.6666667 C6.96046099,25.2603723 6.81613475,25.8442376 6.70132979,26.4281028 C5.55984043,31.9092199 6.79973404,37.6855496 7.21631206,43.2716312 C7.24509459,43.6139756 7.16962524,43.9570181 6.9998227,44.2556738 C6.50124113,45.1052305 6.74397163,46.0597518 6.9998227,46.9486702 C7.15041539,47.696614 7.45540697,48.4049095 7.89530142,49.0282801 C8.02297573,49.1709759 8.13309817,49.328451 8.2233156,49.4973404 C8.38404255,49.8515957 8.2233156,50.2714539 8.09867021,50.6421099 C8.98734339,50.7848885 9.8830019,50.880148 10.7818262,50.9274823 C9.61553268,50.9370858 8.45074604,50.8415754 7.30159574,50.6421099 C7.41312057,50.2714539 7.58368794,49.8515957 7.42296099,49.4973404 C7.32985698,49.3261562 7.21399922,49.1683689 7.0785461,49.0282801 C6.64097684,48.4036098 6.33620208,47.6958179 6.18306738,46.9486702 C5.94033688,46.0597518 5.69760638,45.1052305 6.18306738,44.2556738 C6.35381574,43.9573016 6.43042,43.6142974 6.40283688,43.2716312 C5.98625887,37.6953901 4.74308511,31.9092199 5.88785461,26.4281028 C6.00921986,25.8442376 6.1535461,25.2603723 6.21586879,24.6666667 C6.27764966,23.8130496 6.28860281,22.9565135 6.24867021,22.1015957 C6.24867021,21.7046986 6.2322695,21.3078014 6.22242908,20.9109043 C6.16338652,19.6414894 6.22242908,18.339273 5.96001773,17.0829787 C5.77960993,16.1842199 5.43847518,15.2789007 5.85833333,14.360461 C6.04148146,13.9369863 6.0184737,13.4526124 5.79601064,13.0484043 C4.91229842,11.5009007 4.20169153,9.86078479 3.67703901,8.15771277 C3.56708836,7.68257166 3.41787601,7.21738022 3.23093972,6.76693262 C2.97543579,6.29209675 2.68142457,5.8390123 2.3518617,5.41223404 C1.40062057,4.03129433 0.813475177,2.44370567 0.255851064,0.862677305 C0.328014184,0.780673759 0.387056738,0.685549645 0.452659574,0.593705674 Z" id="路径"></path>
                </g>
                <path d="M187.680302,168.834174 C187.45283,167.687841 187.883511,166.460296 187.546852,165.345199 C187.425533,164.942264 187.128303,164.523712 186.718852,164.533083 C186.309402,164.542453 186.0516,164.945388 185.699776,165.135923 C185.132612,165.448275 184.441096,165.164034 183.879998,164.857929 C183.318899,164.551824 182.666812,164.201989 182.060219,164.386277 C181.987428,164.786088 182.248263,165.164034 182.533362,165.442028 C182.846062,165.688096 183.105365,165.998762 183.294636,166.354097 C183.437185,166.722672 183.37046,167.134978 183.400789,167.531665 C183.464482,168.437487 184.007382,169.221491 184.580613,169.927407 C185.479121,171.065112 186.433738,172.154572 187.440698,173.191489 C187.440698,173.191489 188.95718,171.242411 188.935949,170.901947 C188.914719,170.561483 188.396082,170.277242 188.208038,170.021113 C187.949361,169.670341 187.769152,169.265031 187.680302,168.834174 L187.680302,168.834174 Z" id="路径" fill="#A1616A"></path>
                <path d="M237.94152,193.861434 C238.060232,194.244559 238.14893,194.640996 238.206382,195.045247 C238.550701,197.11692 238.767888,199.218189 238.982425,201.316169 C239.038046,201.875191 239.096316,202.437503 239.112207,202.999814 C239.174033,204.339748 238.952134,205.676422 238.468594,206.876802 C237.980358,208.084949 237.146287,209.023147 236.129869,209.507498 C235.817333,209.645609 235.380311,209.671916 235.242583,209.297042 C235.193521,209.123566 235.193521,208.934514 235.242583,208.761038 C235.367068,208.202015 235.618687,207.698894 235.772306,207.156313 C236.014117,206.345731 236.05471,205.463774 235.888845,204.624269 C235.825278,204.295432 235.690199,203.943576 235.427986,203.877809 C235.558676,204.619034 235.44825,205.394346 235.120747,206.034979 C235.04784,206.21409 234.919916,206.349208 234.765833,206.409853 C234.543229,206.438343 234.334363,206.271834 234.262597,206.008672 C234.198908,205.749903 234.185296,205.476128 234.222867,205.209598 C234.30593,203.863239 234.470611,202.526567 234.715509,201.210941 C235.006857,199.767346 235.470364,198.343482 235.438581,196.853851 C235.412095,195.505619 234.980371,194.180406 235.102207,192.84204 C235.097989,192.689174 235.179224,192.552881 235.298204,192.513203 C235.602365,192.35843 235.91476,192.229879 236.233165,192.128463 C236.421216,192.069273 237.062181,191.799626 237.242286,191.918008 C237.422392,192.036389 237.432987,192.61843 237.507148,192.822309 C237.647524,193.161011 237.819684,193.496425 237.94152,193.861434 Z" id="路径" fill="#A1616A"></path>
                <circle id="椭圆形" fill="#A1616A" cx="210.093085" cy="148.098404" r="5.41223404"></circle>
                <path d="M215.69273,151.363101 C215.690245,151.719639 215.719775,152.075734 215.781003,152.427553 C215.863176,152.783382 215.98142,153.130905 216.134096,153.46531 C216.33069,154.011558 216.608917,154.528436 216.960333,155.000256 C217.316734,155.476534 217.852337,155.806017 218.457447,155.921223 C214.413803,157.713274 210.096725,158.892277 205.664894,159.414894 C206.362863,158.976442 206.943148,158.390353 207.359739,157.703095 C207.582607,157.263298 207.733794,156.79417 207.808167,156.311633 C208.187252,154.290628 207.996046,152.210901 207.253811,150.281965 C207.179662,150.095102 207.109043,149.861524 207.253811,149.704692 C207.314262,149.64888 207.386437,149.605682 207.465667,149.577892 C209.220941,148.873607 211.117405,148.538847 213.023348,148.596862 C213.510616,148.596862 213.997884,148.62022 214.485152,148.653588 C214.746441,148.673609 215.321982,148.62022 215.544431,148.800409 C215.766879,148.980598 215.668013,149.688008 215.675075,149.978313 L215.69273,151.363101 Z" id="路径" fill="#A1616A"></path>
                <path d="M218.330612,156.74612 C216.649932,154.626421 213.720309,153.907326 211.227125,155.002523 C208.57657,156.24655 207.284425,159.247236 204.961876,160.984303 C204.433309,161.374358 203.869973,161.716421 203.278774,162.006299 C202.929931,162.195606 202.558081,162.340435 202.172167,162.437301 C201.738139,162.53199 201.287545,162.51893 200.84689,162.62015 C200.023163,162.858611 199.321351,163.395126 198.882166,164.122125 C198.665546,164.502719 198.424288,164.869175 198.15989,165.21922 C197.918027,165.503289 197.616526,165.735116 197.36141,166.006125 C196.437029,166.985674 196.185227,168.389694 195.976495,169.70882 C195.25298,170.458479 194.46357,171.14357 193.617502,171.756078 C193.35208,171.957659 193.057164,172.118393 192.742818,172.232792 C191.931086,172.494005 191.033211,172.164223 190.340753,171.671184 C189.648296,171.178144 189.085053,170.528376 188.402535,170.038602 C187.776341,170.920196 187.120329,171.808321 186.451064,172.650733 C186.351092,172.81462 186.196524,172.939251 186.013722,173.003371 C185.887821,173.421311 186.189322,173.852313 186.414619,174.224542 L187.623934,176.229352 C188.02561,176.958206 188.516298,177.635868 189.085053,178.247224 C189.671841,178.848798 190.46372,179.215155 191.308206,179.27575 C191.842374,179.270957 192.371184,179.170268 192.86872,178.97862 C195.187955,178.214572 197.291833,176.996666 199.495107,175.958344 C199.892584,175.735519 200.337247,175.60696 200.793879,175.58285 C201.262816,175.572304 201.682001,175.869475 201.820969,176.310981 C202.072772,177.564804 202.321261,178.812097 202.665833,180.039798 C202.994944,181.202197 203.298653,182.36786 203.576961,183.536789 C203.763707,184.254318 203.896594,184.984423 203.974545,185.721183 C204.01099,186.139124 204.014303,186.557065 204.020929,186.978271 L204.067314,192.045806 C204.067314,192.594353 203.755874,192.93393 203.510698,193.423705 C203.141249,194.18528 203.08544,195.058267 203.354977,195.859517 C203.490818,196.254602 203.706176,196.6203 203.858583,197.01212 C204.223034,197.955752 204.209781,198.994074 204.189902,200.00301 L204.146831,202.314746 C204.134371,202.411142 204.151691,202.509002 204.196529,202.59555 C204.338996,202.814316 204.683568,202.686974 204.902239,202.536777 L205.985653,201.80538 C207.454059,202.005208 208.937561,202.076232 210.418706,202.017616 C214.629775,201.958843 218.844157,202.122101 223.045287,202.4127 C224.450081,202.510655 225.897946,202.615141 227.223224,202.154752 C227.885862,201.919661 228.515369,201.544167 229.21114,201.358053 C229.495462,201.312154 229.764619,201.200232 229.996367,201.031536 C230.380697,200.682164 230.277988,200.051987 230.122268,199.575273 C229.983114,199.144272 229.827394,198.716535 229.651795,198.298594 C229.473251,197.913762 229.326981,197.515169 229.214453,197.106809 C229.005722,196.186033 229.214453,195.118325 228.628018,194.367337 C227.32262,192.685778 228.247001,190.096503 227.69701,188.049245 C227.521411,187.396212 227.259669,186.74318 227.094009,186.090147 C226.987987,185.672206 226.921723,185.247735 226.858772,184.823263 C226.684737,183.903783 226.599318,182.970144 226.603657,182.034813 C226.603657,181.567895 226.67986,181.100977 226.739497,180.637323 L227.153647,177.411342 C227.670069,178.366158 228.030126,179.395409 228.220495,180.461005 C228.59684,182.05323 229.061382,183.623949 229.612036,185.166105 C229.923476,186.096677 230.234917,187.023984 230.572862,187.948025 C230.789059,188.475739 230.954344,189.022347 231.066528,189.580607 C231.139418,190.027934 231.142732,190.485057 231.195743,190.932385 C231.306804,191.897029 231.647358,192.822213 232.189701,193.632675 C232.291299,193.821046 232.458302,193.967084 232.660174,194.044086 C232.794396,194.073318 232.933475,194.073318 233.067697,194.044086 C234.532927,193.758762 235.95113,193.275301 237.282079,192.607414 C237.564919,192.490449 237.810865,192.301055 237.994416,192.058866 C238.352241,191.484197 237.951344,190.769126 237.775745,190.116094 C237.600146,189.463061 237.633278,188.578202 237.076661,188.111283 C235.131817,186.478701 236.082703,183.17109 235.12519,180.846294 C234.952904,180.438148 234.754113,180.043064 234.608332,179.625123 C234.495684,179.298606 234.412854,178.97209 234.330024,178.645573 C233.651924,175.939841 232.92523,173.243904 232.149943,170.557763 C231.34815,167.775843 231.434293,164.879643 230.423769,162.163027 C230.233998,161.595665 229.986456,161.048685 229.684927,160.530445 C229.346823,159.988585 228.89494,159.524326 228.359649,159.168872 C226.891904,158.212179 225.41422,157.399153 223.688046,157.053046 C221.961872,156.706938 220.086605,156.726529 218.330612,156.74612 Z" id="路径" fill="#3F3D56"></path>
                <path d="M205.865465,149.05101 C205.156108,148.656747 205.342117,147.581486 205.234925,146.770153 C204.985862,145.072544 203.135228,144.068967 202.712766,142.413717 C203.212273,142.477985 203.71933,142.403763 204.181924,142.198665 C204.270563,141.649061 204.165404,141.084831 203.88557,140.608582 C205.408324,139.956909 206.644182,138.715471 208.189004,138.13874 C210.137372,137.412124 212.287513,137.858521 214.267408,138.533003 C215.247898,138.858839 216.26622,139.305235 216.858927,140.178478 C217.508383,141.139696 217.489467,142.400684 217.464245,143.573696 C217.410649,145.411414 217.338137,147.3143 216.54681,148.959776 C215.541099,151.054905 212.687906,152.993633 210.329687,152.426678 C209.35235,152.192075 209.068607,151.553435 208.649298,150.673676 C208.390777,150.126271 208.296196,149.490889 207.703489,149.204153 C207.110781,148.917417 206.442409,149.37033 205.865465,149.05101 Z" id="路径" fill="#3F3D56"></path>
                <g id="编组" opacity="0.1" transform="translate(186.968085, 171.223404)" fill="#000000">
                    <path d="M18.2146277,28.8027162 C18.2133928,28.8127264 18.2133928,28.8228553 18.2146277,28.8328656 C18.3556738,29.057311 18.6968085,28.9266636 18.9132979,28.7725668 L20.002305,28.0054323 C21.4561595,28.2093293 22.9248619,28.2810758 24.3911348,28.219828 C28.560195,28.1595292 32.7325355,28.3270258 36.8917553,28.6251698 C38.2825355,28.7256677 39.7159574,28.8328656 41.0280142,28.3605251 C41.6840426,28.11933 42.3072695,27.7374378 42.9960993,27.5431417 C43.2339463,27.4980983 43.4631847,27.4144047 43.6750887,27.2952467 C43.7538121,27.5163422 43.8292553,27.7374378 43.8981383,27.9652331 C44.052305,28.4710729 44.1539894,29.1008601 43.7734929,29.4593029 C43.5440574,29.632378 43.2775855,29.7472057 42.9960993,29.7942961 C42.3138298,29.9852422 41.6840426,30.3704844 41.0280142,30.6116795 C39.7159574,31.0840199 38.2825355,30.9768221 36.8917553,30.8763241 C32.7325355,30.5781802 28.560195,30.4106836 24.3911348,30.4709823 C22.9269482,30.5307238 21.4604579,30.457857 20.0088652,30.2532368 L18.9198582,31.0237211 C18.7033688,31.177818 18.362234,31.3084654 18.2211879,31.0840199 C18.1767973,30.9952251 18.1596505,30.8948251 18.1719858,30.7959258 C18.1872931,30.1326392 18.2015071,29.468236 18.2146277,28.8027162 Z" id="路径"></path>
                    <path d="M42.0218972,8.34803078 C41.8334277,7.25477082 41.476962,6.19879947 40.9656915,5.21919421 L40.5556738,8.52892712 C40.5294326,8.73662291 40.5031915,8.9443187 40.4802305,9.15201449 C40.4278311,8.67608208 40.4081021,8.1969886 40.4211879,7.71824355 C40.4211879,7.23920326 40.4966312,6.76016297 40.5556738,6.28447261 L40.9656915,2.9747397 C41.476962,3.95434497 41.8334277,5.01031632 42.0218972,6.10357628 C42.3944876,7.73713796 42.8543961,9.34863497 43.3995567,10.9308284 C43.7078901,11.8855591 44.0162234,12.8402897 44.3507979,13.7849706 C44.5644004,14.326541 44.7280242,14.8872967 44.839539,15.4599366 C44.9117021,15.9188773 44.9149823,16.3878678 44.9674645,16.8468085 C45.0755849,17.8369346 45.4128927,18.7865636 45.9515071,19.6172024 C46.0498496,19.8110027 46.2144234,19.9611977 46.4140071,20.0392938 C46.5480818,20.063794 46.6857793,20.0580774 46.8174645,20.0225441 C48.2680774,19.7298134 49.6721325,19.2338004 50.989805,18.548574 C51.1637259,18.4612502 51.3276393,18.3545181 51.4785461,18.2303305 L51.4785461,18.2303305 C51.6523936,18.9003169 52.0492908,19.633952 51.6950355,20.2235401 C51.5133154,20.4720163 51.2698236,20.6663278 50.989805,20.7863287 C49.6721325,21.471555 48.2680774,21.9675681 46.8174645,22.2602988 C46.6845819,22.2902902 46.5468898,22.2902902 46.4140071,22.2602988 C46.2144234,22.1822027 46.0498496,22.0320077 45.9515071,21.8382073 C45.413344,21.0073366 45.0760769,20.0578221 44.9674645,19.0678135 C44.9149823,18.6088728 44.9117021,18.1398823 44.839539,17.6809416 C44.7284737,17.108188 44.5648375,16.5473899 44.3507979,16.0059756 C44.0227837,15.0579448 43.6947695,14.1065641 43.3995567,13.1518334 C42.8551971,11.5773247 42.3952948,9.97367741 42.0218972,8.34803078 L42.0218972,8.34803078 Z" id="路径"></path>
                    <path d="M41.6840426,17.4698959 C41.6840426,17.6172929 41.6840426,17.7680398 41.6840426,17.9187868 C41.6906028,17.7680398 41.6873227,17.6206428 41.6840426,17.4698959 Z" id="路径"></path>
                    <path d="M17.8931738,23.1044817 C18.2539894,24.072612 18.2408688,25.1378904 18.2211879,26.1730195 C18.2211879,26.444364 18.2211879,26.7123585 18.2211879,26.983703 C18.1934369,26.4249743 18.0828403,25.8737795 17.8931738,25.3489362 C17.7422872,24.9469443 17.529078,24.5717519 17.3945922,24.1664101 C17.1649022,23.4568365 17.174139,22.6891992 17.4208333,21.9856043 C17.5553191,22.3674966 17.7488475,22.7259393 17.8931738,23.1044817 Z" id="路径"></path>
                    <path d="M0.67570922,0.321593481 L0.862677305,0.0736985061 L1.84671986,1.74866455 C2.2435705,2.49696205 2.72943203,3.19231576 3.29326241,3.81892259 C3.8673767,4.44698229 4.64938372,4.83496402 5.4876773,4.90765052 C6.01616414,4.90225773 6.53942377,4.80014445 7.03262411,4.60615663 C9.3287234,3.81892259 11.4116135,2.56939792 13.5929078,1.50411951 C13.9796936,1.27495486 14.4129034,1.13970515 14.8590426,1.10882752 C15.3238557,1.09958258 15.738551,1.40560896 15.8758865,1.85921231 C16.1251773,3.14223631 16.3711879,4.42191037 16.7123227,5.68148483 C17.0381501,6.87406066 17.3388298,8.06998642 17.6143617,9.26926211 C17.7992449,10.0054189 17.9308061,10.7544785 18.0079787,11.5103667 C18.0440603,11.939158 18.0473404,12.3712992 18.0506206,12.8000905 L18.0998297,18.0025351 C18.1000757,18.0789208 18.0934879,18.1551702 18.0801418,18.2303305 L18.0506206,15.044545 C18.0506206,14.6124038 18.0506206,14.1836125 18.0079787,13.7548212 C17.9308061,12.998933 17.7992449,12.2498734 17.6143617,11.5137166 C17.3344563,10.3144409 17.0337766,9.11851517 16.7123227,7.92593934 C16.3843085,6.66636487 16.1251773,5.38669081 15.8758865,4.10031689 C15.7383048,3.64734874 15.3233017,3.34246241 14.8590426,3.35328203 C14.4069665,3.37801809 13.9667391,3.50991428 13.573227,3.73852422 C11.401773,4.80380263 9.30904255,6.0533273 7.01294326,6.83721141 C6.52037085,7.03383512 5.99683592,7.13713731 5.46799645,7.14205523 C4.62970287,7.06936873 3.84769585,6.681387 3.27358156,6.0533273 C2.71050045,5.42610015 2.22470769,4.73084486 1.82703901,3.98306926 C1.43014184,3.29633318 1.02996454,2.61294703 0.629787234,1.92621096 C0.406737589,1.5443187 0.108244681,1.10212766 0.232890071,0.673336351 C0.416001414,0.612140254 0.572558208,0.487783084 0.67570922,0.321593481 L0.67570922,0.321593481 Z" id="路径"></path>
                </g>
                <g id="编组" opacity="0.1" transform="translate(202.712766, 139.734043)" fill="#000000">
                    <path d="M1.49176664,1.20519317 L1.49176664,1.20519317 C1.44468281,0.913240061 1.3466595,0.63342313 1.20283499,0.380410134 C1.29077071,0.342256906 1.37870643,0.301859369 1.46664215,0.259217525 C1.53460573,0.56947748 1.54315289,0.891290946 1.49176664,1.20519317 Z" id="路径"></path>
                    <path d="M2.55327637,5.924972 C2.6726177,6.77668673 2.48732458,7.88425252 3.18138864,8.28149496 C3.7529708,8.6181411 4.43761317,8.14347004 4.99977365,8.43298572 C5.56193413,8.7225014 5.67185378,9.38569429 5.94194206,9.9512598 C6.35335559,10.8602044 6.64228723,11.5166643 7.61586125,11.762416 C9.96500113,12.3481803 12.8072091,10.3417693 13.8090482,8.17713466 C14.5973291,6.47707167 14.669562,4.51105823 14.7229516,2.61237402 C14.7229516,2.5181131 14.7229516,2.42721865 14.7229516,2.33295773 C14.7229516,2.69990202 14.7229516,3.07021277 14.7229516,3.43379059 C14.669562,5.3324748 14.5973291,7.29848824 13.8090482,8.99855123 C12.8072091,11.1631859 9.96500113,13.1662304 7.61586125,12.5804661 C6.64228723,12.3380809 6.35963671,11.6782545 5.94194206,10.7693099 C5.68441603,10.2037444 5.59019919,9.54728443 4.99977365,9.25103583 C4.40934812,8.95478723 3.74354912,9.43282475 3.18138864,9.10291153 C2.47476234,8.69556971 2.66005545,7.58463746 2.55327637,6.74638858 C2.30517202,4.99246221 0.461662517,3.95559211 0.0408272974,2.24542973 C0.154288534,2.26176257 0.268670294,2.26963656 0.383148483,2.26899496 C1.05836917,3.51795213 2.34913988,4.48076008 2.55327637,5.924972 Z" id="路径"></path>
                </g>
                <path d="M76.1545329,240.690833 C75.278719,240.212591 74.3350554,239.874531 73.3570746,239.688666 C74.0669316,239.588571 74.7673696,239.429053 75.4511901,239.211751 C77.2684242,238.628496 78.1849976,237.848675 77.4975675,237.465209 C76.8101375,237.081743 74.7764903,237.242864 72.9592562,237.826118 C72.3457542,238.006467 71.7591099,238.26986 71.2152208,238.609162 C71.0274505,238.206362 70.5182431,237.739113 69.7194239,237.294422 C68.1058729,236.395372 65.9353761,235.944236 64.8724056,236.282588 C63.8094351,236.62094 64.2581741,237.626329 65.8749078,238.538269 C66.6641902,238.967832 67.508034,239.285526 68.3827544,239.482433 C67.8019069,239.554688 67.2258841,239.662296 66.6578142,239.804673 C64.6814528,240.284811 63.5357361,241.013074 64.111777,241.415874 C64.6878179,241.818674 66.743743,241.780005 68.7232869,241.299867 C69.4431087,241.141028 70.1402798,240.890931 70.7983072,240.555493 C70.9606171,240.971182 71.4793721,241.467432 72.3195644,241.93468 C73.9331155,242.830508 76.1036122,243.284867 77.1665827,242.946515 C78.2295532,242.608162 77.768084,241.586661 76.1545329,240.690833 Z" id="路径" fill="#6BB4AB"></path>
                <path d="M52.1122839,209.888144 C51.5475338,209.545549 50.9387821,209.304433 50.3080239,209.173507 C50.7669561,209.103162 51.2196831,208.988547 51.6612189,208.830924 C52.8281044,208.414666 53.4197187,207.854745 52.9686537,207.582152 C52.5175887,207.309558 51.2232282,207.423753 50.0530741,207.84001 C49.6596512,207.968663 49.2835848,208.15703 48.9352174,208.399932 C48.6962468,207.986132 48.3555137,207.659727 47.9546413,207.46059 C46.9184993,206.815943 45.5228126,206.491778 44.839678,206.723851 C44.1565433,206.955924 44.4474475,207.685295 45.4933954,208.329941 C46.008131,208.6381 46.5580575,208.864935 47.1276888,209.004057 C46.7527901,209.054227 46.3806782,209.128016 46.0131007,209.225079 C44.7416204,209.567662 44.0061883,210.090747 44.3788072,210.385442 C44.7514261,210.680138 46.0686667,210.646985 47.340147,210.304401 C47.8026955,210.191475 48.2507591,210.013251 48.6737304,209.773949 C48.9004479,210.21007 49.2436428,210.554304 49.6543065,210.757495 C50.6937172,211.402142 52.0894038,211.726307 52.7725384,211.494234 C53.4556731,211.262161 53.1516945,210.53279 52.1122839,209.888144 Z" id="路径" fill="#6BB4AB"></path>
                <ellipse id="椭圆形" fill="#6BB4AB" cx="252.406915" cy="255.359043" rx="10.3324468" ry="2.46010638"></ellipse>
                <ellipse id="椭圆形" fill="#3F3D56" cx="252.898936" cy="254.375" rx="1" ry="1.47606383"></ellipse>
                <ellipse id="椭圆形" fill="#3F3D56" cx="252.898936" cy="253.390957" rx="1" ry="1.47606383"></ellipse>
                <ellipse id="椭圆形" fill="#3F3D56" cx="252.898936" cy="251.422872" rx="1" ry="1.47606383"></ellipse>
                <ellipse id="椭圆形" fill="#3F3D56" cx="252.898936" cy="249.454787" rx="1" ry="1.47606383"></ellipse>
                <ellipse id="椭圆形" fill="#3F3D56" cx="252.898936" cy="246.50266" rx="1" ry="1.47606383"></ellipse>
                <ellipse id="椭圆形" fill="#3F3D56" cx="252.898936" cy="244.534574" rx="1" ry="1.47606383"></ellipse>
                <ellipse id="椭圆形" fill="#3F3D56" cx="252.898936" cy="243.550532" rx="1" ry="1.47606383"></ellipse>
                <path d="M257.537044,229.046799 C257.705271,228.830952 257.858608,228.603748 257.995977,228.366782 L254.757219,227.832012 L258.258225,227.85842 C258.937204,226.370704 258.978694,224.667264 258.372958,223.147817 L253.67217,225.603801 L258.005811,222.395177 C256.896945,220.476047 254.818039,219.339601 252.6158,219.448695 C250.413561,219.55779 248.455459,220.894221 247.538997,222.913681 C246.622535,224.933142 246.900637,227.298661 248.260036,229.046799 C247.997442,229.383754 247.77108,229.747806 247.584748,230.132846 L251.790544,232.331347 L247.30611,230.816164 C247.100401,231.430993 246.995226,232.075385 246.994681,232.724173 C246.992219,234.057638 247.43822,235.352653 248.260036,236.398245 C246.359503,238.834618 246.636926,242.332609 248.897371,244.43434 C251.157817,246.536071 254.64254,246.536071 256.902986,244.43434 C259.163432,242.332609 259.440854,238.834618 257.540322,236.398245 C259.225371,234.241085 259.224016,231.202435 257.537044,229.046799 L257.537044,229.046799 Z" id="路径" fill="#6BB4AB"></path>
                <path d="M246.994681,233.301786 C246.992218,234.577281 247.438308,235.815996 248.260287,236.816132 C246.359377,239.146587 246.636854,242.492507 248.89775,244.502868 C251.158645,246.513228 254.644063,246.513228 256.904958,244.502868 C259.165854,242.492507 259.443331,239.146587 257.542421,236.816132 C258.332599,235.849924 246.994681,232.663962 246.994681,233.301786 Z" id="路径" fill="#000000" opacity="0.1"></path>
                <g id="confguration" transform="translate(212.176744, 37.701045) rotate(-12.000000) translate(-212.176744, -37.701045) ">
                    <use fill="black" fill-opacity="1" filter="url(#filter-3)" xlink:href="#path-2"></use>
                    <use fill="#6772E5" xlink:href="#path-2"></use>
                </g>
                <circle id="椭圆形" fill="#E6E6E6" cx="147.606383" cy="140.718085" r="5.90425532"></circle>
                <path d="M151.97262,143.125688 C151.787981,143.161952 151.611927,143.232153 151.453666,143.33262 C151.298568,143.492973 151.102751,143.609532 150.886522,143.670213 C150.915352,143.479507 151.011321,143.30544 151.156299,143.176808 C151.277702,142.994257 151.365148,142.791872 151.414546,142.579125 C151.413869,142.276705 151.662091,142.030962 151.969064,142.030142 C152.276038,142.029326 152.525606,142.273741 152.526593,142.576161 C152.527574,142.87858 152.279603,143.124567 151.97263,143.125688 L151.97262,143.125688 Z M151.049891,142.414121 C150.867562,142.29232 150.665158,142.204229 150.452167,142.153977 C150.229846,142.153977 150.029416,142.019016 149.944337,141.812027 C149.859259,141.605037 149.906286,141.366781 150.063491,141.208358 C150.220696,141.049935 150.457119,141.002543 150.662516,141.088281 C150.867914,141.174019 151.001837,141.376002 151.001837,141.600046 C151.037657,141.78428 151.107251,141.960167 151.207052,142.118691 C151.36693,142.274452 151.482735,142.470331 151.542551,142.68617 C151.352522,142.655612 151.178939,142.559446 151.051512,142.414131 L151.049485,142.414131 L151.049891,142.414121 Z M150.329602,140.389966 C150.178693,139.209855 148.869804,138.285219 147.286168,138.285219 C145.599067,138.285219 144.226404,139.33344 144.226404,140.622596 C144.253418,141.346444 144.662806,142.010775 145.319495,142.396401 C145.426031,142.469696 145.537498,142.536529 145.653208,142.596487 L145.517504,143.10225 C145.566442,143.123716 145.613903,143.146561 145.663957,143.166295 L146.34918,142.846431 C146.449288,142.870662 146.554599,142.886237 146.659154,142.902853 C146.725899,142.913931 146.792643,142.925353 146.861242,142.932968 C147.288555,142.983265 147.722123,142.960034 148.140468,142.864426 C148.153413,143.037516 148.187242,143.208689 148.241314,143.374694 C147.928208,143.44322 147.607752,143.478178 147.286159,143.478889 C146.997651,143.477369 146.710098,143.447784 146.428159,143.390613 L145.184881,143.97012 C145.088212,144.016285 144.971478,144.004886 144.887133,143.941047 C144.802455,143.877715 144.764964,143.774186 144.791103,143.675874 L145.013573,142.839514 C144.198325,142.355482 143.694668,141.524306 143.670213,140.622596 C143.670213,139.044733 145.289075,137.765957 147.286159,137.765957 C149.18237,137.765957 150.735245,138.920106 150.886522,140.3872 C150.79943,140.374686 150.711673,140.366597 150.623641,140.362969 C150.525379,140.366432 150.427117,140.375081 150.329593,140.389621 L150.329602,140.389966 Z M149.472256,142.574126 C149.657149,142.537589 149.832974,142.467766 149.991093,142.367092 C150.146366,142.206895 150.342274,142.090558 150.558508,142.030142 C150.529038,142.220293 150.433571,142.394475 150.288387,142.522981 C150.166918,142.70566 150.079621,142.908642 150.030213,143.121363 C150.030664,143.423879 149.782404,143.66954 149.47556,143.670213 C149.168715,143.670883 148.919352,143.426311 148.918438,143.123796 C148.917529,142.821281 149.165413,142.575253 149.472256,142.574126 L149.472256,142.574126 Z M150.065912,143.285818 C150.247961,143.40832 150.450416,143.496821 150.663485,143.548031 C150.886358,143.548031 151.087286,143.68279 151.172575,143.889471 C151.257865,144.096152 151.210721,144.334052 151.053126,144.492239 C150.895531,144.650425 150.658521,144.697747 150.452613,144.612137 C150.246705,144.526527 150.11245,144.324845 150.11245,144.101135 C150.07733,143.916951 150.008103,143.741014 149.90836,143.582448 C149.748687,143.426209 149.633427,143.230044 149.574466,143.014184 C149.765144,143.045679 149.938925,143.142893 150.065912,143.2891 L150.065912,143.285818 L150.065912,143.285818 Z" id="形状" fill="#6BB4AB"></path>
            </g>
        </g>
    </g>
</svg>