<?xml version="1.0" encoding="utf-8"?>
<!-- Generator: Adobe Illustrator 22.0.0, SVG Export Plug-In . SVG Version: 6.00 Build 0)  -->
<svg version="1.1" id="图层_1" xmlns="http://www.w3.org/2000/svg" xmlns:xlink="http://www.w3.org/1999/xlink" x="0px" y="0px"
	 viewBox="0 0 748.2 52" style="enable-background:new 0 0 748.2 52;" xml:space="preserve" width="752px" height="52px">
<style type="text/css">
	.st0{fill:#666666;}
	.st1{font-family:'SourceHanSansCN-Regular-GBpc-EUC-H';}
	.st2{font-size:28px;}
	.st3{fill:#6BB4AB;}
	.st4{fill:none;stroke:#666666;stroke-width:2;stroke-linecap:square;}
	.st5{fill:#168AFF;}
	.st6{fill:none;stroke:#FFFFFF;stroke-width:0.25;stroke-miterlimit:10;}
</style>
<title>编组 3</title>
<desc>Created with Sketch.</desc>
<text transform="matrix(1 0 0 1 250.2172 37)" class="st0 st1 st2">企业微信第三方工具，私域运营 so</text>
<text transform="matrix(1 0 0 1 689.6528 37)" class="st3 st1 st2">easy</text>
<path id="直线" class="st4" d="M236.7,13v26.8"/>
<g>
	<g>
		<path class="st3" d="M67.4,26.4c0-7.9,5.4-12.9,11-12.9c6.2,0,9.7,4.5,9.7,11.5c0,0.9-0.1,1.8-0.2,2.3H71.5
			c0.3,5.2,3.5,8.5,8.1,8.5c2.4,0,4.3-0.7,6.1-1.9l1.5,2.7c-2.2,1.4-4.8,2.5-8.1,2.5C72.7,39.2,67.4,34.5,67.4,26.4z M84.6,24.5
			c0-4.9-2.2-7.6-6.1-7.6c-3.5,0-6.5,2.8-7,7.6H84.6z"/>
		<path class="st3" d="M91.5,32.3c0-5.3,4.6-8,15-9.1c0-3.1-1-6.2-5-6.2c-2.8,0-5.4,1.3-7.3,2.6l-1.6-2.8c2.2-1.4,5.7-3.2,9.6-3.2
			c5.9,0,8.5,4,8.5,10v15h-3.4l-0.4-2.9h-0.1c-2.3,1.9-5.1,3.5-8.1,3.5C94.6,39.2,91.5,36.7,91.5,32.3z M106.5,32.7v-6.8
			c-8.2,1-11,3-11,6.2c0,2.8,1.9,3.9,4.3,3.9C102.2,35.9,104.1,34.8,106.5,32.7z"/>
		<path class="st3" d="M115.2,35.8l2-2.7c2.1,1.7,4.3,2.9,7.2,2.9c3.2,0,4.8-1.7,4.8-3.8c0-2.5-2.9-3.6-5.6-4.6
			c-3.4-1.3-7.3-2.9-7.3-7.1c0-3.9,3.1-6.9,8.4-6.9c3,0,5.7,1.3,7.6,2.7l-2,2.7c-1.7-1.3-3.4-2.2-5.6-2.2c-3.1,0-4.5,1.6-4.5,3.5
			c0,2.3,2.7,3.2,5.4,4.2c3.6,1.3,7.5,2.8,7.5,7.4c0,4-3.1,7.2-8.9,7.2C120.9,39.2,117.5,37.8,115.2,35.8z"/>
		<path class="st3" d="M136.1,48.7l0.8-3.3c0.5,0.2,1.2,0.4,1.8,0.4c2.8,0,4.5-2.2,5.5-5.3l0.5-1.8L135,14.2h4.3l5,13.6
			c0.7,2.1,1.6,4.6,2.3,6.8h0.2c0.7-2.2,1.4-4.7,2.1-6.8l4.4-13.6h4L148,40.7c-1.7,4.8-4.2,8.5-9.1,8.5
			C137.8,49.2,136.8,49,136.1,48.7z"/>
		<path class="st5" d="M160.7,6.5c0-1.7,1.2-2.7,2.8-2.7s2.8,1,2.8,2.7c0,1.5-1.2,2.7-2.8,2.7S160.7,8.1,160.7,6.5z M161.5,14.2h4.1
			v24.4h-4.1V14.2z"/>
		<path class="st5" d="M173.4,14.2h3.4l0.4,3.5h0.1c2.3-2.3,4.9-4.1,8.2-4.1c5.1,0,7.5,3.3,7.5,9.6v15.5h-4.1v-15
			c0-4.6-1.4-6.5-4.6-6.5c-2.5,0-4.2,1.3-6.7,3.7v17.7h-4.1L173.4,14.2L173.4,14.2z"/>
		<path class="st5" d="M200.4,2.8h4v24.3h0.1L215,14.2h4.5l-8.2,9.8l9.3,14.6h-4.5L209,26.8l-4.6,5.4v6.4h-4V2.8z"/>
	</g>
	<g>
		<path class="st3" d="M29.2,0.5C13.1,0.5,0,11.8,0,25.4v0.2h7.8c0.2,9.8,9.5,18,21.2,18v6.5h0.2c16,0,29.2-11.3,29.2-24.9
			C58.4,11.5,45.2,0.5,29.2,0.5z M32.3,47.2v-6.5h-3.2c-9.7,0-17.8-6.7-18-15.1h39.4v-0.2C50.6,15.3,40.9,7,29.2,7
			C18.5,7,9.5,13.7,8,22.5H3.6C5.3,11.5,16,3.4,29.2,3.4C43.3,3.4,55,13.2,55,25.2C55,36.4,45.2,45.8,32.3,47.2z M11.4,22.5
			c1.7-7.2,9-12.5,17.8-12.5s16,5.3,17.8,12.5H11.4z"/>
		<path class="st6" d="M0,26.9"/>
		<path class="st5" d="M0,27.6c0.4,12.9,12.5,23.2,27.5,23.9v-2.9c-13.1-0.7-23.7-9.8-24.1-21C3.4,27.6,0,27.6,0,27.6z"/>
	</g>
</g>
</svg>
