<?xml version="1.0" encoding="UTF-8"?>
<svg width="370px" height="254px" viewBox="0 0 370 254" version="1.1" xmlns="http://www.w3.org/2000/svg" xmlns:xlink="http://www.w3.org/1999/xlink">
    <!-- Generator: Sketch 55.2 (78181) - https://sketchapp.com -->
    <title>编组 5</title>
    <desc>Created with Sketch.</desc>
    <g id="页面1" stroke="none" stroke-width="1" fill="none" fill-rule="evenodd">
        <g id="画板备份-4" transform="translate(-944.000000, -486.000000)" fill-rule="nonzero">
            <g id="编组-5" transform="translate(944.000000, 486.000000)">
                <g id="编组-2">
                    <path d="M270.248789,221.69914 L8.76760492,221.69914 C3.92539043,221.69914 2.27373675e-13,217.788628 2.27373675e-13,212.964767 L2.27373675e-13,212.964767 C94.7868768,201.990469 187.792341,201.990469 279.016393,212.964767 L279.016393,212.964767 C279.016393,217.788628 275.091003,221.69914 270.248789,221.69914 Z" id="路径" fill="#2F2E41"></path>
                    <path d="M279.016393,213.478549 L2.27373675e-13,212.964762 L32.3370248,158.76022 L32.4917436,158.503327 L32.4917436,39.0426782 C32.4914986,36.1142744 33.65912,33.3057404 35.7376926,31.2350463 C37.8162652,29.1643521 40.635485,28.0014005 43.5750306,28.0014005 L233.894124,28.0014005 C236.833669,28.0014005 239.652889,29.1643521 241.731462,31.2350463 C243.810034,33.3057404 244.977656,36.1142744 244.977411,39.0426782 L244.977411,159.325373 L279.016393,213.478549 Z" id="路径" fill="#3F3D56"></path>
                    <path d="M43.3223248,35.7082041 C41.3293955,35.7104327 39.7143651,37.3193417 39.712128,39.3047171 L39.712128,148.227584 C39.7144549,150.212921 41.3294335,151.821777 43.3223248,151.824092 L235.694069,151.824092 C237.686924,151.82169 239.301851,150.212885 239.304265,148.227584 L239.304265,39.3047171 C239.301941,37.3193777 237.686962,35.7105196 235.694069,35.7082041 L43.3223248,35.7082041 Z" id="路径" fill="#FFFFFF"></path>
                    <path d="M44.1284209,166.210128 C43.5245276,166.211154 42.9760988,166.561162 42.7227242,167.107254 L32.7586802,188.686313 C32.5382533,189.163515 32.5769692,189.719698 32.8614043,190.162022 C33.1458394,190.604346 33.6368247,190.871916 34.164125,190.871916 L243.702674,190.871916 C244.238911,190.871916 244.736902,190.595271 245.018761,190.140814 C245.300619,189.686357 245.326142,189.118905 245.086213,188.641157 L234.255632,167.062097 C233.994996,166.538759 233.458522,166.208406 232.872093,166.210128 L44.1284209,166.210128 Z" id="路径" fill="#2F2E41"></path>
                    <ellipse id="椭圆形" fill="#FFFFFF" cx="138.734584" cy="31.5979089" rx="2.32083783" ry="2.31204109"></ellipse>
                    <path d="M118.138648,194.982211 C117.439452,194.983088 116.827456,195.450316 116.644814,196.122679 L114.145429,205.370848 C114.020171,205.833876 114.118399,206.328605 114.411172,206.709261 C114.703944,207.089916 115.157896,207.313101 115.639268,207.313101 L163.171904,207.313101 C163.672374,207.313101 164.141923,207.071902 164.432143,206.665718 C164.722363,206.259535 164.797389,205.738572 164.633506,205.267487 L161.420194,196.019318 C161.204257,195.398702 160.617423,194.982448 159.958083,194.982211 L118.138648,194.982211 Z" id="路径" fill="#2F2E41"></path>
                    <polygon id="路径" fill="#2F2E41" points="244.977327 156.7051 244.977327 158.760043 32.3369735 158.760043 32.4970113 158.503466 32.4970113 156.7051"></polygon>
                    <g id="编组-8" transform="translate(3.718774, 0.000000)">
                        <g id="编组-7">
                            <ellipse id="椭圆形" fill="#6BB4AB" cx="36.1019358" cy="35.9650976" rx="36.1019358" ry="35.9650976"></ellipse>
                            <path d="M51.0584416,51.6356215 L21.145416,51.6356215 C20.006536,51.6344993 19.083573,50.7150326 19.0824491,49.5804693 L19.0824491,31.5979089 C19.0836629,30.4633834 20.006574,29.5439704 21.145416,29.5427612 L51.0584416,29.5427612 C52.1972837,29.5439704 53.1201948,30.4633834 53.1214086,31.5979089 L53.1214086,49.5804553 C53.1202923,50.7150241 52.1973271,51.6344993 51.0584416,51.6356215 Z M21.1454067,31.5979089 L21.1454067,49.5804693 L51.0599533,49.5804693 L51.0584416,31.5979089 L21.1454067,31.5979089 Z" id="形状" fill="#FFFFFF"></path>
                            <path d="M45.3852871,31.5979089 L26.8185658,31.5979089 L26.8185658,23.3773137 C26.8185658,17.4231055 30.7228917,13.1015708 36.1019218,13.1015708 C41.480952,13.1015708 45.3852871,17.4231055 45.3852871,23.3773137 L45.3852871,31.5979089 Z M28.8815468,29.5427612 L43.3223202,29.5427612 L43.3223202,23.3773137 C43.3223202,18.5372045 40.3532778,15.1567231 36.1019545,15.1567231 C31.8506311,15.1567231 28.8815468,18.5372277 28.8815468,23.3773137 L28.8815468,29.5427612 Z" id="形状" fill="#FFFFFF"></path>
                        </g>
                        <ellipse id="椭圆形" fill="#FFFFFF" cx="36.1019358" cy="40.0753929" rx="2.06296696" ry="2.05514764"></ellipse>
                    </g>
                    <path d="M213.844108,114.878562 L65.1722852,114.878562 C63.6524868,114.876785 62.4208916,113.649858 62.4191073,112.13582 L62.4191073,75.3964533 C62.4208942,73.8824172 63.6524886,72.655493 65.1722852,72.6537155 L213.844108,72.6537155 C215.363905,72.655493 216.595499,73.8824172 216.597286,75.3964533 L216.597286,112.135824 C216.595499,113.64986 215.363905,114.876785 213.844108,114.878562 Z M65.1722852,73.7508115 C64.2603769,73.7518262 63.5203822,74.4880247 63.5203822,75.3964766 L63.5203822,112.135824 C63.5203822,113.044277 64.2603762,113.780477 65.1722852,113.781471 L213.844108,113.781471 C214.756017,113.780477 215.496011,113.044277 215.496011,112.135824 L215.496011,75.3964533 C215.496011,74.4880014 214.756017,73.7518029 213.844108,73.7508115 L65.1722852,73.7508115 Z" id="形状" fill="#E6E6E6"></path>
                    <ellipse id="椭圆形" fill="#E6E6E6" cx="88.2728596" cy="92.3564506" rx="11.2149893" ry="11.1724808"></ellipse>
                    <path d="M114.174161,84.9081324 C113.50567,84.9070826 112.887505,85.2617627 112.552954,85.8383245 C112.218403,86.4148862 112.218403,87.1255435 112.552954,87.7021052 C112.887505,88.278667 113.50567,88.6333472 114.174161,88.6322973 L202.291896,88.6322973 C203.324208,88.6322973 204.161061,87.7986133 204.161061,86.7702149 C204.161061,85.7418164 203.324208,84.9081324 202.291896,84.9081324 L114.174161,84.9081324 Z" id="路径" fill="#E6E6E6"></path>
                    <path d="M114.174161,96.0806155 C113.141851,96.0806155 112.304999,96.9142961 112.304999,97.9426933 C112.304999,98.9710905 113.141851,99.8047711 114.174161,99.8047711 L152.091463,99.8047711 C153.123773,99.8047711 153.960625,98.9710905 153.960625,97.9426933 C153.960625,96.9142961 153.123773,96.0806155 152.091463,96.0806155 L114.174161,96.0806155 Z" id="路径" fill="#E6E6E6"></path>
                    <path d="M96.3635096,96.5149077 C96.0447243,96.5723 95.740762,96.6834039 95.4675191,96.8424088 C95.1997365,97.0961914 94.861654,97.2806648 94.4883281,97.3767007 C94.5381034,97.074879 94.7037966,96.7993914 94.9541062,96.5958125 C95.1637112,96.3068969 95.3146903,95.986592 95.3999777,95.6498876 C95.3988087,95.1712615 95.8273703,94.7823359 96.3573697,94.7810374 C96.8873692,94.7797455 97.3182553,95.1665708 97.3199599,95.6451956 C97.3216543,96.1238203 96.8935242,96.5131333 96.3635265,96.5149077 L96.3635096,96.5149077 Z M94.5816127,94.783089 C94.2668168,94.5903197 93.9173603,94.450902 93.5496238,94.3713711 C93.16578,94.3713711 92.819732,94.1577747 92.6728413,93.8301817 C92.5259507,93.5025887 92.607145,93.1255129 92.8785635,92.8747841 C93.1499821,92.6240552 93.5581736,92.5490502 93.912799,92.6847436 C94.2674244,92.8204371 94.4986463,93.1401066 94.4986463,93.4946907 C94.5604908,93.7862683 94.6806478,94.064637 94.8529572,94.3155251 C95.1289908,94.5620406 95.3289323,94.8720493 95.4322053,95.213648 C95.1041147,95.1652844 94.8044193,95.013087 94.5844121,94.7831044 L94.5809128,94.7831044 L94.5816127,94.783089 Z M92.9965735,91.7298047 C92.7202342,89.5999647 90.3234373,87.9311998 87.4235323,87.9311998 C84.3341651,87.9311998 81.8205879,89.8230087 81.8205879,92.1496506 C81.8700555,93.4560382 82.6197133,94.6550093 83.8222211,95.3509786 C84.017307,95.4832596 84.2214218,95.6038783 84.433306,95.7120904 L84.1848099,96.6248811 C84.274423,96.6636225 84.3613322,96.7048518 84.4529893,96.7404683 L85.7077501,96.163184 C85.8910642,96.2069161 86.0839063,96.2350243 86.2753642,96.2650133 C86.3975844,96.285006 86.5198046,96.3056206 86.6454207,96.3193637 C87.4279035,96.4101386 88.22184,96.368212 88.9878992,96.195661 C89.0116038,96.5080501 89.0735513,96.8169792 89.1725654,97.1165821 C88.5992162,97.2402564 88.0124067,97.3033474 87.4235162,97.3046315 C86.8952094,97.3018884 86.3686515,97.2484936 85.8523735,97.1453122 L83.5757207,98.1911948 C83.3987047,98.2745118 83.1849448,98.2539407 83.0304937,98.1387252 C82.8754353,98.0244238 82.8067817,97.8375777 82.8546473,97.6601454 L83.2620265,96.1506997 C81.7691712,95.2771283 80.8468892,93.7770398 80.8021077,92.1496506 C80.8021077,89.3019556 83.7665187,86.9940476 87.4235162,86.9940476 C90.8957992,86.9940476 93.7393742,89.0770308 94.0163894,91.724814 C93.8569078,91.7022289 93.6962109,91.68763 93.5350086,91.6810819 C93.3550742,91.6873315 93.1751398,91.7029405 92.9965574,91.7291828 L92.9965735,91.7298047 Z M91.1970644,95.2093654 C91.516287,95.151539 91.8198544,95.0410338 92.0928527,94.8817028 C92.3609352,94.6281651 92.6991767,94.4440439 93.0725122,94.3484269 C93.0216315,94.6493695 92.8568033,94.9250399 92.6061401,95.1284206 C92.3964201,95.4175373 92.2456981,95.7387883 92.1603945,96.0754515 C92.1611722,96.554229 91.7325449,96.9430252 91.2027685,96.9440901 C90.6729921,96.9451507 90.242459,96.5580781 90.2408804,96.0793022 C90.2393104,95.6005263 90.6672904,95.2111481 91.1970644,95.2093654 L91.1970644,95.2093654 Z M92.5051919,96.9413807 C92.8195064,97.1352589 93.1690511,97.2753265 93.5369207,97.3563729 C93.9217178,97.3563729 94.2686253,97.5696505 94.4158808,97.8967547 C94.5631363,98.2238588 94.4817403,98.600372 94.2096476,98.8507267 C93.937555,99.1010814 93.5283497,99.1759745 93.1728436,99.0404835 C92.8173374,98.9049925 92.5855412,98.5858001 92.5855412,98.2317451 C92.5249053,97.9402459 92.4053829,97.661798 92.2331735,97.4108445 C91.9574945,97.1635713 91.7584944,96.8531102 91.6566963,96.5114796 C91.9859072,96.5613253 92.2859456,96.7151807 92.5051919,96.9465758 L92.5051919,96.9413807 L92.5051919,96.9413807 Z" id="形状" fill="#6BB4AB"></path>
                </g>
                <g id="编组-4" transform="translate(236.000000, 22.000000)">
                    <ellipse id="椭圆形" fill="#E6E6E6" cx="66.9457755" cy="226.065217" rx="66.9457755" ry="5.06521739"></ellipse>
                    <g id="编组-13" transform="translate(31.000000, 0.000000)">
                        <g id="Group_86" transform="translate(9.482430, 124.611570) rotate(-24.003190) translate(-9.482430, -124.611570) translate(1.482430, 119.611570)">
                            <path d="M0.756840537,0.229076946 C0.379448362,0.229623152 0.0736480691,0.534566997 0.0731003292,0.910902219 L0.0731003292,8.86767919 C0.0736480691,9.24401441 0.379448362,9.54895825 0.756840537,9.54950446 L14.6633705,9.54950446 C15.0407626,9.54895825 15.3465629,9.24401441 15.3471107,8.86767919 L15.3471107,0.910902219 C15.3465629,0.534566997 15.0407626,0.229623152 14.6633705,0.229076946 L0.756840537,0.229076946 Z" id="Path_1341" fill="#6BB4AB"></path>
                            <path d="M13.1820162,3.29803448 L2.23869204,3.29803448 C2.11277317,3.29803448 2.01069576,3.19624296 2.01069576,3.07067675 C2.01069576,2.94511054 2.11277317,2.84331901 2.23869204,2.84331901 L13.181519,2.84331901 C13.3074378,2.84331901 13.4095152,2.94511054 13.4095152,3.07067675 C13.4095152,3.19624296 13.3074378,3.29803448 13.181519,3.29803448 L13.1820162,3.29803448 Z" id="Path_1342" fill="#FFFFFF"></path>
                            <path d="M13.1820162,5.11689638 L2.23869204,5.11689638 C2.11277317,5.11689638 2.01069576,5.01510485 2.01069576,4.88953864 C2.01069576,4.76397243 2.11277317,4.6621809 2.23869204,4.6621809 L13.181519,4.6621809 C13.3074378,4.6621809 13.4095152,4.76397243 13.4095152,4.88953864 C13.4095152,5.01510485 13.3074378,5.11689638 13.181519,5.11689638 L13.1820162,5.11689638 Z" id="Path_1343" fill="#FFFFFF"></path>
                            <path d="M13.1820162,6.93526239 L2.23918931,6.93526239 C2.11327044,6.93526239 2.01119303,6.83347087 2.01119303,6.70790466 C2.01119303,6.58233845 2.11327044,6.48054692 2.23918931,6.48054692 L13.1820162,6.48054692 C13.3079351,6.48054692 13.4100125,6.58233845 13.4100125,6.70790466 C13.4100125,6.83347087 13.3079351,6.93526239 13.1820162,6.93526239 L13.1820162,6.93526239 Z" id="Path_1344" fill="#FFFFFF"></path>
                        </g>
                        <g id="Group_85" transform="translate(5.000000, 0.000000)">
                            <path d="M63.9298065,118.97661 C63.3299855,117.773518 63.3020491,116.370555 63.8535142,115.145226 C64.4049793,113.919898 65.4791984,112.998073 66.7871226,112.627794 L67.6712903,96.5575088 L74.4950323,101.530996 L72.6089419,116.029193 C73.1061726,118.284019 71.8122108,120.548711 69.5971805,121.300377 C67.3821502,122.052042 64.9463762,121.053029 63.9277935,118.975123 L63.9298065,118.97661 Z" id="Path_1375" fill="#FFB7B7"></path>
                            <path d="M11.0508387,121.965658 C11.8317498,120.86798 12.0788848,119.486019 11.7257452,118.191629 C11.3726056,116.897239 10.4554666,115.823382 9.22110968,115.259009 L10.8631355,99.2467105 L3.3404129,103.125882 L2.93430968,117.737079 C2.08973664,119.889599 3.01376209,122.324036 5.08491949,123.403075 C7.15607688,124.482114 9.71937833,123.864517 11.0508387,121.965658 Z" id="Path_1376" fill="#FFB7B7"></path>
                            <polygon id="Path_1377" fill="#FFB7B7" points="51.1976903 220.406996 45.8232387 220.406996 43.2658452 199.987697 51.1986968 199.987697"></polygon>
                            <path d="M52.5689806,218.678294 L41.9836258,218.678294 C38.2600204,218.679661 35.2417886,221.65224 35.2404,225.319522 L35.2404,225.53561 L52.5709935,225.53561 L52.5689806,218.678294 Z" id="Path_1378" fill="#2F2E41"></path>
                            <polygon id="Path_1379" fill="#FFB7B7" points="24.0516774 217.227632 18.7959871 218.336816 11.9521161 198.899329 19.7088387 197.263803"></polygon>
                            <path d="M25.0249161,215.254592 L14.6745677,217.438763 L14.6745677,217.438763 C12.9250979,217.807814 11.3961494,218.846236 10.4240973,220.325572 C9.45204515,221.804909 9.11652115,223.60397 9.49134194,225.326956 L9.53713548,225.538088 L26.4832645,221.962232 L25.0249161,215.254592 Z" id="Path_1380" fill="#2F2E41"></path>
                            <path d="M60.8888129,103.560039 C60.8888129,103.560039 66.6069677,120.965509 61.007071,140.648325 L55.3070323,164.226171 L53.8924645,216.395991 L42.3499742,212.746785 L37.647329,133.172482 L15.9879871,169.380557 L27.3880645,212.746785 L14.2780258,213.167561 L0.121277419,166.269092 L12.5680645,122.506373 L14.8481806,111.840263 L60.8888129,103.560039 Z" id="Path_1381" fill="#2F2E41"></path>
                            <path d="M14.1577548,45.7560789 L25.6383484,39.3130965 L45.4996645,38.1826009 L59.2764774,45.3060614 L53.6775871,83.1338026 C53.6775871,83.1338026 64.3560387,98.2272325 60.4625806,108.283737 C55.6572774,120.695895 13.6394323,127.171092 14.4612,115.057789 C15.7580129,95.9419561 17.7613548,97.2602895 19.2297677,87.8862456 C20.8400903,77.6007675 9.5648129,64.4124781 9.5648129,64.4124781 L14.1577548,45.7560789 Z" id="Path_1382" fill="#E6E6E6"></path>
                            <path d="M55.0287484,49.0350614 L56.3084516,43.5724035 C56.3084516,43.5724035 61.7679484,44.2662632 65.5517032,54.676636 C69.3354581,65.0870088 76.061071,87.0263553 76.061071,87.0263553 L75.7088129,94.9973158 C75.7088129,94.9973158 78.300929,97.9467149 76.5139742,99.2937939 C74.7270194,100.640873 79.7441806,102.465724 77.2028903,104.381768 C74.9234422,106.101573 73.8807549,108.978605 74.5393161,111.731228 L66.732271,109.356741 L67.3064516,96.8058114 L64.2136258,86.912364 L55.9476387,62.15 L55.0287484,49.0350614 Z" id="Path_1383" fill="#E6E6E6"></path>
                            <path d="M18.3632129,49.9663202 L16.6240645,44.6687018 C16.6240645,44.6687018 13.4215355,43.3801053 11.0573806,50.6517544 C8.69322581,57.9234035 7.57103226,76.3319956 7.57103226,76.3319956 L2.97859355,98.2728289 C2.97859355,98.2728289 1.26259355,101.067101 2.17343226,101.868013 C3.08427097,102.668925 -1.83375484,103.794961 1.02557419,105.278829 C3.88490323,106.762697 0.778993548,104.959158 1.84734194,108.342219 C2.54883871,110.564057 1.82922581,111.731724 1.82922581,111.731724 L10.6693935,109.980224 L13.0803484,98.7332544 L18.5489032,77.8228026 L18.3632129,49.9663202 Z" id="Path_1384" fill="#E6E6E6"></path>
                            <ellipse id="Ellipse_254" fill="#2F2E41" cx="35.525729" cy="18.4080965" rx="15.2467355" ry="15.016114"></ellipse>
                            <path d="M37.0917677,9.06279825 C40.3725624,5.78619592 44.3427545,3.25770809 48.7228258,1.65535088 C51.5343484,0.629429825 54.5944645,-0.00446052632 57.5338065,0.578381579 C60.4731484,1.16122368 63.2529677,3.16350439 64.0732258,6.00386842 C64.7435226,8.32631579 64.0515871,10.8271842 63.0109161,13.0138333 C61.9702452,15.2004825 60.5808387,17.2265526 59.7399484,19.4954737 C57.9956756,24.1968005 58.7834038,29.4479558 61.8335231,33.4516666 C64.8836425,37.4553774 69.7824729,39.6686303 74.853329,39.3339123 C71.9653161,39.7155351 69.3027484,41.0522061 66.4801548,41.7624211 C63.6575613,42.472636 60.3252,42.4255526 58.2272516,40.4336798 C56.0075226,38.3263289 55.9627355,34.8996535 56.0704258,31.8650088 L56.5489935,18.3317719 C56.6305161,16.0311316 56.6999613,13.6571404 55.8575613,11.5096447 C55.0151613,9.36214912 53.013329,7.48228509 50.6743355,7.50161404 C48.9029806,7.51648246 47.334929,8.57313158 45.9148258,9.61540789 C44.4947226,10.6576842 42.9905806,11.7698421 41.226271,11.9244737 C39.4619613,12.0791053 37.4475484,10.7934825 37.5793935,9.05387719 L37.0917677,9.06279825 Z" id="Path_1385" fill="#2F2E41"></path>
                            <ellipse id="Ellipse_255" fill="#FFB7B7" transform="translate(33.992760, 23.927584) rotate(-118.663000) translate(-33.992760, -23.927584) " cx="33.9927605" cy="23.9275838" rx="11.0924755" ry="11.1841187"></ellipse>
                            <path d="M18.2082194,23.0906579 L34.4120903,23.0906579 L34.5781548,20.7989386 L35.4089806,23.0906579 L37.9044774,23.0906579 L38.2335871,18.5488509 L39.8806452,23.0906579 L44.7116129,23.0906579 L44.7116129,22.8656491 C44.704125,16.2821801 39.28707,10.9470632 32.6024903,10.9396886 L30.3178452,10.9396886 C23.6332655,10.9470632 18.2162104,16.2821801 18.2087226,22.8656491 L18.2082194,23.0906579 Z" id="Path_1386" fill="#2F2E41"></path>
                            <path d="M42.2639226,31.3277632 L48.1818581,25.4928991 L49.1797548,12.5767018 L36.1155097,12.5767018 L36.4390839,12.894886 C40.938929,17.3207193 45.7965677,23.8157412 42.2639226,31.3277632 Z" id="Path_1387" fill="#2F2E41"></path>
                        </g>
                    </g>
                </g>
            </g>
        </g>
    </g>
</svg>