<?xml version="1.0" encoding="UTF-8"?>
<svg width="756px" height="52px" viewBox="0 0 756 52" version="1.1" xmlns="http://www.w3.org/2000/svg" xmlns:xlink="http://www.w3.org/1999/xlink">
    <!-- Generator: Sketch 55.2 (78181) - https://sketchapp.com -->
    <title>编组 3</title>
    <desc>Created with Sketch.</desc>
    <g id="页面1" stroke="none" stroke-width="1" fill="none" fill-rule="evenodd">
        <g id="画板备份-2" transform="translate(-575.000000, -150.000000)">
            <g id="编组-3" transform="translate(575.000000, 150.000000)">
                <g id="easyWeCom-logo最终应用-_全彩" fill-rule="nonzero">
                    <g id="编组">
                        <path d="M29.5,0 C13.275,0 0,11.3904762 0,25.2571429 L0,25.5047619 L7.86666667,25.5047619 C8.1125,35.4095238 17.4541667,43.8285714 29.2541667,43.8285714 L29.2541667,50.5142857 L29.5,50.5142857 C45.725,50.5142857 59,39.1238095 59,25.2571429 C59,11.1428571 45.725,0 29.5,0 Z M32.6958333,47.5428571 L32.6958333,40.8571429 L29.5,40.8571429 C19.6666667,40.8571429 11.5541667,33.9238095 11.3083333,25.5047619 L51.1333333,25.5047619 L51.1333333,25.2571429 C51.1333333,15.1047619 41.3,6.43809524 29.5,6.43809524 C18.6833333,6.43809524 9.5875,13.3714286 8.1125,22.2857143 L3.6875,22.2857143 C5.40833333,11.1428571 16.225,2.97142857 29.5,2.97142857 C43.7583333,2.97142857 55.5583333,12.8761905 55.5583333,25.2571429 C55.5583333,36.647619 45.725,46.0571429 32.6958333,47.5428571 Z M11.5541667,22.5333333 C13.275,15.1047619 20.65,9.9047619 29.5,9.9047619 C38.35,9.9047619 45.725,15.352381 47.4458333,22.5333333 L11.5541667,22.5333333 Z" id="形状" fill="#6BB4AB"></path>
                        <path d="M27.7791667,48.5333333 L27.7791667,48.5333333 C22.8625,48.2857143 18.4375,47.047619 14.75,44.8190476 C14.2583333,44.5714286 13.275,44.0761905 9.09583333,46.0571429 C10.8166667,42.5904762 10.325,41.6 9.83333333,41.1047619 C5.9,37.1428571 3.6875,32.4380952 3.44166667,27.4857143 L0,27.4857143 C0.245833333,33.1809524 2.45833333,38.3809524 6.88333333,42.8380952 C6.6375,43.8285714 5.40833333,46.552381 3.93333333,49.2761905 C3.6875,49.7714286 3.6875,50.5142857 4.425,51.0095238 C4.91666667,51.5047619 5.65416667,51.5047619 6.39166667,51.2571429 C9.34166667,49.7714286 12.5375,48.2857143 13.5208333,48.0380952 C17.4541667,50.2666667 21.8791667,51.5047619 26.3041667,52 C27.2875,52 27.7791667,52 27.7791667,52 L27.7791667,51.752381 L27.7791667,51.752381 L27.7791667,51.752381 L27.7791667,50.7619048 C27.7791667,50.7619048 27.7791667,48.5333333 27.7791667,48.5333333 Z" id="路径" fill="#168AFF"></path>
                    </g>
                    <path d="M94.9655172,18 C92.7931034,18 90.3793103,18.7402597 87.9655172,20.2207792 L87.7241379,20.4675325 L89.1724138,22.9350649 L89.4137931,22.6883117 C91.1034483,21.4545455 92.7931034,20.961039 94.4827586,20.961039 C96.6551724,20.961039 97.6206897,22.1948052 97.6206897,24.9090909 C90.137931,25.8961039 87,27.8701299 87,31.8181818 C87,35.025974 89.1724138,37 92.3103448,37 C94,37 95.9310345,36.2597403 97.862069,34.7792208 L98.1034483,36.7532468 L101,36.7532468 L101,25.6493506 C101,20.7142857 98.8275862,18 94.9655172,18 Z M97.6206897,27.3766234 L97.6206897,31.8181818 C95.9310345,33.2987013 94.7241379,34.038961 93.2758621,34.038961 C92.0689655,34.038961 90.6206897,33.5454545 90.6206897,31.5714286 C90.6206897,30.0909091 91.3448276,28.3636364 97.6206897,27.3766234 Z" id="形状" fill="#6BB4AB"></path>
                    <path d="M112.645338,25.1428571 L112.136789,24.8961039 C110.356866,24.1558442 108.576944,23.6623377 108.576944,22.1818182 C108.576944,20.7012987 109.594042,19.961039 111.628239,19.961039 C113.408162,19.961039 114.425261,20.7012987 115.696634,21.4415584 L115.950909,21.6883117 L117.730831,19.2207792 L117.476556,18.974026 C115.696634,17.7402597 113.662437,17 111.628239,17 C107.81412,17 105.017099,19.2207792 105.017099,22.1818182 C105.017099,25.6363636 108.576944,26.8701299 110.611141,27.6103896 C112.391063,28.3506494 114.425261,29.0909091 114.425261,30.5714286 C114.425261,32.0519481 113.153887,33.038961 111.11969,33.038961 C109.339768,33.038961 107.81412,32.5454545 106.034197,31.0649351 L105.779923,30.8181818 L104,33.2857143 L104.254275,33.5324675 C106.288472,35.012987 108.831218,36 111.11969,36 C115.950909,36 117.985106,33.2857143 117.985106,30.5714286 C118.23938,27.3636364 115.188085,26.1298701 112.645338,25.1428571 Z" id="路径" fill="#6BB4AB"></path>
                    <path d="M128.956522,29.25 C128.695652,30.25 128.434783,31.25 127.913043,32.25 C127.652174,32.75 127.652174,33.25 127.391304,33.5 C126.869565,32.25 126.608696,31.25 126.086957,30 L121.913043,19.25 L121.913043,19 L118,19 L125.565217,37 L125.304348,38.25 C124.782609,40 123.73913,41.75 121.391304,41.75 C121.130435,41.75 120.608696,41.75 120.086957,41.5 L119.826087,41.5 L119.043478,44.5 L119.304348,44.5 C119.826087,44.75 120.608696,45 121.652174,45 C126.086957,45 127.913043,41.25 128.956522,38.5 L136,19 L132.347826,19 L128.956522,29.25 Z" id="路径" fill="#6BB4AB"></path>
                    <path d="M157.5,25.9795918 C157,28.1836735 156.75,30.1428571 156.25,32.3469388 C155.75,30.3877551 155.25,28.1836735 154.75,25.9795918 L151.25,13 L148,13 L144.75,25.9795918 L144.75,26.4693878 C144.25,28.4285714 143.75,30.3877551 143.5,32.3469388 C143.25,31.3673469 143.25,30.6326531 143,29.6530612 C142.75,28.4285714 142.5,27.2040816 142.25,25.9795918 L139.75,13 L136,13 L141.25,36.755102 L141.25,37 L145.25,37 L148.75,22.5510204 C149,21.5714286 149.25,20.5918367 149.5,19.6122449 C149.5,19.122449 149.75,18.877551 149.75,18.3877551 L149.75,18.6326531 C150,19.8571429 150.25,21.0816327 150.5,22.5510204 L154,36.755102 L154,37 L158,37 L163,13 L159.5,13 L157.5,25.9795918 Z" id="路径" fill="#168AFF"></path>
                    <path d="M172.380952,18 C166.793651,18 164,22.9350649 164,27.6233766 C164,33.2987013 167.555556,37 172.888889,37 C175.174603,37 176.952381,36.5064935 178.984127,35.025974 L179.238095,34.7792208 L177.714286,32.3116883 L177.460317,32.5584416 C176.190476,33.5454545 174.666667,34.038961 173.142857,34.038961 C170.095238,34.038961 167.809524,31.8181818 167.555556,28.6103896 L179.746032,28.6103896 L179.746032,28.3636364 C179.746032,28.1168831 180,27.3766234 180,26.6363636 C179.746032,21.2077922 176.952381,18 172.380952,18 Z M176.444444,25.8961039 L167.555556,25.8961039 C168.063492,22.9350649 169.84127,20.961039 172.380952,20.961039 C174.920635,20.961039 176.444444,22.6883117 176.444444,25.8961039 Z" id="形状" fill="#168AFF"></path>
                    <path d="M78.3809524,18 C72.7936508,18 70,22.9350649 70,27.6233766 C70,33.2987013 73.5555556,37 78.8888889,37 C81.1746032,37 82.952381,36.5064935 84.984127,35.025974 L85.2380952,34.7792208 L83.7142857,32.3116883 L83.4603175,32.5584416 C82.1904762,33.5454545 80.6666667,34.038961 79.1428571,34.038961 C76.0952381,34.038961 73.8095238,31.8181818 73.5555556,28.6103896 L85.7460317,28.6103896 L85.7460317,28.3636364 C85.7460317,28.1168831 86,27.3766234 86,26.6363636 C85.7460317,21.2077922 82.952381,18 78.3809524,18 Z M82.4444444,25.8961039 L73.5555556,25.8961039 C74.0634921,22.9350649 75.8412698,20.961039 78.3809524,20.961039 C80.9206349,20.961039 82.4444444,22.6883117 82.4444444,25.8961039 Z" id="形状" fill="#6BB4AB"></path>
                    <path d="M198.689189,31.3627451 C197.148649,33.0784314 195.351351,33.8137255 193.297297,33.8137255 C188.675676,33.8137255 185.851351,30.1372549 185.851351,24.5 C185.851351,18.8627451 188.675676,15.1862745 193.297297,15.1862745 C195.094595,15.1862745 196.635135,15.9215686 198.175676,17.3921569 L198.432432,17.6372549 L200.486486,15.1862745 L200.22973,14.9411765 C199.459459,14.2058824 197.148649,12 193.297297,12 C186.621622,12 182,16.9019608 182,24.5 C182,31.8529412 186.364865,37 193.040541,37 C196.121622,37 198.689189,35.7745098 200.743243,33.5686275 L201,33.3235294 L198.689189,31.3627451 L198.689189,31.3627451 Z" id="路径" fill="#168AFF"></path>
                    <path d="M210.5,18 C206.25,18 202,21.2077922 202,27.6233766 C202,33.7922078 206.25,37 210.5,37 C214.75,37 219,33.7922078 219,27.6233766 C219,21.2077922 214.75,18 210.5,18 Z M215.25,27.6233766 C215.25,31.3246753 213.25,34.038961 210.5,34.038961 C207.5,34.038961 205.75,31.5714286 205.75,27.6233766 C205.75,23.6753247 207.75,21.2077922 210.5,21.2077922 C213.25,21.2077922 215.25,23.6753247 215.25,27.6233766 Z" id="形状" fill="#168AFF"></path>
                    <path d="M242.25,17 C240,17 238,18.52 236.5,20.2933333 C235.5,18.2666667 234,17 231.5,17 C229.75,17 228,18.0133333 226.25,19.7866667 L226,17.5066667 L223,17.5066667 L223,36 L226.5,36 L226.5,22.8266667 C228,21.0533333 229.5,20.2933333 230.75,20.2933333 C232.75,20.2933333 233.75,21.56 233.75,24.8533333 L233.75,36 L237.25,36 L237.25,22.8266667 C238.75,21.0533333 240.25,20.2933333 241.5,20.2933333 C243.5,20.2933333 244.5,21.56 244.5,24.8533333 L244.5,36 L248,36 L248,24.3466667 C248,19.5333333 246,17 242.25,17 Z" id="路径" fill="#168AFF"></path>
                </g>
                <text id="企业微信第三方工具，私域运营-so-ea" font-family="SourceHanSansCN-Regular, Source Han Sans CN" font-size="28" font-weight="normal" letter-spacing="-0.98">
                    <tspan x="278" y="37" fill="#666666">企业微信第三方工具，私域运营  so</tspan>
                    <tspan x="694.976" y="37" fill="#4A4A4A"> </tspan>
                    <tspan x="700.268" y="37" fill="#6BB4AB">easy</tspan>
                </text>
                <path d="M264.5,13 L264.5,39.8" id="直线" stroke="#666666" stroke-width="2" stroke-linecap="square"></path>
            </g>
        </g>
    </g>
</svg>