<?xml version="1.0" encoding="UTF-8"?>
<svg width="323px" height="207px" viewBox="0 0 323 207" version="1.1" xmlns="http://www.w3.org/2000/svg" xmlns:xlink="http://www.w3.org/1999/xlink">
    <!-- Generator: Sketch 55.2 (78181) - https://sketchapp.com -->
    <title>undraw_Data_points_re_vkpq</title>
    <desc>Created with Sketch.</desc>
    <g id="页面1" stroke="none" stroke-width="1" fill="none" fill-rule="evenodd">
        <g id="画板备份-2" transform="translate(-583.000000, -508.000000)" fill-rule="nonzero">
            <g id="undraw_Data_points_re_vkpq" transform="translate(583.000000, 508.000000)">
                <path d="M57.4562603,204.372754 C60.5401497,201.751604 62.4133552,197.610963 61.922107,193.580016 C61.4308588,189.549069 58.3882385,185.843392 54.4414934,184.987404 C50.4947483,184.131415 45.9957532,186.500931 44.7970002,190.378917 C44.13727,182.902313 43.3770488,175.112445 39.425187,168.745418 C35.8468738,162.980232 29.6491702,158.855031 22.9322759,158.117022 C16.2153815,157.379013 9.14332013,160.166366 4.95423113,165.499031 C0.765142124,170.831696 -0.260543903,178.584299 2.67338563,184.706643 C4.83471042,189.216766 8.81663066,192.573251 12.9886928,195.303928 C26.4701141,204.053377 42.6393203,207.611419 58.5212984,205.323403 L57.4562603,204.372754 Z" id="路径" fill="#F2F2F2"></path>
                <path d="M11.0966641,159.157692 C16.5664001,163.818289 21.584309,169.030808 26.0778103,174.719854 C30.5720205,180.403059 34.5286872,186.528884 37.8922342,193.011283 C39.7723029,196.647613 41.4612137,200.388597 42.9514283,204.217537 C43.2552641,204.996425 42.0462327,205.335471 41.7457746,204.565247 C39.1062407,197.814841 35.8406401,191.351301 31.9957985,185.267309 C28.169628,179.205358 23.7903647,173.545967 18.9195316,168.368645 C16.164574,165.441763 13.2578621,162.675557 10.2125574,160.082553 C9.58835576,159.550834 10.4776103,158.63035 11.0966641,159.157682 L11.0966641,159.157692 Z" id="路径" fill="#FFFFFF"></path>
                <path d="M240.596806,0 L73.4031936,0 C72.0765566,0.00147076563 71,1.07564689 71,2.40116279 L71,115.598837 C71,116.924353 72.0765566,117.998529 73.4031936,118 L240.596806,118 C241.923443,117.998527 243,116.924352 243,115.598837 L243,2.40116279 C243,1.07564689 241.923443,0.00147076563 240.596806,0 Z M242.313373,115.598837 C242.313373,116.545913 241.544683,117.313953 240.596806,117.313953 L73.4031936,117.313953 C72.4553169,117.313953 71.6866267,116.545913 71.6866267,115.598837 L71.6866267,2.40116279 C71.6866267,1.45408709 72.4553169,0.686046512 73.4031936,0.686046512 L240.596806,0.686046512 C241.544683,0.686046512 242.313373,1.45408709 242.313373,2.40116279 L242.313373,115.598837 Z" id="形状" fill="#3F3D56"></path>
                <rect id="矩形" fill="#3F3D56" x="72" y="9" width="170" height="1"></rect>
                <circle id="椭圆形" fill="#3F3D56" cx="78" cy="5" r="2"></circle>
                <circle id="椭圆形" fill="#3F3D56" cx="84" cy="5" r="2"></circle>
                <circle id="椭圆形" fill="#3F3D56" cx="89" cy="5" r="2"></circle>
                <path d="M171.642857,25 L143.357143,25 C142.055329,25 141,24.1045695 141,23 C141,21.8954305 142.055329,21 143.357143,21 L171.642857,21 C172.944671,21 174,21.8954305 174,23 C174,24.1045695 172.944671,25 171.642857,25 Z" id="路径" fill="#CCCCCC"></path>
                <path d="M190.633803,36 L123.366197,36 C122.059383,36 121,35.1045695 121,34 C121,32.8954305 122.059383,32 123.366197,32 L190.633803,32 C191.940618,32 193,32.8954306 193,34 C193,35.1045694 191.940618,36 190.633803,36 L190.633803,36 Z" id="路径" fill="#CCCCCC"></path>
                <path d="M213,109 C205.820298,109 200,103.179702 200,96 C200,88.8202983 205.820298,83 213,83 C220.179702,83 226,88.8202983 226,96 C225.991907,103.176347 220.176347,108.991907 213,109 L213,109 Z M213,83.8965547 C208.104612,83.8965547 203.691255,86.8454656 201.817871,91.3682149 C199.944487,95.8909641 200.980008,101.096873 204.441571,104.558435 C207.903133,108.019997 213.109043,109.055516 217.631792,107.182131 C222.15454,105.308746 225.103449,100.895388 225.103449,96 C225.09588,89.3185878 219.681412,83.9041212 213,83.8965547 L213,83.8965547 Z" id="形状" fill="#3F3D56"></path>
                <path d="M103.000193,75 C97.7422608,75 93.0020572,71.8327002 90.9899326,66.9750043 C88.9778079,62.1173083 90.0900156,56.5258577 93.807935,52.8079374 C97.5258543,49.0900171 103.117305,47.9778079 107.975001,49.9899313 C112.832698,52.0020547 116,56.7422573 116,62.00019 C115.991908,69.1764308 110.176434,74.9919057 103.000193,75 L103.000193,75 Z M103.000193,49.8969215 C98.1048763,49.8969215 93.6915829,52.8457872 91.8182255,57.3684702 C89.9448681,61.8911532 90.9803725,67.0969871 94.4418844,70.558499 C97.9033963,74.0200109 103.10923,75.0555153 107.631913,73.1821579 C112.154596,71.3088005 115.103462,66.8955071 115.103462,62.00019 C115.095894,55.3188768 109.681507,49.9044898 103.000193,49.8969215 L103.000193,49.8969215 Z" id="形状" fill="#3F3D56"></path>
                <path d="M108.683513,67.9998708 C107.955953,68.0000454 107.365755,67.4170284 107.364681,66.6970858 L107.364681,59.288167 C107.365478,58.5690165 107.95441,57.986214 108.681168,57.9853821 L108.683513,57.9853821 C109.410271,57.986214 109.999204,58.5690165 110,59.288167 L110,66.6970858 C109.999204,67.4162363 109.410271,67.9990388 108.683513,67.9998708 L108.683513,67.9998708 Z M105.246021,67.9999366 C104.894039,68.0033627 104.555179,67.8678258 104.304514,67.6232873 C104.053849,67.3787488 103.912074,67.0453977 103.910597,66.6970858 L103.910597,62.7060913 C103.911405,61.9869727 104.500354,61.4042232 105.227081,61.4034656 L105.246021,61.4034656 C105.972747,61.4042232 106.561697,61.9869727 106.562505,62.7060913 L106.562505,66.6970858 C106.56171,67.4162358 105.972779,67.9990388 105.246021,67.9999366 L105.246021,67.9999366 Z M101.775345,67.9998708 C101.047784,68.0000473 100.457585,67.4170292 100.456513,66.6970858 L100.456513,55.3027815 C100.457308,54.5836321 101.046239,54.0008301 101.772997,54 L101.775345,54 C102.502102,54.0008301 103.091034,54.5836321 103.091828,55.3027815 L103.091828,66.6970858 C103.091034,67.4162358 102.502103,67.9990388 101.775345,67.9998708 L101.775345,67.9998708 Z M98.3178596,67.9998715 C97.9682863,68.0002303 97.6329214,67.8629976 97.3857053,67.6184294 C97.1384893,67.3738612 96.9997228,67.0420406 97.0000004,66.6961268 L97.0014564,64.9847617 C97.0017695,64.2653204 97.5914159,63.6823492 98.3184685,63.6826588 C99.045521,63.6829687 99.6346598,64.2664422 99.6343469,64.9858835 L99.6343469,66.6970858 C99.6335505,67.4162363 99.0446183,67.9990388 98.3178596,67.9998715 Z" id="形状" fill="#6BB4AB"></path>
                <path d="M301.000193,205 C295.742261,205 291.002057,201.8327 288.989933,196.975004 C286.977808,192.117308 288.090016,186.525858 291.807935,182.807937 C295.525854,179.090017 301.117305,177.977808 305.975001,179.989931 C310.832698,182.002055 314,186.742257 314,192.00019 C313.991908,199.176431 308.176434,204.991906 301.000193,205 Z M301.000193,179.896922 C296.104876,179.896922 291.691583,182.845787 289.818225,187.36847 C287.944868,191.891153 288.980372,197.096987 292.441884,200.558499 C295.903396,204.020011 301.10923,205.055515 305.631913,203.182158 C310.154596,201.3088 313.103462,196.895507 313.103462,192.00019 C313.095894,185.318877 307.681507,179.90449 301.000193,179.896922 Z" id="形状" fill="#3F3D56"></path>
                <path d="M304.078729,191.230723 L301.547695,194.862076 C301.750957,195.093666 301.861568,195.384631 301.860396,195.684645 C301.859195,196.405452 301.236115,196.989185 300.467922,196.989185 C299.699729,196.989185 299.07665,196.405452 299.075449,195.684645 C299.076132,195.600572 299.084181,195.516695 299.099512,195.43386 L297.429074,194.520998 C296.986034,194.92343 296.313063,195.003128 295.777351,194.716609 L294,196.278995 L294,197.83636 C294.001465,198.477473 294.554209,198.997243 295.237463,199 L305.759865,199 C306.443558,198.997257 306.997076,198.477881 307,197.83636 L307,192.060817 L305.300172,191 C304.954092,191.252327 304.501922,191.33774 304.078746,191.230723 L304.078729,191.230723 Z" id="路径" fill="#6BB4AB"></path>
                <path d="M296.464234,190.342709 C297.233277,190.342708 297.856712,190.89564 297.856716,191.57772 L297.856716,191.57772 L297.856716,191.736546 L299.59932,192.601766 C299.847964,192.42082 300.159673,192.321965 300.481303,192.322052 C300.582786,192.32268 300.68395,192.332208 300.783319,192.350495 L303.319704,188.868265 C302.971998,188.434927 302.977573,187.852496 303.333525,187.424455 C303.689477,186.996415 304.315224,186.819667 304.884712,186.986309 C305.4542,187.152951 305.838505,187.625257 305.837381,188.157126 C305.837272,188.255252 305.82472,188.353057 305.799961,188.448695 L307,189.159835 L307,187.099903 C306.997074,186.493523 306.443558,186.002596 305.759865,186 L295.237459,186 C294.554206,186.002608 294.001463,186.493908 294,187.099903 L294,193 L295.159957,192.013884 C295.002601,191.635621 295.063768,191.213015 295.323745,190.882268 C295.583721,190.551521 296.009641,190.354445 296.464234,190.354556 L296.464234,190.342709 Z" id="路径" fill="#6BB4AB"></path>
                <path d="M159.000193,75 C153.742261,75 149.002057,71.8327002 146.989933,66.9750043 C144.977808,62.1173083 146.090016,56.5258577 149.807935,52.8079374 C153.525854,49.0900171 159.117305,47.9778079 163.975001,49.9899313 C168.832698,52.0020547 172,56.7422573 172,62.00019 C171.991908,69.1764308 166.176434,74.9919057 159.000193,75 L159.000193,75 Z M159.000193,49.8969215 C154.104876,49.8969215 149.691583,52.8457872 147.818225,57.3684702 C145.944868,61.8911532 146.980372,67.0969871 150.441884,70.558499 C153.903396,74.0200109 159.10923,75.0555153 163.631913,73.1821579 C168.154596,71.3088005 171.103462,66.8955071 171.103462,62.00019 C171.095894,55.3188768 165.681507,49.9044898 159.000193,49.8969215 L159.000193,49.8969215 Z" id="形状" fill="#3F3D56"></path>
                <path d="M150.96303,65 C150.573755,65 150.222799,64.7558268 150.073592,64.3814171 C149.924385,64.0070075 150.006263,63.5758795 150.281097,63.2887983 L155.175282,58.1779605 C155.329129,58.0164124 155.538716,57.9257852 155.7572,57.9263348 L155.757762,57.9263348 C155.976014,57.9256804 156.185445,58.0159886 156.339361,58.177125 L158.609201,60.540811 C158.701547,60.6375671 158.82725,60.6917935 158.958249,60.6913857 L158.958489,60.6913857 C159.08949,60.6917786 159.215179,60.6374844 159.307447,60.5406447 L162.512095,57.1978886 C162.542946,57.165748 162.560256,57.1221511 162.560211,57.0767076 C162.560167,57.0312641 162.54277,56.9877045 162.511855,56.9556302 L161.475018,55.8776827 C161.333643,55.7307888 161.291226,55.5096444 161.367564,55.317467 C161.443902,55.1252896 161.623944,55 161.823657,55 L165.506445,55 C165.778904,55.000311 165.999701,55.2302369 166,55.5139605 L166,59.3465934 C166,59.5544913 165.879836,59.74195 165.6954,59.8215363 C165.510964,59.9011225 165.29865,59.8571583 165.157484,59.7101492 L164.119042,58.6286864 C164.088197,58.596551 164.046353,58.5784963 164.002722,58.5784963 C163.95909,58.5784963 163.917247,58.596551 163.886402,58.6286864 L159.546829,63.1445963 C159.392934,63.3057156 159.183535,63.3960227 158.96531,63.3953866 L158.96523,63.3953866 C158.746959,63.3959775 158.537532,63.305611 158.383632,63.1444299 L156.112667,60.7795685 C155.917321,60.5854954 155.610013,60.5854954 155.414667,60.7795685 L151.643998,64.7060551 C151.463847,64.8948562 151.218619,65.0007095 150.96303,65 Z" id="路径" fill="#6BB4AB"></path>
                <path d="M159.000193,108 C153.742261,108 149.002057,104.8327 146.989933,99.9750043 C144.977808,95.1173083 146.090016,89.5258577 149.807935,85.8079374 C153.525854,82.0900171 159.117305,80.9778079 163.975001,82.9899313 C168.832698,85.0020547 172,89.7422573 172,95.00019 C171.991908,102.176431 166.176434,107.991906 159.000193,108 L159.000193,108 Z" id="路径" fill="#E6E6E6"></path>
                <path d="M213.000193,73 C207.742261,73 203.002057,69.8327002 200.989933,64.9750043 C198.977808,60.1173083 200.090016,54.5258577 203.807935,50.8079374 C207.525854,47.0900171 213.117305,45.9778079 217.975001,47.9899313 C222.832698,50.0020547 226,54.7422573 226,60.00019 C225.991908,67.1764308 220.176434,72.9919057 213.000193,73 L213.000193,73 Z" id="路径" fill="#E6E6E6"></path>
                <path d="M102.248623,82 C100.059935,82.0028531 97.9085335,82.57789 96,83.6701617 C101.690319,84.1828334 106.216114,88.7536089 106.77256,94.5497863 C107.329007,100.345964 103.758379,105.724619 98.2735465,107.352374 C98.7715474,107.520659 99.2796417,107.656141 99.7946882,107.757984 C100.602959,107.920109 101.424858,108.001164 102.248623,108 C109.291014,108 115,102.179692 115,95 C115,87.8202954 109.291014,82 102.248623,82 L102.248623,82 Z" id="路径" fill="#E6E6E6"></path>
                <path d="M98.5120029,83.2452018 C97.6891945,83.080421 96.8519767,82.998297 96.0128334,83.0000268 C89.0779572,82.992877 83.3585966,88.4309747 83.0161169,95.3576271 C82.6736372,102.284279 87.8286516,108.260083 94.7304091,108.937087 C101.632167,109.614092 107.850032,104.753871 108.859931,97.8926868 C109.86983,91.0315027 105.3161,84.5857017 98.5120029,83.2452018 L98.5120029,83.2452018 Z M99.3904453,107.596511 C94.848921,108.917592 89.9541046,107.469123 86.8627455,103.889326 C83.7713865,100.309529 83.0511829,95.255799 85.0194701,90.9549063 C86.9877573,86.6540137 91.2830785,83.8957752 96.0128334,83.8955234 C96.3704267,83.8955234 96.7245302,83.9125475 97.0751438,83.9397861 C102.869969,84.451906 107.478883,89.0177624 108.045549,94.8077019 C108.612214,100.597642 104.97601,105.970508 99.3904453,107.596511 L99.3904453,107.596511 Z" id="形状" fill="#3F3D56"></path>
                <path d="M102.906274,93.6991858 C102.14248,89.7583721 98.8120883,87.2899389 95.4631255,88.1824431 C95.3059948,88.2246301 95.1433353,88.2765451 95,88.3284773 L96.4831168,96 L103,94.2573584 C102.972435,94.0788618 102.942112,93.8841632 102.906274,93.6991858 Z" id="路径" fill="#6BB4AB"></path>
                <path d="M100.930574,94.7953758 L93.5967766,96.4987736 L91.9315575,89 C88.3719726,90.1266114 86.2993463,93.9084756 87.216963,97.6025913 C88.1345796,101.296707 91.7206818,103.607753 95.3742553,102.859517 C99.0278288,102.111282 101.467768,98.5661308 100.924375,94.7953758 L100.930574,94.7953758 Z" id="路径" fill="#6BB4AB"></path>
                <path d="M238,157 C230.820298,157 225,151.179702 225,144 C225,136.820298 230.820298,131 238,131 C245.179702,131 251,136.820298 251,144 C250.991889,151.176339 245.176339,156.991889 238,157 L238,157 Z M238,131.896555 C233.104612,131.896555 228.691255,134.845466 226.817871,139.368215 C224.944487,143.890964 225.980008,149.096873 229.441571,152.558435 C232.903133,156.019997 238.109043,157.055516 242.631792,155.182131 C247.15454,153.308746 250.103449,148.895388 250.103449,144 C250.095863,137.318595 244.681405,131.904138 238,131.896555 L238,131.896555 Z" id="形状" fill="#3F3D56"></path>
                <path d="M242.599826,147.999999 C241.273373,148.000845 240.197355,146.967314 240.196467,145.691539 C240.19558,144.415764 241.270159,143.38085 242.596611,143.379988 C243.923064,143.379127 244.999096,144.412644 245,145.688419 C245.000292,146.963973 243.926048,147.998565 242.599826,147.999999 Z M236.999969,148 C235.675064,147.998534 234.601396,146.965886 234.599873,145.6916 L234.599873,140.305689 C234.60145,139.031848 235.675565,138 237.000008,138 C238.324451,138 239.398566,139.031848 239.400144,140.305689 L239.400144,145.6916 C239.398611,146.965912 238.324901,147.998567 236.999969,148 L236.999969,148 Z M231.401767,147.999999 C230.075917,147.998529 229.001495,146.965129 229,145.689934 L229,143.538084 C229,142.262292 230.075317,141.228059 231.401787,141.228059 C232.728258,141.228059 233.803574,142.262292 233.803574,143.538084 L233.803574,145.689934 C233.802072,146.965141 232.727629,147.998543 231.401767,147.999999 L231.401767,147.999999 Z" id="形状" fill="#6BB4AB"></path>
                <polygon id="路径" fill="#A0616A" points="70.7793321 202 74.8447281 201.548906 75 186 69 186.665869"></polygon>
                <path d="M70.7121232,200.838198 L83.3064939,200.835592 L83.305487,205.710359 L75.5771246,205.711958 C72.8897025,205.712514 70.7115672,203.530457 70.7121232,200.838198 L70.7121232,200.838198 L70.7121232,200.838198 Z" id="路径" fill="#2F2E41" transform="translate(77.009309, 203.273775) rotate(173.525940) translate(-77.009309, -203.273775) "></path>
                <polygon id="路径" fill="#A0616A" points="30.000695 202 34.0661415 201.999645 36 186 30 186.000355"></polygon>
                <path d="M29.6535761,201.208948 L42.247651,201.208948 L42.247651,206.08383 L34.5194697,206.08383 C31.8321107,206.08383 29.6535761,203.901272 29.6535761,201.208948 L29.6535761,201.208948 L29.6535761,201.208948 Z" id="路径" fill="#2F2E41" transform="translate(35.950614, 203.646389) rotate(179.997380) translate(-35.950614, -203.646389) "></path>
                <path d="M58.9178037,133.486898 L61.219174,140.981354 L73.7123311,168.047485 L77,193.721066 L69.4383704,194.050213 L64.8356126,170.351527 L49.0547866,153.235808 L35.2465785,198 L29,197.341702 C29,197.341702 34.2602765,139.411573 41.4931571,133.486901 C41.4931398,133.486898 53.328761,127.891377 58.9178037,133.486898 Z" id="路径" fill="#2F2E41"></path>
                <circle id="椭圆形" fill="#A0616A" cx="49" cy="93" r="8"></circle>
                <path d="M59.9846454,134.299268 C59.9846454,134.299268 60.9673361,101.884973 47.2096744,104.109473 C33.4520127,106.333974 39.1843717,137.63605 39.1843717,137.63605 C39.1843717,137.63605 42.1324435,143.356223 49.3388368,137.000478 C56.54523,130.644733 59.9846454,134.299268 59.9846454,134.299268 Z" id="路径" fill="#6BB4AB"></path>
                <path d="M88.466385,107.962598 C87.9383054,108.76224 87.0692589,109.295736 86.0930894,109.419532 C85.1169198,109.543328 84.1339023,109.244707 83.4085482,108.604023 L73,114 L73.5449691,108.111397 L83.3455541,103.890079 C84.5717772,102.764167 86.479363,102.698711 87.7858159,103.737718 C89.0922688,104.776724 89.3846414,106.591781 88.4663676,107.962601 L88.466385,107.962598 Z" id="路径" fill="#A0616A"></path>
                <path d="M49.2427835,107.398764 L65.8538996,110.325949 L80.7399563,103 L83,108.038093 L66.7040557,118.858896 C66.7040557,118.858896 49.451688,120.080134 45.4629476,115.337041 C43.9671699,113.55838 43.7961809,111.939492 44.1667344,110.610672 C44.8384045,108.3577 47.0156216,106.980049 49.2427835,107.398764 L49.2427835,107.398764 Z" id="路径" fill="#6BB4AB"></path>
                <path d="M48.3819231,100.086731 C48.4603381,100.016503 48.5010351,99.9134529 48.4917451,99.8086464 C48.4824552,99.70384 48.4242652,99.6095401 48.3347178,99.5541754 C46.8699783,98.647824 46.0175355,97.0146007 46.1120844,95.2957587 C46.2066333,93.5769166 47.2330789,92.0468729 48.7884075,91.3063691 C51.1691563,90.1722059 54.3952194,91.0545469 56.1551615,88.8751254 C56.8794118,87.9315842 57.1565597,86.7197034 56.9143329,85.5555065 C56.5345797,83.497032 54.9858123,81.9683618 53.2513368,80.9207146 C48.9046727,78.2952673 43.4424338,78.3662493 39.1655783,81.1037594 C34.8887229,83.8412696 32.5406774,88.7694589 33.1105518,93.8123365 C33.334434,95.7935017 33.9462578,98.0149903 32.7672416,99.6235001 C31.7295787,101.039163 29.7709238,101.304611 28.0503822,101.656371 C24.3600606,102.410843 20.7998396,104.151357 18.2955167,106.962719 C15.7911939,109.774082 14.455208,113.718524 15.210268,117.405761 C15.965328,121.092999 18.9945302,124.333472 22.717629,124.905005 C25.748075,125.370211 28.8772158,124.084322 31.1026083,121.977062 C33.3280009,119.869803 34.7346583,117.024134 35.6219159,114.091773 C36.6750121,110.611318 37.0904104,106.860904 38.9916747,103.760585 C40.8521773,100.726729 44.8615482,98.55193 48.0038662,100.131953 C48.1271491,100.196282 48.2773217,100.178318 48.3819231,100.086731 L48.3819231,100.086731 Z" id="路径" fill="#2F2E41"></path>
                <path d="M281.574283,161.642004 C282.40484,161.206271 283.009668,160.405079 283.226019,159.45401 C283.44237,158.502941 283.24802,157.499692 282.695266,156.714216 L290,114.094702 L283.183425,114 L278.110687,156.145167 C276.893869,157.235538 276.642931,159.113061 277.526583,160.51545 C278.410235,161.917838 280.14917,162.401819 281.574273,161.642004 L281.574283,161.642004 Z" id="路径" fill="#FFB8B8"></path>
                <polygon id="路径" fill="#FFB8B8" points="258.588235 159 256 171.97561 256.323529 201 261.176471 201 263.441176 172.658537 267 160.707317"></polygon>
                <polygon id="路径" fill="#FFB8B8" points="274.588235 160 272 172.97561 272.323529 202 277.176471 202 279.441176 173.658537 283 161.707317"></polygon>
                <path d="M254.216404,200.716877 L262.315,200.716877 L262.315,205.825403 L249.117279,205.825464 L249.117279,205.825464 C249.117279,204.470599 249.654514,203.171223 250.610785,202.213184 C251.567057,201.255145 252.864037,200.716877 254.216404,200.716877 Z" id="路径" fill="#2F2E41" transform="translate(255.716140, 203.271171) rotate(-0.143750) translate(-255.716140, -203.271171) "></path>
                <path d="M271.322979,201.268482 L279.421576,201.268482 L279.421576,206.377008 L266.223857,206.377069 L266.223857,206.377069 C266.223857,205.022205 266.761092,203.722829 267.717363,202.76479 C268.673634,201.806751 269.970613,201.268482 271.322979,201.268482 Z" id="路径" fill="#2F2E41" transform="translate(272.822716, 203.822775) rotate(-0.143750) translate(-272.822716, -203.822775) "></path>
                <circle id="椭圆形" fill="#FFB8B8" cx="271" cy="85" r="9"></circle>
                <path d="M289.303762,106.736119 C286.753062,102.715325 278.74442,93.179519 266.827494,98.6530657 C264.904441,99.5465001 263.737827,101.547667 263.902983,103.669669 C264.479693,111.316257 265.207239,130.798492 259,142.456647 C259,142.456647 277.091205,147.943235 286.990166,142.799559 C286.990166,142.799559 283.576731,119.824473 286.990166,115.366621 C288.128392,113.942049 289.050126,112.355846 289.725317,110.659729 C290.205976,109.35793 290.049861,107.904901 289.303762,106.736119 L289.303762,106.736119 Z" id="路径" fill="#3F3D56"></path>
                <path d="M286.863646,107 L289.986149,108.41 C290.410536,108.601643 290.694053,109.042374 290.713194,109.540199 L291,117 L284,116.310345 L286.863646,107 Z" id="路径" fill="#3F3D56"></path>
                <path d="M260.360253,143 C260.360253,143 252.791026,156.825581 254.167249,169.639535 L264.832978,171.325581 L272.402205,153.453488 L270.681926,171.662791 L281.691711,172 C281.691711,172 288.916882,145.697674 286.508492,143.337209 L260.360253,143 Z" id="路径" fill="#2F2E41"></path>
                <path d="M249.900968,143.958557 C250.881359,143.812144 251.74498,143.249224 252.259448,142.421268 C252.773916,141.593312 252.886384,140.58537 252.566589,139.668658 L268,111.259933 L261.089245,109 L248.074984,137.672179 C246.498833,138.312909 245.662567,140.003487 246.12842,141.607309 C246.594274,143.211132 248.214999,144.221256 249.900954,143.958557 L249.900968,143.958557 Z" id="路径" fill="#FFB8B8"></path>
                <path d="M269,103.479847 L266.357617,102.311305 C266.357617,102.311305 264.117178,100.938216 262.131235,103.959503 C260.145292,106.980789 258,113.601783 258,113.601783 L266.621634,116 L269,103.479847 Z" id="路径" fill="#3F3D56"></path>
                <path d="M272.090532,90.7755256 C272.408954,89.672476 272.316947,88.1798309 271.245288,87.762614 C270.686913,87.5452313 270.063904,87.7166876 269.467658,87.7776225 C268.300931,87.8919615 267.133096,87.5711865 266.189347,86.8771524 C265.080828,86.054827 264.396123,84.7978515 263.745947,83.5817514 L262.762522,81.7423747 C262.543691,81.3589018 262.357066,80.9579995 262.204562,80.5437798 C261.657375,78.9199594 262.251521,77.0400135 263.467823,75.8309746 C264.738932,74.650963 266.41159,73.9965472 268.14768,74 C269.870148,74.0123547 271.571882,74.376157 273.148245,75.0690508 C275.950164,76.2087484 278.487933,77.9100496 280.604545,80.0676995 C281.987982,81.4799628 283.24734,83.3197645 282.958291,85.2734995 C282.733291,86.7943099 281.622411,88.0121177 280.562958,89.1281583 L276.71998,93.1763937 C276.039399,93.893317 275.312133,94.63949 274.361839,94.9151345 C273.411546,95.1907789 272.187333,94.7858613 271.928188,93.832782 C271.928177,93.8328072 271.772096,91.8785752 272.090532,90.7755256 Z" id="路径" fill="#2F2E41"></path>
                <path d="M322.657476,207 L0.34252386,207 C0.153353156,207 0,206.776142 0,206.5 C0,206.223858 0.153353156,206 0.34252386,206 L322.657476,206 C322.846647,206 323,206.223858 323,206.5 C323,206.776142 322.846647,207 322.657476,207 Z" id="路径" fill="#3F3D56"></path>
                <path d="M217.029412,100 L207.970588,100 C207.434547,100 207,99.7761424 207,99.5 C207,99.2238576 207.434547,99 207.970588,99 L217.029412,99 C217.565453,99 218,99.2238576 218,99.5 C218,99.7761424 217.565453,100 217.029412,100 L217.029412,100 Z" id="路径" fill="#6BB4AB"></path>
                <path d="M217.029412,96 L207.970588,96 C207.434547,96 207,95.7761424 207,95.5 C207,95.2238576 207.434547,95 207.970588,95 L217.029412,95 C217.565453,95 218,95.2238576 218,95.5 C218,95.7761424 217.565453,96 217.029412,96 L217.029412,96 Z" id="路径" fill="#6BB4AB"></path>
                <path d="M217.029412,91 L207.970588,91 C207.434547,91 207,90.7761424 207,90.5 C207,90.2238576 207.434547,90 207.970588,90 L217.029412,90 C217.565453,90 218,90.2238576 218,90.5 C218,90.7761424 217.565453,91 217.029412,91 L217.029412,91 Z" id="路径" fill="#6BB4AB"></path>
            </g>
        </g>
    </g>
</svg>