<?xml version="1.0" standalone="no"?><!DOCTYPE svg PUBLIC "-//W3C//DTD SVG 1.1//EN" "http://www.w3.org/Graphics/SVG/1.1/DTD/svg11.dtd"><svg t="1630410615897" class="icon" viewBox="0 0 1024 1024" version="1.1" xmlns="http://www.w3.org/2000/svg" p-id="11434" xmlns:xlink="http://www.w3.org/1999/xlink" width="200" height="200"><defs><style type="text/css"></style></defs><path d="M64 0H0v384h384V0H64z m256 320H64V64h256v256zM576 64V0H448v64h64v128h64zM448 192h64v64H448zM512 256h64v64H512zM448 320h64v64H448z" fill="#707070" p-id="11435"></path><path d="M128 128h128v128H128zM704 0h-64v384h384V0h-320z m256 320h-256V64h256v256z" fill="#707070" p-id="11436"></path><path d="M768 128h128v128h-128zM64 640H0v384h384v-384H64z m256 320H64v-256h256v256z" fill="#707070" p-id="11437"></path><path d="M128 768h128v128H128zM576 512h64v128H576zM832 448v64h-128v64h192V448zM960 448h64v128h-64zM896 640v64h128v-64h-64V576h-64zM960 896h64v-128h-128v64h64zM896 1024h128v-64h-64v-64h-64zM512 960H448v64h128v-128H512zM448 768h64v128H448zM768 832h128v64h-128zM640 768H576v128h64v-64h128v-128h-64v64zM704 960h128v64h-128zM448 640h128v64H448zM512 448H448v128h64V512h64V448zM256 448H192v64H128v64h128V512h64V448zM64 448H0v128h64V512h64V448zM640 448h64v64h-64zM640 640h64v64h-64zM640 896h64v64h-64zM768 640h64v64h-64zM320 512h64v64H320z" fill="#707070" p-id="11438"></path></svg>