<?xml version="1.0" encoding="UTF-8"?>
<svg width="244px" height="244px" viewBox="0 0 244 244" version="1.1" xmlns="http://www.w3.org/2000/svg" xmlns:xlink="http://www.w3.org/1999/xlink">
    <title>Illustration/设备</title>
    <defs>
        <filter x="-28.3%" y="-17.2%" width="156.6%" height="134.5%" filterUnits="objectBoundingBox" id="filter-1">
            <feGaussianBlur stdDeviation="9.59999979" in="SourceGraphic"></feGaussianBlur>
        </filter>
        <filter x="-43.5%" y="-264.0%" width="187.0%" height="628.0%" filterUnits="objectBoundingBox" id="filter-2">
            <feGaussianBlur stdDeviation="9.59999979" in="SourceGraphic"></feGaussianBlur>
        </filter>
        <filter x="-55.6%" y="-45.5%" width="211.1%" height="190.9%" filterUnits="objectBoundingBox" id="filter-3">
            <feGaussianBlur stdDeviation="9.59999979" in="SourceGraphic"></feGaussianBlur>
        </filter>
        <filter x="-46.9%" y="-107.1%" width="193.8%" height="314.3%" filterUnits="objectBoundingBox" id="filter-4">
            <feGaussianBlur stdDeviation="9.59999979" in="SourceGraphic"></feGaussianBlur>
        </filter>
        <filter x="-71.4%" y="-71.4%" width="242.9%" height="242.9%" filterUnits="objectBoundingBox" id="filter-5">
            <feGaussianBlur stdDeviation="9.59999979" in="SourceGraphic"></feGaussianBlur>
        </filter>
    </defs>
    <g id="Illustration/设备" stroke="none" stroke-width="1" fill="none" fill-rule="evenodd">
        <g id="设备">
            <rect id="矩形" fill-opacity="0" fill="#D8D8D8" x="0" y="0" width="244" height="244"></rect>
            <g id="编组-9" transform="translate(22.000000, 19.000000)">
                <path d="M163.69525,196.70125 L159.70125,200.69525 C159.31025,201.08625 158.67725,201.08625 158.28725,200.69525 L154.29325,196.70125 C153.90225,196.31025 153.90225,195.67825 154.29325,195.28725 L158.28725,191.29325 C158.67725,190.90225 159.31025,190.90225 159.70125,191.29325 L163.69525,195.28725 C164.08625,195.67825 164.08625,196.31025 163.69525,196.70125" id="Fill-9" fill="#BBD9FA"></path>
                <path d="M17.18525,62.44525 L9.44625,70.18425 C9.05625,70.57525 8.42225,70.57525 8.03225,70.18425 L0.29325,62.44525 C-0.09775,62.05525 -0.09775,61.42225 0.29325,61.03125 L8.03225,53.29325 C8.42225,52.90225 9.05625,52.90225 9.44625,53.29325 L17.18525,61.03125 C17.57625,61.42225 17.57625,62.05525 17.18525,62.44525" id="Fill-11" fill="#FFBBD8"></path>
                <rect id="矩形" fill="#C4D8FC" transform="translate(183.000000, 164.000000) rotate(-45.000000) translate(-183.000000, -164.000000) " x="176" y="157" width="14" height="14" rx="2"></rect>
                <rect id="矩形" fill="#33C8CD" opacity="0.251697359" transform="translate(24.000000, 20.000000) rotate(-45.000000) translate(-24.000000, -20.000000) " x="10" y="6" width="28" height="28" rx="2"></rect>
            </g>
            <g id="编组" transform="translate(33.000000, 41.000000)">
                <g transform="translate(41.279999, 0.950400)" id="Fill-1">
                    <path d="M88.874974,167.049404 L12.8852157,167.049404 C5.76873587,167.049404 9.59999979e-05,161.280764 9.59999979e-05,154.164285 L9.59999979e-05,12.8945277 C9.59999979e-05,5.77804787 5.76873587,0.00940799979 12.8852157,0.00940799979 L88.874974,0.00940799979 C95.9914539,0.00940799979 101.760094,5.77804787 101.760094,12.8945277 L101.760094,154.164285 C101.760094,161.280764 95.9914539,167.049404 88.874974,167.049404" fill="#CED7E2"></path>
                    <path d="M88.874974,179.529596 L12.8852157,179.529596 C5.76873587,179.529596 9.59999972e-05,173.760956 9.59999972e-05,166.644476 L9.59999972e-05,25.3747194 C9.59999972e-05,18.2582396 5.76873587,12.4895997 12.8852157,12.4895997 L88.874974,12.4895997 C95.9914539,12.4895997 101.760094,18.2582396 101.760094,25.3747194 L101.760094,166.644476 C101.760094,173.760956 95.9914539,179.529596 88.874974,179.529596" fill-opacity="0.3" fill="#B9C0C8" filter="url(#filter-1)"></path>
                </g>
                <path d="M46.079999,155.114781 L46.079999,13.8450237 C46.079999,8.8501438 50.1302389,4.79990389 55.1251188,4.79990389 L129.194877,4.79990389 C134.189757,4.79990389 138.239997,8.8501438 138.239997,13.8450237 L138.239997,155.114781 C138.239997,160.10966 134.189757,164.1599 129.194877,164.1599 L55.1251188,164.1599 C50.1302389,164.1599 46.079999,160.10966 46.079999,155.114781" id="Fill-3" fill="#FFFFFF"></path>
                <path d="M81.5183982,10.9469758 L81.5183982,10.9469758 C80.7235182,10.9469758 80.0783982,10.3018558 80.0783982,9.50697579 C80.0783982,8.71113581 80.7235182,8.06697582 81.5183982,8.06697582 C82.3132782,8.06697582 82.9583981,8.71113581 82.9583981,9.50697579 C82.9583981,10.3018558 82.3132782,10.9469758 81.5183982,10.9469758" id="Fill-5" fill="#ADCBDF"></path>
                <path d="M101.818078,10.9469758 L86.4580781,10.9469758 C85.6631981,10.9469758 85.0180781,10.3018558 85.0180781,9.50697579 C85.0180781,8.71113581 85.6631981,8.06697582 86.4580781,8.06697582 L101.818078,8.06697582 C102.613918,8.06697582 103.258078,8.71113581 103.258078,9.50697579 C103.258078,10.3018558 102.613918,10.9469758 101.818078,10.9469758" id="Fill-7" fill="#ADCBDF"></path>
                <path d="M130.079997,22.0798075 L54.2399988,22.0798075 C52.6492788,22.0798075 51.3599989,23.3690875 51.3599989,24.9598074 C51.3599989,26.5505274 52.6492788,27.8398074 54.2399988,27.8398074 L130.079997,27.8398074 C131.670717,27.8398074 132.959997,26.5505274 132.959997,24.9598074 C132.959997,23.3690875 131.670717,22.0798075 130.079997,22.0798075" id="Fill-9" fill="#E5EDF5"></path>
                <path d="M130.079997,39.3598071 L54.2399988,39.3598071 C52.6492788,39.3598071 51.3599989,38.0705271 51.3599989,36.4798072 C51.3599989,34.8890872 52.6492788,33.5998072 54.2399988,33.5998072 L130.079997,33.5998072 C131.670717,33.5998072 132.959997,34.8890872 132.959997,36.4798072 C132.959997,38.0705271 131.670717,39.3598071 130.079997,39.3598071" id="Fill-11" fill="#E5EDF5"></path>
                <path d="M130.079997,71.9998064 L54.2399988,71.9998064 C52.6492788,71.9998064 51.3599989,70.7105264 51.3599989,69.119807 L51.3599989,47.9998069 C51.3599989,46.409087 52.6492788,45.119807 54.2399988,45.119807 L130.079997,45.119807 C131.670717,45.119807 132.959997,46.409087 132.959997,47.9998069 L132.959997,69.119807 C132.959997,70.7105264 131.670717,71.9998064 130.079997,71.9998064" id="Fill-13" fill="#E5EDF5"></path>
                <path d="M130.079997,79.6798062 L54.2399988,79.6798062 C52.6492788,79.6798062 51.3599989,80.9690862 51.3599989,82.5598062 C51.3599989,84.1505261 52.6492788,85.4398061 54.2399988,85.4398061 L130.079997,85.4398061 C131.670717,85.4398061 132.959997,84.1505261 132.959997,82.5598062 C132.959997,80.9690862 131.670717,79.6798062 130.079997,79.6798062" id="Fill-15" fill="#E5EDF5"></path>
                <path d="M130.079997,91.199806 L54.2399988,91.199806 C52.6492788,91.199806 51.3599989,92.4890859 51.3599989,94.0798059 C51.3599989,95.6705259 52.6492788,96.9598058 54.2399988,96.9598058 L130.079997,96.9598058 C131.670717,96.9598058 132.959997,95.6705259 132.959997,94.0798059 C132.959997,92.4890859 131.670717,91.199806 130.079997,91.199806" id="Fill-17" fill="#E5EDF5"></path>
                <path d="M130.079997,129.599805 L54.2399988,129.599805 C52.6492788,129.599805 51.3599989,128.310525 51.3599989,126.719806 L51.3599989,105.599806 C51.3599989,104.009086 52.6492788,102.719806 54.2399988,102.719806 L130.079997,102.719806 C131.670717,102.719806 132.959997,104.009086 132.959997,105.599806 L132.959997,126.719806 C132.959997,128.310525 131.670717,129.599805 130.079997,129.599805" id="Fill-19" fill="#E5EDF5"></path>
                <path d="M126.719997,152.639805 L58.5599987,152.639805 C54.8486388,152.639805 51.8399988,149.631165 51.8399988,145.919805 C51.8399988,142.208445 54.8486388,139.199805 58.5599987,139.199805 L126.719997,139.199805 C130.431357,139.199805 133.439997,142.208445 133.439997,145.919805 C133.439997,149.631165 130.431357,152.639805 126.719997,152.639805" id="Fill-21" fill="#34C8CD"></path>
                <path d="M120.304938,155.214863 L64.9750574,155.214863 C61.9623064,155.214863 59.5199987,152.772556 59.5199987,149.759805 C59.5199987,146.747054 61.9623064,144.304746 64.9750574,144.304746 L120.304938,144.304746 C123.317689,144.304746 125.759997,146.747054 125.759997,149.759805 C125.759997,152.772556 123.317689,155.214863 120.304938,155.214863" id="Fill-21" fill-opacity="0.3" fill="#34C8CD" filter="url(#filter-2)"></path>
                <g transform="translate(0.000000, 85.430398)" fill="#1A66FF" id="Fill-23">
                    <path d="M59.3624879,42.7308914 C61.2232711,43.6652081 62.3999026,45.5878244 62.3999026,47.6938435 L62.3999026,58.1595753 C62.3999026,75.1177704 51.6662944,89.5346239 36.7125011,94.7937891 C36.5624379,94.8463877 36.3973684,94.8463877 36.2473053,94.7937891 C21.2935119,89.5346239 10.5599038,75.1177704 10.5599038,58.1595753 L10.5599038,47.3886334 C10.5599038,45.2867667 11.7331248,43.3662267 13.5884511,42.4305258 L13.9090405,42.2692697 L34.6655032,31.8326055 C35.6190864,31.3529896 36.7404674,31.3536817 37.6940505,31.8332976 L59.2144711,42.6568381 L59.3624879,42.7308914 Z" fill-opacity="0.3" filter="url(#filter-3)"></path>
                    <path d="M68.6850225,16.0481276 C71.3039024,17.3441276 72.9599024,20.0110076 72.9599024,22.9322875 L72.9599024,37.4494072 C72.9599024,60.9722866 57.8533427,80.9700462 36.8072632,88.265086 C36.5960632,88.338046 36.3637432,88.338046 36.1525432,88.265086 C15.1064637,80.9700462 -9.59999978e-05,60.9722866 -9.59999978e-05,37.4494072 L-9.59999978e-05,22.5089275 C-9.59999978e-05,19.5934076 1.65110396,16.9294076 4.2623039,15.6314877 L4.71350389,15.4078077 L33.9263032,0.931007979 C35.2683832,0.265727994 36.8466232,0.266687994 38.1887031,0.931967979 L68.4767025,15.9454076 L68.6850225,16.0481276 Z"></path>
                </g>
                <path d="M36.4799992,120.201405 C38.6015991,120.201405 40.3199991,121.929405 40.3199991,124.041405 L40.3199991,125.961405 L32.6399993,125.961405 L32.6399993,124.041405 C32.6399993,121.929405 34.3583992,120.201405 36.4799992,120.201405 M34.5599992,133.171005 C34.5599992,132.115005 35.4239992,131.251005 36.4799992,131.251005 C37.5359992,131.251005 38.3999991,132.115005 38.3999991,133.171005 C38.3999991,133.881405 38.0159992,134.495805 37.4399992,134.821245 L37.4399992,137.011005 C37.4399992,137.539005 37.0079992,137.971005 36.4799992,137.971005 C35.9519992,137.971005 35.5199992,137.539005 35.5199992,137.011005 L35.5199992,134.821245 C34.9439992,134.495805 34.5599992,133.881405 34.5599992,133.171005 M45.119999,125.961405 L44.159999,125.961405 L44.159999,124.041405 C44.159999,119.807805 40.7135991,116.361405 36.4799992,116.361405 C32.2463993,116.361405 28.7999994,119.807805 28.7999994,124.041405 L28.7999994,125.961405 L27.8399994,125.961405 C26.2559994,125.961405 24.9599994,127.258365 24.9599994,128.841405 L24.9599994,140.361405 C24.9599994,141.955005 26.2559994,143.241405 27.8399994,143.241405 L45.119999,143.241405 C46.703999,143.241405 47.9999989,141.955005 47.9999989,140.361405 L47.9999989,128.841405 C47.9999989,127.258365 46.703999,125.961405 45.119999,125.961405" id="Fill-25" fill="#FFFFFF"></path>
                <polygon id="Fill-27" fill="#FFFFFF" points="84.7406381 145.378845 83.1316781 142.770525 81.6455982 142.770525 81.6455982 149.070045 83.3889581 149.070045 83.3889581 146.464605 84.9940781 149.070045 86.4830381 149.070045 86.4830381 142.770525 84.7406381 142.770525"></polygon>
                <polygon id="Fill-29" fill="#FFFFFF" points="87.69283 149.069853 91.9561899 149.069853 91.9561899 147.348573 89.43523 147.348573 89.43523 146.736093 91.58755 146.736093 91.58755 145.059933 89.43523 145.059933 89.43523 144.491613 91.9561899 144.491613 91.9561899 142.770333 87.69283 142.770333"></polygon>
                <polygon id="Fill-31" fill="#FFFFFF" points="98.3305898 142.770717 96.3270698 142.770717 95.5773099 144.115677 94.8285099 142.770717 92.8326699 142.770717 94.5885099 145.852317 92.7289899 149.070237 94.7209899 149.070237 95.5763499 147.571677 96.4297898 149.070237 98.4390698 149.070237 96.5229098 145.852317"></polygon>
                <polygon id="Fill-33" fill="#FFFFFF" points="99.0552938 142.770717 99.0552938 144.447837 100.473214 144.447837 100.473214 149.070237 102.215614 149.070237 102.215614 144.447837 103.634494 144.447837 103.634494 142.770717"></polygon>
                <path d="M178.559996,15.3598077 L178.559996,34.5598072 C178.559996,36.6814072 176.841596,38.3998071 174.719996,38.3998071 L120.959997,38.3998071 C118.838397,38.3998071 117.119997,36.6814072 117.119997,34.5598072 L117.119997,15.3598077 C117.119997,13.2382077 118.838397,11.5198077 120.959997,11.5198077 L174.719996,11.5198077 C176.841596,11.5198077 178.559996,13.2382077 178.559996,15.3598077" id="Fill-35" fill="#E4E4E4" filter="url(#filter-4)"></path>
                <path d="M178.559996,10.5598078 L178.559996,29.7598073 C178.559996,31.8814073 176.841596,33.5998072 174.719996,33.5998072 L120.959997,33.5998072 C118.838397,33.5998072 117.119997,31.8814073 117.119997,29.7598073 L117.119997,10.5598078 C117.119997,8.43820781 118.838397,6.71980785 120.959997,6.71980785 L174.719996,6.71980785 C176.841596,6.71980785 178.559996,8.43820781 178.559996,10.5598078" id="Fill-35" fill="#FFFFFF"></path>
                <path d="M131.806845,14.5329597 L129.084285,14.5329597 L129.084285,18.5351996 L131.727165,18.5351996 C132.435645,18.5351996 133.031805,18.4756796 133.514685,18.3527996 C133.998525,18.2308796 134.367165,18.0206396 134.623485,17.7249596 C134.876925,17.4321596 135.005565,17.0251196 135.005565,16.5086396 C135.005565,16.1044796 134.903805,15.7492796 134.698365,15.4401597 C134.492925,15.1329597 134.208765,14.9035197 133.843965,14.7518397 C133.500285,14.6049597 132.819645,14.5329597 131.806845,14.5329597 M130.117245,20.6519995 L129.084285,20.6519995 L129.084285,25.3300794 C129.084285,25.9463994 128.948925,26.4004794 128.678205,26.6923194 C128.406525,26.9841594 128.051325,27.1300794 127.614525,27.1300794 C127.144125,27.1300794 126.780285,26.9774394 126.521085,26.6731194 C126.263805,26.3678394 126.135165,25.9195194 126.135165,25.3300794 L126.135165,14.1239997 C126.135165,13.4884797 126.276285,13.0295997 126.560445,12.7444797 C126.845565,12.4603197 127.307325,12.3153597 127.943805,12.3153597 L132.740925,12.3153597 C133.402365,12.3153597 133.969725,12.3451197 134.440125,12.3998397 C134.910525,12.4574397 135.334845,12.5726397 135.711165,12.7444797 C136.169085,12.9364797 136.573245,13.2100797 136.923645,13.5681597 C137.275005,13.9252797 137.539965,14.3428797 137.723325,14.8151997 C137.904765,15.2894397 137.996925,15.7915196 137.996925,16.3204796 C137.996925,17.4071996 137.689725,18.2740796 137.078205,18.9239996 C136.464765,19.5729596 135.535485,20.0327996 134.290365,20.3035195 C134.813565,20.5819195 135.313725,20.9927995 135.790845,21.5351995 C136.267965,22.0785595 136.692285,22.6574395 137.066685,23.2689595 C137.440125,23.8823995 137.733885,24.4363195 137.942205,24.9287994 C138.150525,25.4231994 138.255165,25.7611194 138.255165,25.9463994 C138.255165,26.1383994 138.192765,26.3284794 138.071805,26.5175994 C137.947965,26.7057594 137.780925,26.8564794 137.568765,26.9639994 C137.356605,27.0743994 137.110845,27.1300794 136.833405,27.1300794 C136.502205,27.1300794 136.224765,27.0503994 135.998205,26.8958394 C135.773565,26.7412794 135.579645,26.5425594 135.418365,26.3044794 C135.255165,26.0654394 135.036285,25.7140794 134.757885,25.2513594 L133.575165,23.2833595 C133.150845,22.5614395 132.771645,22.0123195 132.437565,21.6340795 C132.102525,21.2577595 131.764605,20.9985595 131.419965,20.8603195 C131.075325,20.7201595 130.640445,20.6519995 130.117245,20.6519995" id="Fill-37" fill="#1A66FF"></path>
                <path d="M147.523101,21.6147835 C147.523101,20.5088635 147.280221,19.6477436 146.794461,19.0323836 C146.305821,18.4160636 145.653021,18.1098236 144.831261,18.1098236 C144.302301,18.1098236 143.833821,18.2461436 143.429661,18.5197436 C143.025501,18.7952636 142.714461,19.2013436 142.496541,19.7379836 C142.277661,20.2746235 142.169181,20.8995835 142.169181,21.6147835 C142.169181,22.3232635 142.274781,22.9443835 142.491741,23.4743035 C142.704861,24.0032635 143.014941,24.4093435 143.417181,24.6896634 C143.816541,24.9728634 144.288861,25.1120634 144.831261,25.1120634 C145.653021,25.1120634 146.305821,24.8019834 146.794461,24.1827835 C147.280221,23.5635835 147.523101,22.7082235 147.523101,21.6147835 M150.244701,21.6147835 C150.244701,22.4231035 150.118941,23.1690235 149.867421,23.8515835 C149.615901,24.5331835 149.252061,25.1178234 148.774941,25.6083834 C148.297821,26.0989434 147.728541,26.4752634 147.065181,26.7363834 C146.403741,26.9965434 145.659741,27.1299834 144.831261,27.1299834 C144.010461,27.1299834 143.270301,26.9965434 142.615581,26.7325434 C141.959901,26.4675834 141.391581,26.0874234 140.912541,25.5939834 C140.431581,25.1005434 140.066781,24.5178235 139.821021,23.8439035 C139.571421,23.1738235 139.447581,22.4298235 139.447581,21.6147835 C139.447581,20.7939835 139.573341,20.0423036 139.823901,19.3607036 C140.076381,18.6781436 140.436381,18.0954236 140.905821,17.6125436 C141.377181,17.1287036 141.945501,16.7552636 142.615581,16.4931836 C143.283741,16.2330236 144.022941,16.1024636 144.831261,16.1024636 C145.653021,16.1024636 146.397021,16.2349436 147.065181,16.4999036 C147.735261,16.7648636 148.308381,17.1421436 148.785501,17.6327036 C149.262621,18.1223036 149.624541,18.7050236 149.874141,19.3808636 C150.120861,20.0567036 150.244701,20.7997435 150.244701,21.6147835" id="Fill-39" fill="#1A66FF"></path>
                <path d="M159.812828,21.6147835 C159.812828,20.5088635 159.568028,19.6477436 159.082268,19.0323836 C158.593628,18.4160636 157.940828,18.1098236 157.119068,18.1098236 C156.590108,18.1098236 156.123549,18.2461436 155.719389,18.5197436 C155.315229,18.7952636 155.004189,19.2013436 154.786269,19.7379836 C154.567389,20.2746235 154.456989,20.8995835 154.456989,21.6147835 C154.456989,22.3232635 154.565469,22.9443835 154.779549,23.4743035 C154.995549,24.0032635 155.302749,24.4093435 155.704989,24.6896634 C156.104349,24.9728634 156.576669,25.1120634 157.119068,25.1120634 C157.940828,25.1120634 158.593628,24.8019834 159.082268,24.1827835 C159.568028,23.5635835 159.812828,22.7082235 159.812828,21.6147835 M162.535388,21.6147835 C162.535388,22.4231035 162.408668,23.1690235 162.157148,23.8515835 C161.906588,24.5331835 161.541788,25.1178234 161.064668,25.6083834 C160.588508,26.0989434 160.018268,26.4752634 159.355868,26.7363834 C158.693468,26.9965434 157.947548,27.1299834 157.119068,27.1299834 C156.298269,27.1299834 155.560989,26.9965434 154.905309,26.7325434 C154.249629,26.4675834 153.679389,26.0874234 153.200349,25.5939834 C152.719389,25.1005434 152.354589,24.5178235 152.108829,23.8439035 C151.859229,23.1738235 151.735389,22.4298235 151.735389,21.6147835 C151.735389,20.7939835 151.861149,20.0423036 152.112669,19.3607036 C152.364189,18.6781436 152.726109,18.0954236 153.196509,17.6125436 C153.666909,17.1287036 154.236189,16.7552636 154.905309,16.4931836 C155.574429,16.2330236 156.311709,16.1024636 157.119068,16.1024636 C157.940828,16.1024636 158.686748,16.2349436 159.355868,16.4999036 C160.024988,16.7648636 160.596188,17.1421436 161.073308,17.6327036 C161.550428,18.1223036 161.913308,18.7050236 162.161948,19.3808636 C162.408668,20.0567036 162.535388,20.7997435 162.535388,21.6147835" id="Fill-41" fill="#1A66FF"></path>
                <path d="M164.819996,16.3404476 L165.118556,16.3404476 L165.118556,14.7122877 C165.118556,14.2745277 165.129116,13.9298877 165.154076,13.6822077 C165.175196,13.4335677 165.239516,13.2214077 165.345116,13.0418877 C165.450716,12.8566077 165.603356,12.7068477 165.802076,12.5897277 C166.000796,12.4754877 166.224476,12.4150077 166.469276,12.4150077 C166.812956,12.4150077 167.123996,12.5455677 167.402396,12.8038077 C167.588636,12.9766077 167.705756,13.1858877 167.756636,13.4335677 C167.804636,13.6822077 167.829596,14.0364477 167.829596,14.4924477 L167.829596,16.3404476 L168.822236,16.3404476 C169.206236,16.3404476 169.499996,16.4316476 169.703516,16.6121276 C169.904156,16.7954876 170.004956,17.0297276 170.004956,17.3148476 C170.004956,17.6786876 169.861916,17.9321276 169.572956,18.0790076 C169.285916,18.2239676 168.873116,18.2969276 168.336476,18.2969276 L167.829596,18.2969276 L167.829596,23.2831675 C167.829596,23.7074875 167.843996,24.0348475 167.875676,24.2623675 C167.904476,24.4908475 167.983196,24.6770874 168.113756,24.8182074 C168.241436,24.9612474 168.451676,25.0322874 168.743516,25.0322874 C168.901916,25.0322874 169.118876,25.0054074 169.389596,24.9487674 C169.661276,24.8930874 169.873436,24.8642874 170.026076,24.8642874 C170.243996,24.8642874 170.439836,24.9535674 170.617436,25.1273274 C170.792156,25.3039674 170.879516,25.5209274 170.879516,25.7782074 C170.879516,26.2159674 170.641436,26.5490874 170.164316,26.7804474 C169.687196,27.0127674 169.000796,27.1298874 168.107036,27.1298874 C167.259356,27.1298874 166.617116,26.9858874 166.180316,26.7017274 C165.742556,26.4166074 165.455516,26.0239674 165.321116,25.5209274 C165.183836,25.0169274 165.118556,24.3439675 165.118556,23.5020475 L165.118556,18.2969276 L164.760476,18.2969276 C164.369756,18.2969276 164.072156,18.2038076 163.866716,18.0185276 C163.661276,17.8332476 163.557596,17.5999676 163.557596,17.3148476 C163.557596,17.0297276 163.665116,16.7954876 163.881116,16.6121276 C164.096156,16.4316476 164.409116,16.3404476 164.819996,16.3404476" id="Fill-43" fill="#1A66FF"></path>
                <polygon id="Fill-45" fill="#1A66FF" points="168.432188 6.71980785 141.552189 33.5998072 132.048189 33.5998072 158.928188 6.71980785"></polygon>
                <path d="M158.246204,6.71980785 L131.366205,33.5998072 L132.729405,33.5998072 L159.609404,6.71980785 L158.246204,6.71980785 Z M167.750204,6.71980785 L140.870205,33.5998072 L142.233405,33.5998072 L169.113404,6.71980785 L167.750204,6.71980785 Z" id="Fill-47" fill="#FFFFFF"></path>
                <path d="M167.039996,95.9999979 C167.039996,107.133577 158.013576,116.159997 146.879997,116.159997 C135.746418,116.159997 126.719997,107.133577 126.719997,95.9999979 C126.719997,84.866419 135.746418,75.8399983 146.879997,75.8399983 C158.013576,75.8399983 167.039996,84.866419 167.039996,95.9999979" id="Fill-49" fill-opacity="0.31" fill="#34C8CD" filter="url(#filter-5)"></path>
                <path d="M168.959996,87.359806 C168.959996,99.5537258 159.073916,109.439806 146.879997,109.439806 C134.686077,109.439806 124.799997,99.5537258 124.799997,87.359806 C124.799997,75.1658863 134.686077,65.2798065 146.879997,65.2798065 C159.073916,65.2798065 168.959996,75.1658863 168.959996,87.359806" id="Fill-49" fill="#34C8CD"></path>
                <path d="M149.190909,91.36291 C148.844349,91.56163 148.469949,91.7181099 148.077309,91.8246699 C147.693309,91.9264299 147.295869,91.9821099 146.880189,91.9821099 C146.463549,91.9821099 146.066109,91.9264299 145.683069,91.8246699 C145.290429,91.7181099 144.916029,91.56163 144.569469,91.36291 C143.865789,90.95587 143.284029,90.37411 142.876989,89.67043 C142.678269,89.32387 142.521789,88.94947 142.414269,88.55683 C142.313469,88.17379 142.257789,87.77635 142.257789,87.35971 C142.257789,86.9430701 142.313469,86.5456301 142.414269,86.1625901 C142.521789,85.7699501 142.678269,85.3955501 142.876989,85.0489901 C143.284029,84.3453101 143.865789,83.7635501 144.569469,83.3565101 C144.916029,83.1577901 145.290429,83.0013101 145.683069,82.8947501 C146.066109,82.7929901 146.463549,82.7382702 146.880189,82.7382702 C147.295869,82.7382702 147.693309,82.7929901 148.077309,82.8947501 C148.469949,83.0013101 148.844349,83.1577901 149.190909,83.3565101 C149.893629,83.7635501 150.476349,84.3453101 150.883389,85.0489901 C151.082109,85.3955501 151.238589,85.7699501 151.345149,86.1625901 C151.446909,86.5456301 151.501629,86.9430701 151.501629,87.35971 C151.501629,87.77635 151.446909,88.17379 151.345149,88.55683 C151.238589,88.94947 151.082109,89.32387 150.883389,89.67043 C150.476349,90.37411 149.893629,90.95587 149.190909,91.36291 L149.190909,91.36291 Z M159.360188,89.09347 L159.360188,85.6259501 L155.837949,85.0758701 C155.620029,84.2118701 155.274429,83.3891501 154.825149,82.6403502 L156.929468,79.7603502 L154.479549,77.3104303 L151.599549,79.4147502 C150.850749,78.9654702 150.028029,78.6198702 149.164029,78.4019502 L148.612989,74.8797103 L145.146429,74.8797103 L144.596349,78.4019502 C143.731389,78.6198702 142.909629,78.9654702 142.160829,79.4147502 L139.280829,77.3104303 L136.830909,79.7603502 L138.934269,82.6403502 C138.485949,83.3891501 138.139389,84.2118701 137.922429,85.0758701 L134.400189,85.6259501 L134.400189,89.09347 L137.922429,89.64355 C138.139389,90.50755 138.485949,91.33027 138.934269,92.0790699 L136.830909,94.9590699 L139.280829,97.4089898 L142.160829,95.3046699 C142.909629,95.7539499 143.731389,96.1005099 144.596349,96.3174698 L145.146429,99.8397098 L148.612989,99.8397098 L149.164029,96.3174698 C150.028029,96.1005099 150.850749,95.7539499 151.599549,95.3046699 L154.479549,97.4089898 L156.929468,94.9590699 L154.825149,92.0790699 C155.274429,91.33027 155.620029,90.50755 155.837949,89.64355 L159.360188,89.09347 Z" id="Fill-51" fill="#FFFFFF"></path>
            </g>
        </g>
    </g>
</svg>