<?xml version="1.0" standalone="no"?><!DOCTYPE svg PUBLIC "-//W3C//DTD SVG 1.1//EN" "http://www.w3.org/Graphics/SVG/1.1/DTD/svg11.dtd"><svg t="1630381473153" class="icon" viewBox="0 0 1293 1024" version="1.1" xmlns="http://www.w3.org/2000/svg" p-id="27851" xmlns:xlink="http://www.w3.org/1999/xlink" width="252.5390625" height="200"><defs><style type="text/css"></style></defs><path d="M1035.63228033 587.344842c-23.821474 0-44.463158-20.048842-44.463158-40.151579 0-24.791579 20.641684-44.840421 44.517053-44.840421 31.797895 0 55.619368 20.048842 55.619369 44.840421 0 20.102737-23.821474 40.151579-55.619369 40.151579m-249.586526 0c-22.312421 0-44.517053-20.048842-44.517053-40.151579 0-24.791579 22.204632-44.840421 44.517053-44.840421 33.360842 0 57.182316 20.048842 57.182316 44.840421 0 20.102737-23.821474 40.151579-57.182316 40.151579m507.149473 57.236211c0-176.235789-181.248-318.410105-383.191578-318.410106-212.992 0-381.574737 142.174316-381.574737 318.410106 0 176.235789 168.582737 318.410105 381.574737 318.410105 46.133895 0 90.650947-13.904842 136.784842-23.174737l120.72421 66.452211-31.797895-111.292632c89.088-63.380211 157.426526-151.444211 157.426527-250.394947" fill="#0DB807" p-id="27852"></path><path d="M639.77543833 293.726316c-33.414737 0-65.212632-21.665684-65.212631-54.164211 0-33.953684 31.797895-54.110316 65.212631-54.110316 34.977684 0 57.236211 20.156632 57.236211 54.110316 0 32.498526-22.258526 54.110316-57.236211 54.110316m-314.745263 0c-33.414737 0-68.446316-21.557895-68.446316-54.110316 0-33.953684 35.031579-54.110316 68.446316-54.110316 31.797895 0 57.182316 20.156632 57.182316 54.110316 0 32.498526-25.384421 54.110316-57.182316 54.110316M472.86343833 0C224.83985933 0 21.33333333 160.768 21.33333333 370.957474c0 119.053474 66.775579 216.387368 179.631158 293.726315l-46.133895 132.904422 160.606316-78.794106c55.673263 15.413895 98.573474 24.683789 157.426526 24.68379 12.719158 0 27.001263 0 39.720421-1.509053a363.681684 363.681684 0 0 1-12.719158-92.752842c0-190.140632 166.965895-347.836632 383.191579-347.836632 12.719158 0 27.001263 1.616842 42.900211 4.688843C887.79901733 126.760421 692.32280733 0 472.86343833 0" fill="#0DB807" p-id="27853"></path></svg>