<?xml version="1.0" encoding="utf-8"?>
<!-- Generator: Adobe Illustrator 22.0.0, SVG Export Plug-In . SVG Version: 6.00 Build 0)  -->
<svg version="1.1" id="图层_1" xmlns="http://www.w3.org/2000/svg" xmlns:xlink="http://www.w3.org/1999/xlink" x="0px" y="0px"
	 viewBox="0 0 100 21" style="enable-background:new 0 0 100 21;" xml:space="preserve">
<style type="text/css">
	.st0{fill:#6BB4AB;}
	.st1{fill:#168AFF;}
	.st2{fill:#FFFFFF;}
	.st3{fill:#FFFFFF;stroke:#FFFFFF;stroke-width:0.25;stroke-miterlimit:10;}
</style>
<g>
	<g>
		<path class="st2" d="M12,0C5.4,0,0,4.6,0,10.2v0.1h3.2c0.1,4,3.9,7.4,8.7,7.4v2.7H12c6.6,0,12-4.6,12-10.2C24,4.5,18.6,0,12,0z
			 M13.3,19.2v-2.7H12c-4,0-7.3-2.8-7.4-6.2h16.2v-0.1c0-4.1-4-7.6-8.8-7.6c-4.4,0-8.1,2.8-8.7,6.4H1.5C2.2,4.5,6.6,1.2,12,1.2
			c5.8,0,10.6,4,10.6,9C22.6,14.8,18.6,18.6,13.3,19.2z M4.7,9.1c0.7-3,3.7-5.1,7.3-5.1c3.6,0,6.6,2.2,7.3,5.1H4.7z"/>
		<path class="st2" d="M11.3,19.6L11.3,19.6c-2-0.1-3.8-0.6-5.3-1.5c-0.2-0.1-0.6-0.3-2.3,0.5c0.7-1.4,0.5-1.8,0.3-2
			c-1.6-1.6-2.5-3.5-2.6-5.5H0c0.1,2.3,1,4.4,2.8,6.2c-0.1,0.4-0.6,1.5-1.2,2.6c-0.1,0.2-0.1,0.5,0.2,0.7c0.2,0.2,0.5,0.2,0.8,0.1
			c1.2-0.6,2.5-1.2,2.9-1.3c1.6,0.9,3.4,1.4,5.2,1.6c0.4,0,0.6,0,0.6,0v-0.1l0,0l0,0v-0.4C11.3,20.5,11.3,19.6,11.3,19.6z"/>
	</g>
	<path class="st2" d="M38.5,7.3c-0.9,0-1.9,0.3-2.9,0.9l-0.1,0.1l0.6,1l0.1-0.1c0.7-0.5,1.4-0.7,2.1-0.7c0.9,0,1.3,0.5,1.3,1.6
		c-3.1,0.4-4.4,1.2-4.4,2.8c0,1.3,0.9,2.1,2.2,2.1c0.7,0,1.5-0.3,2.3-0.9l0.1,0.8H41v-4.5C41,8.4,40.1,7.3,38.5,7.3z M39.6,11.1v1.8
		c-0.7,0.6-1.2,0.9-1.8,0.9c-0.5,0-1.1-0.2-1.1-1C36.7,12.2,37,11.5,39.6,11.1z"/>
	<path class="st2" d="M45.4,10.5l-0.2-0.1c-0.7-0.3-1.4-0.5-1.4-1.1s0.4-0.9,1.2-0.9c0.7,0,1.1,0.3,1.6,0.6l0.1,0.1l0.7-1L47.3,8
		c-0.7-0.5-1.5-0.8-2.3-0.8c-1.5,0-2.6,0.9-2.6,2.1c0,1.4,1.4,1.9,2.2,2.2c0.7,0.3,1.5,0.6,1.5,1.2c0,0.6-0.5,1-1.3,1
		c-0.7,0-1.3-0.2-2-0.8l-0.1-0.1l-0.7,1l0.1,0.1c0.8,0.6,1.8,1,2.7,1c1.9,0,2.7-1.1,2.7-2.2C47.6,11.4,46.4,10.9,45.4,10.5z"/>
	<path class="st2" d="M51.9,11.5c-0.1,0.4-0.2,0.8-0.4,1.2c-0.1,0.2-0.1,0.4-0.2,0.5c-0.2-0.5-0.3-0.9-0.5-1.4l-1.6-4.3V7.4h-1.5
		l2.9,7.2l-0.1,0.5c-0.2,0.7-0.6,1.4-1.5,1.4c-0.1,0-0.3,0-0.5-0.1h-0.1l-0.3,1.2h0.1c0.2,0.1,0.5,0.2,0.9,0.2
		c1.7,0,2.4-1.5,2.8-2.6l2.7-7.8h-1.4L51.9,11.5z"/>
	<path class="st2" d="M63.3,10.3c-0.2,0.9-0.3,1.7-0.5,2.6c-0.2-0.8-0.4-1.7-0.6-2.6L60.8,5h-1.3l-1.3,5.3v0.2
		c-0.2,0.8-0.4,1.6-0.5,2.4c-0.1-0.4-0.1-0.7-0.2-1.1c-0.1-0.5-0.2-1-0.3-1.5l-1-5.3h-1.5l2.1,9.7v0.1h1.6l1.4-5.9
		c0.1-0.4,0.2-0.8,0.3-1.2c0-0.2,0.1-0.3,0.1-0.5v0.1c0.1,0.5,0.2,1,0.3,1.6l1.4,5.8v0.1h1.6l2-9.8h-1.4L63.3,10.3z"/>
	<path class="st2" d="M69.7,7.3c-2.2,0-3.3,2-3.3,3.9c0,2.3,1.4,3.8,3.5,3.8c0.9,0,1.6-0.2,2.4-0.8l0.1-0.1l-0.6-1l-0.1,0.1
		c-0.5,0.4-1.1,0.6-1.7,0.6c-1.2,0-2.1-0.9-2.2-2.2h4.8v-0.1c0-0.1,0.1-0.4,0.1-0.7C72.6,8.6,71.5,7.3,69.7,7.3z M71.3,10.5h-3.5
		c0.2-1.2,0.9-2,1.9-2C70.7,8.5,71.3,9.2,71.3,10.5z"/>
	<path class="st2" d="M31.2,7.3c-2.2,0-3.3,2-3.3,3.9c0,2.3,1.4,3.8,3.5,3.8c0.9,0,1.6-0.2,2.4-0.8l0.1-0.1l-0.6-1l-0.1,0.1
		c-0.5,0.4-1.1,0.6-1.7,0.6c-1.2,0-2.1-0.9-2.2-2.2h4.8v-0.1c0-0.1,0.1-0.4,0.1-0.7C34.1,8.6,33,7.3,31.2,7.3z M32.8,10.5h-3.5
		c0.2-1.2,0.9-2,1.9-2C32.2,8.5,32.8,9.2,32.8,10.5z"/>
	<path class="st2" d="M80,12.7c-0.6,0.7-1.3,1-2.1,1c-1.8,0-2.9-1.5-2.9-3.8s1.1-3.8,2.9-3.8c0.7,0,1.3,0.3,1.9,0.9l0.1,0.1l0.8-1
		L80.6,6c-0.3-0.3-1.2-1.2-2.7-1.2c-2.6,0-4.4,2-4.4,5.1c0,3,1.7,5.1,4.3,5.1c1.2,0,2.2-0.5,3-1.4l0.1-0.1L80,12.7L80,12.7z"/>
	<path class="st2" d="M85.1,7.3c-1.7,0-3.4,1.3-3.4,3.9c0,2.5,1.7,3.8,3.4,3.8s3.4-1.3,3.4-3.8C88.5,8.6,86.8,7.3,85.1,7.3z
		 M87,11.2c0,1.5-0.8,2.6-1.9,2.6c-1.2,0-1.9-1-1.9-2.6s0.8-2.6,1.9-2.6C86.2,8.6,87,9.6,87,11.2z"/>
	<path class="st2" d="M97.7,7.3c-0.9,0-1.7,0.6-2.3,1.3c-0.4-0.8-1-1.3-2-1.3c-0.7,0-1.4,0.4-2.1,1.1l-0.1-0.9H90v7.3h1.4V9.6
		c0.6-0.7,1.2-1,1.7-1c0.8,0,1.2,0.5,1.2,1.8v4.4h1.4V9.6c0.6-0.7,1.2-1,1.7-1c0.8,0,1.2,0.5,1.2,1.8v4.4h1.4v-4.6
		C100,8.3,99.2,7.3,97.7,7.3z"/>
</g>
</svg>
